G04 start of page 10 for group -4078 idx -4078 *
G04 Title: Current - Sink or Swim, bottomsilk *
G04 Creator: pcb 1.99z *
G04 CreationDate: Tue 14 Apr 2015 12:04:08 AM GMT UTC *
G04 For: eelco *
G04 Format: Gerber/RS-274X *
G04 PCB-Dimensions (mil): 3937.01 3937.01 *
G04 PCB-Coordinate-Origin: lower left *
%MOIN*%
%FSLAX25Y25*%
%LNBOTTOMSILK*%
%ADD90C,0.0157*%
%ADD89C,0.0081*%
%ADD88C,0.0083*%
%ADD87C,0.0079*%
G54D87*X278340Y217041D02*X280000D01*
X279170Y210401D02*Y217041D01*
X278340Y210401D02*X280000D01*
X273028D02*X275518D01*
X273028D02*X272198Y211231D01*
X273028Y212061D02*X272198Y211231D01*
X273028Y212061D02*X275518D01*
X276348Y212891D02*X275518Y212061D01*
X276348Y212891D02*X275518Y213721D01*
X273028D02*X275518D01*
X273028D02*X272198Y212891D01*
X276348Y211231D02*X275518Y210401D01*
X266886D02*X269376D01*
X270206Y211231D02*X269376Y210401D01*
X270206Y211231D02*Y212891D01*
X269376Y213721D01*
X267716D02*X269376D01*
X267716D02*X266886Y212891D01*
Y212061D02*X270206D01*
X266886D02*Y212891D01*
X264064Y211231D02*Y217041D01*
Y211231D02*X263234Y210401D01*
Y214551D02*X264894D01*
X278340Y227041D02*X280000D01*
X279170Y220401D02*Y227041D01*
X278340Y220401D02*X280000D01*
X275518D02*Y222891D01*
X274688Y223721D01*
X273858D02*X274688D01*
X273858D02*X273028Y222891D01*
Y220401D02*Y222891D01*
X272198Y223721D01*
X271368D02*X272198D01*
X271368D02*X270538Y222891D01*
Y220401D02*Y222891D01*
X276348Y223721D02*X275518Y222891D01*
X268546Y221231D02*Y222891D01*
X267716Y223721D01*
X266056D02*X267716D01*
X266056D02*X265226Y222891D01*
Y221231D02*Y222891D01*
X266056Y220401D02*X265226Y221231D01*
X266056Y220401D02*X267716D01*
X268546Y221231D02*X267716Y220401D01*
X262404D02*Y222891D01*
X261574Y223721D01*
X260744D02*X261574D01*
X260744D02*X259914Y222891D01*
Y220401D02*Y222891D01*
X263234Y223721D02*X262404Y222891D01*
X276680Y237041D02*X280000D01*
X278340Y230401D02*Y237041D01*
X271368Y230401D02*X273858D01*
X271368D02*X270538Y231231D01*
X271368Y232061D02*X270538Y231231D01*
X271368Y232061D02*X273858D01*
X274688Y232891D02*X273858Y232061D01*
X274688Y232891D02*X273858Y233721D01*
X271368D02*X273858D01*
X271368D02*X270538Y232891D01*
X274688Y231231D02*X273858Y230401D01*
X265226D02*X267716D01*
X268546Y231231D02*X267716Y230401D01*
X268546Y231231D02*Y232891D01*
X267716Y233721D01*
X266056D02*X267716D01*
X266056D02*X265226Y232891D01*
Y232061D02*X268546D01*
X265226D02*Y232891D01*
X262404Y231231D02*Y237041D01*
Y231231D02*X261574Y230401D01*
Y234551D02*X263234D01*
X276680Y247041D02*X280000D01*
X278340Y240401D02*Y247041D01*
X273858Y240401D02*Y242891D01*
X273028Y243721D01*
X272198D02*X273028D01*
X272198D02*X271368Y242891D01*
Y240401D02*Y242891D01*
X270538Y243721D01*
X269708D02*X270538D01*
X269708D02*X268878Y242891D01*
Y240401D02*Y242891D01*
X274688Y243721D02*X273858Y242891D01*
X266886Y241231D02*Y242891D01*
X266056Y243721D01*
X264396D02*X266056D01*
X264396D02*X263566Y242891D01*
Y241231D02*Y242891D01*
X264396Y240401D02*X263566Y241231D01*
X264396Y240401D02*X266056D01*
X266886Y241231D02*X266056Y240401D01*
X260744D02*Y242891D01*
X259914Y243721D01*
X259084D02*X259914D01*
X259084D02*X258254Y242891D01*
Y240401D02*Y242891D01*
X261574Y243721D02*X260744Y242891D01*
X276680Y187041D02*X275850Y186211D01*
X276680Y187041D02*X279170D01*
X280000Y186211D02*X279170Y187041D01*
X280000Y181231D02*Y186211D01*
Y181231D02*X279170Y180401D01*
X276680D02*X279170D01*
X276680D02*X275850Y181231D01*
Y182891D01*
X276680Y183721D02*X275850Y182891D01*
X276680Y183721D02*X278340D01*
X273858Y180401D02*Y187041D01*
X269708Y180401D01*
Y187041D01*
X266886Y180401D02*Y187041D01*
X264728D02*X263566Y185879D01*
Y181563D02*Y185879D01*
X264728Y180401D02*X263566Y181563D01*
X264728Y180401D02*X267716D01*
X264728Y187041D02*X267716D01*
X280000Y197041D02*X278340Y190401D01*
X276680Y197041D01*
X274688Y190401D02*Y197041D01*
Y191231D02*X273858Y190401D01*
X272198D02*X273858D01*
X272198D02*X271368Y191231D01*
Y192891D01*
X272198Y193721D02*X271368Y192891D01*
X272198Y193721D02*X273858D01*
X274688Y192891D02*X273858Y193721D01*
X266886D02*X266056Y192891D01*
X266886Y193721D02*X268546D01*
X269376Y192891D02*X268546Y193721D01*
X269376Y191231D02*Y192891D01*
Y191231D02*X268546Y190401D01*
X266056Y191231D02*Y193721D01*
Y191231D02*X265226Y190401D01*
X266886D02*X268546D01*
X266886D02*X266056Y191231D01*
X262404D02*Y197041D01*
Y191231D02*X261574Y190401D01*
Y194551D02*X263234D01*
X280000Y207041D02*X278340Y200401D01*
X276680Y207041D01*
X271368Y200401D02*Y207041D01*
X272198Y200401D02*X271368Y201231D01*
X272198Y200401D02*X273858D01*
X274688Y201231D02*X273858Y200401D01*
X274688Y201231D02*Y202891D01*
X273858Y203721D01*
X272198D02*X273858D01*
X272198D02*X271368Y202891D01*
X266056Y200401D02*Y207041D01*
X266886Y200401D02*X266056Y201231D01*
X266886Y200401D02*X268546D01*
X269376Y201231D02*X268546Y200401D01*
X269376Y201231D02*Y202891D01*
X268546Y203721D01*
X266886D02*X268546D01*
X266886D02*X266056Y202891D01*
X127527Y150768D02*Y152926D01*
X128689Y149606D02*X127527Y150768D01*
X128689Y149606D02*X133005D01*
X134167Y150768D01*
Y152926D01*
X128357Y154918D02*X130847D01*
X128357D02*X127527Y155748D01*
Y157408D01*
X128357Y158238D01*
X130847D01*
X127527Y161060D02*X130017D01*
X130847Y161890D01*
Y163550D01*
Y160230D02*X130017Y161060D01*
X127527Y166372D02*X130017D01*
X130847Y167202D01*
Y168862D01*
Y165542D02*X130017Y166372D01*
X127527Y171684D02*Y174174D01*
X128357Y170854D02*X127527Y171684D01*
X128357Y170854D02*X130017D01*
X130847Y171684D01*
Y173344D01*
X130017Y174174D01*
X129187Y170854D02*Y174174D01*
X130017D01*
X127527Y176996D02*X130017D01*
X130847Y177826D01*
Y178656D01*
X130017Y179486D01*
X127527D02*X130017D01*
X130847Y176166D02*X130017Y176996D01*
X128357Y182308D02*X134167D01*
X128357D02*X127527Y183138D01*
X131677Y181478D02*Y183138D01*
X134167Y191106D02*X133337Y191936D01*
X134167Y188616D02*Y191106D01*
X133337Y187786D02*X134167Y188616D01*
X131677Y187786D02*X133337D01*
X131677D02*X130847Y188616D01*
Y191106D01*
X130017Y191936D01*
X128357D02*X130017D01*
X127527Y191106D02*X128357Y191936D01*
X127527Y188616D02*Y191106D01*
X128357Y187786D02*X127527Y188616D01*
G54D88*X132341Y193928D02*X132507D01*
G54D87*X127527D02*X130017D01*
X127527Y196418D02*X130017D01*
X130847Y197248D01*
Y198078D01*
X130017Y198908D01*
X127527D02*X130017D01*
X130847Y195588D02*X130017Y196418D01*
X127527Y200900D02*X134167D01*
X130017D02*X127527Y203390D01*
X130017Y200900D02*X131677Y202560D01*
X128357Y208370D02*X133337D01*
X134167Y209200D01*
Y210860D01*
X133337Y211690D01*
X128357D02*X133337D01*
X127527Y210860D02*X128357Y211690D01*
X127527Y209200D02*Y210860D01*
X128357Y208370D02*X127527Y209200D01*
Y214512D02*X130017D01*
X130847Y215342D01*
Y217002D01*
Y213682D02*X130017Y214512D01*
X134167Y225302D02*X133337Y226132D01*
X134167Y222812D02*Y225302D01*
X133337Y221982D02*X134167Y222812D01*
X131677Y221982D02*X133337D01*
X131677D02*X130847Y222812D01*
Y225302D01*
X130017Y226132D01*
X128357D02*X130017D01*
X127527Y225302D02*X128357Y226132D01*
X127527Y222812D02*Y225302D01*
X128357Y221982D02*X127527Y222812D01*
X128357Y228124D02*X130847D01*
X128357D02*X127527Y228954D01*
Y229784D01*
X128357Y230614D01*
X130847D01*
X128357D02*X127527Y231444D01*
Y232274D01*
X128357Y233104D01*
X130847D01*
G54D88*X132341Y235096D02*X132507D01*
G54D87*X127527D02*X130017D01*
X127527Y237586D02*X130017D01*
X130847Y238416D01*
Y239246D01*
X130017Y240076D01*
X127527D02*X130017D01*
X130847Y240906D01*
Y241736D01*
X130017Y242566D01*
X127527D02*X130017D01*
X130847Y236756D02*X130017Y237586D01*
X119216Y150278D02*Y151526D01*
X119888Y149606D02*X119216Y150278D01*
X119888Y149606D02*X122384D01*
X123056Y150278D01*
Y151526D01*
X119696Y152678D02*X120656D01*
X121136Y153158D01*
Y154118D01*
X120656Y154598D01*
X119696D02*X120656D01*
X119216Y154118D02*X119696Y154598D01*
X119216Y153158D02*Y154118D01*
X119696Y152678D02*X119216Y153158D01*
Y156230D02*X120656D01*
X121136Y156710D01*
Y157190D01*
X120656Y157670D01*
X119216D02*X120656D01*
X121136Y155750D02*X120656Y156230D01*
X119696Y159302D02*X123056D01*
X119696D02*X119216Y159782D01*
X121616Y158822D02*Y159782D01*
X119216Y161222D02*Y162662D01*
X119696Y160742D02*X119216Y161222D01*
X119696Y160742D02*X120656D01*
X121136Y161222D01*
Y162182D01*
X120656Y162662D01*
X120176Y160742D02*Y162662D01*
X120656D01*
X121136Y163814D02*X119216Y165734D01*
Y163814D02*X121136Y165734D01*
X119696Y167366D02*X123056D01*
X119696D02*X119216Y167846D01*
X121616Y166886D02*Y167846D01*
X119696Y168806D02*X121136D01*
X119696D02*X119216Y169286D01*
Y170246D01*
X119696Y170726D01*
X121136D01*
Y173318D02*X120656Y173798D01*
X121136Y172358D02*Y173318D01*
X120656Y171878D02*X121136Y172358D01*
X119696Y171878D02*X120656D01*
X119696D02*X119216Y172358D01*
X119696Y173798D02*X121136D01*
X119696D02*X119216Y174278D01*
Y172358D02*Y173318D01*
X119696Y173798D01*
Y175430D02*X123056D01*
X119696D02*X119216Y175910D01*
X121328Y178598D02*Y180038D01*
X119216Y178598D02*Y180518D01*
Y178598D02*X123056D01*
Y180518D01*
X119696Y181670D02*X123056D01*
X119696D02*X119216Y182150D01*
Y183590D02*Y185030D01*
X119696Y183110D02*X119216Y183590D01*
X119696Y183110D02*X120656D01*
X121136Y183590D01*
Y184550D01*
X120656Y185030D01*
X120176Y183110D02*Y185030D01*
X120656D01*
X121136Y186662D02*Y188102D01*
X120656Y186182D02*X121136Y186662D01*
X119696Y186182D02*X120656D01*
X119696D02*X119216Y186662D01*
Y188102D01*
X119696Y189734D02*X123056D01*
X119696D02*X119216Y190214D01*
X121616Y189254D02*Y190214D01*
X119216Y191654D02*X120656D01*
X121136Y192134D01*
Y193094D01*
Y191174D02*X120656Y191654D01*
X119696Y194246D02*X120656D01*
X121136Y194726D01*
Y195686D01*
X120656Y196166D01*
X119696D02*X120656D01*
X119216Y195686D02*X119696Y196166D01*
X119216Y194726D02*Y195686D01*
X119696Y194246D02*X119216Y194726D01*
Y197798D02*X120656D01*
X121136Y198278D01*
Y198758D01*
X120656Y199238D01*
X119216D02*X120656D01*
X121136Y197318D02*X120656Y197798D01*
X122000Y200390D02*X122096D01*
X119216D02*X120656D01*
X121136Y201830D02*Y203270D01*
X120656Y201350D02*X121136Y201830D01*
X119696Y201350D02*X120656D01*
X119696D02*X119216Y201830D01*
Y203270D01*
Y204902D02*Y206342D01*
X119696Y206822D01*
X120176Y206342D02*X119696Y206822D01*
X120176Y204902D02*Y206342D01*
X120656Y204422D02*X120176Y204902D01*
X120656Y204422D02*X121136Y204902D01*
Y206342D01*
X120656Y206822D01*
X119696Y204422D02*X119216Y204902D01*
X122576Y209702D02*X123056Y210182D01*
Y211622D01*
X122576Y212102D01*
X121616D02*X122576D01*
X119216Y209702D02*X121616Y212102D01*
X119216Y209702D02*Y212102D01*
X119696Y213254D02*X119216Y213734D01*
X119696Y213254D02*X122576D01*
X123056Y213734D01*
Y214694D01*
X122576Y215174D01*
X119696D02*X122576D01*
X119216Y214694D02*X119696Y215174D01*
X119216Y213734D02*Y214694D01*
X120176Y213254D02*X122096Y215174D01*
X122288Y216326D02*X123056Y217094D01*
X119216D02*X123056D01*
X119216Y216326D02*Y217766D01*
X123056Y218918D02*Y220838D01*
X121136Y218918D02*X123056D01*
X121136D02*X121616Y219398D01*
Y220358D01*
X121136Y220838D01*
X119696D02*X121136D01*
X119216Y220358D02*X119696Y220838D01*
X119216Y219398D02*Y220358D01*
X119696Y218918D02*X119216Y219398D01*
X111342Y149606D02*X115182D01*
X112782D02*X113262Y150086D01*
Y151046D01*
X112782Y151526D01*
X111342D02*X112782D01*
X111822Y153158D02*X115182D01*
X111822D02*X111342Y153638D01*
X113742Y152678D02*Y153638D01*
X111822Y155078D02*X115182D01*
X111822D02*X111342Y155558D01*
X113742Y154598D02*Y155558D01*
X109902Y156998D02*X112782D01*
X113262Y156518D02*X112782Y156998D01*
X113262Y157478D01*
Y158438D01*
X112782Y158918D01*
X111822D02*X112782D01*
X111342Y158438D02*X111822Y158918D01*
X111342Y157478D02*Y158438D01*
X111822Y156998D02*X111342Y157478D01*
Y160550D02*Y161990D01*
X111822Y162470D01*
X112302Y161990D02*X111822Y162470D01*
X112302Y160550D02*Y161990D01*
X112782Y160070D02*X112302Y160550D01*
X112782Y160070D02*X113262Y160550D01*
Y161990D01*
X112782Y162470D01*
X111822Y160070D02*X111342Y160550D01*
X113742Y163622D02*Y164102D01*
X112782Y163622D02*Y164102D01*
X111822Y165254D02*X114702Y168134D01*
X111822Y169286D02*X114702Y172166D01*
X113262Y174758D02*X112782Y175238D01*
X113262Y173798D02*Y174758D01*
X112782Y173318D02*X113262Y173798D01*
X111822Y173318D02*X112782D01*
X111822D02*X111342Y173798D01*
Y174758D01*
X111822Y175238D01*
X110382Y173318D02*X109902Y173798D01*
Y174758D01*
X110382Y175238D01*
X113262D01*
X114126Y176390D02*X114222D01*
X111342D02*X112782D01*
X111822Y177830D02*X115182D01*
X111822D02*X111342Y178310D01*
X113742Y177350D02*Y178310D01*
X111342Y179270D02*X115182D01*
X112782D02*X113262Y179750D01*
Y180710D01*
X112782Y181190D01*
X111342D02*X112782D01*
X111822Y182342D02*X113262D01*
X111822D02*X111342Y182822D01*
Y183782D01*
X111822Y184262D01*
X113262D01*
X111342Y185414D02*X115182D01*
X111822D02*X111342Y185894D01*
Y186854D01*
X111822Y187334D01*
X112782D01*
X113262Y186854D02*X112782Y187334D01*
X113262Y185894D02*Y186854D01*
X112782Y185414D02*X113262Y185894D01*
X111342Y188486D02*Y188966D01*
X113262Y190598D02*Y192038D01*
X112782Y190118D02*X113262Y190598D01*
X111822Y190118D02*X112782D01*
X111822D02*X111342Y190598D01*
Y192038D01*
X111822Y193190D02*X112782D01*
X113262Y193670D01*
Y194630D01*
X112782Y195110D01*
X111822D02*X112782D01*
X111342Y194630D02*X111822Y195110D01*
X111342Y193670D02*Y194630D01*
X111822Y193190D02*X111342Y193670D01*
Y196742D02*X112782D01*
X113262Y197222D01*
Y197702D01*
X112782Y198182D01*
X111342D02*X112782D01*
X113262Y198662D01*
Y199142D01*
X112782Y199622D01*
X111342D02*X112782D01*
X113262Y196262D02*X112782Y196742D01*
X111822Y200774D02*X114702Y203654D01*
X111342Y205286D02*Y206726D01*
X111822Y204806D02*X111342Y205286D01*
X111822Y204806D02*X112782D01*
X113262Y205286D01*
Y206246D01*
X112782Y206726D01*
X112302Y204806D02*Y206726D01*
X112782D01*
X111342Y208358D02*Y209798D01*
X111822Y207878D02*X111342Y208358D01*
X111822Y207878D02*X112782D01*
X113262Y208358D01*
Y209318D01*
X112782Y209798D01*
X112302Y207878D02*Y209798D01*
X112782D01*
X113262Y210950D02*Y212870D01*
X111822Y214022D02*X115182D01*
X111822D02*X111342Y214502D01*
X113262Y215942D02*Y217382D01*
X112782Y215462D02*X113262Y215942D01*
X111822Y215462D02*X112782D01*
X111822D02*X111342Y215942D01*
Y217382D01*
X111822Y218534D02*X112782D01*
X113262Y219014D01*
Y219974D01*
X112782Y220454D01*
X111822D02*X112782D01*
X111342Y219974D02*X111822Y220454D01*
X111342Y219014D02*Y219974D01*
X111822Y218534D02*X111342Y219014D01*
X111822Y221606D02*X114702Y224486D01*
X113262Y226118D02*Y227558D01*
X112782Y225638D02*X113262Y226118D01*
X111822Y225638D02*X112782D01*
X111822D02*X111342Y226118D01*
Y227558D01*
Y229190D02*Y230630D01*
X111822Y228710D02*X111342Y229190D01*
X111822Y228710D02*X112782D01*
X113262Y229190D01*
Y230150D01*
X112782Y230630D01*
X112302Y228710D02*Y230630D01*
X112782D01*
X111822Y231782D02*X114702Y234662D01*
X105388Y151046D02*X104908Y151526D01*
X105388Y150086D02*Y151046D01*
X104908Y149606D02*X105388Y150086D01*
X103948Y149606D02*X104908D01*
X103948D02*X103468Y150086D01*
Y151046D01*
X103948Y151526D01*
X102508Y149606D02*X102028Y150086D01*
Y151046D01*
X102508Y151526D01*
X105388D01*
X106252Y152678D02*X106348D01*
X103468D02*X104908D01*
X103948Y154118D02*X107308D01*
X103948D02*X103468Y154598D01*
X105868Y153638D02*Y154598D01*
Y155558D02*Y156038D01*
X104908Y155558D02*Y156038D01*
X103468Y159398D02*Y160838D01*
X103948Y158918D02*X103468Y159398D01*
X103948Y158918D02*X104908D01*
X105388Y159398D01*
Y160358D01*
X104908Y160838D01*
X104428Y158918D02*Y160838D01*
X104908D01*
X106828Y161990D02*X107308Y162470D01*
Y163430D01*
X106828Y163910D01*
X103468Y163430D02*X103948Y163910D01*
X103468Y162470D02*Y163430D01*
X103948Y161990D02*X103468Y162470D01*
X105580D02*Y163430D01*
X106060Y163910D02*X106828D01*
X103948D02*X105100D01*
X105580Y163430D01*
X106060Y163910D02*X105580Y163430D01*
X103468Y165542D02*Y166982D01*
X103948Y165062D02*X103468Y165542D01*
X103948Y165062D02*X104908D01*
X105388Y165542D01*
Y166502D01*
X104908Y166982D01*
X104428Y165062D02*Y166982D01*
X104908D01*
X106828Y168134D02*X107308Y168614D01*
Y169574D01*
X106828Y170054D01*
X103468Y169574D02*X103948Y170054D01*
X103468Y168614D02*Y169574D01*
X103948Y168134D02*X103468Y168614D01*
X105580D02*Y169574D01*
X106060Y170054D02*X106828D01*
X103948D02*X105100D01*
X105580Y169574D01*
X106060Y170054D02*X105580Y169574D01*
X106540Y171206D02*X107308Y171974D01*
X103468D02*X107308D01*
X103468Y171206D02*Y172646D01*
Y173798D02*X107308D01*
X103948D02*X103468Y174278D01*
Y175238D01*
X103948Y175718D01*
X104908D01*
X105388Y175238D02*X104908Y175718D01*
X105388Y174278D02*Y175238D01*
X104908Y173798D02*X105388Y174278D01*
X103468Y177350D02*X106828D01*
X107308Y177830D01*
Y178310D01*
X105388Y176870D02*Y177830D01*
X103948Y179270D02*X103468Y179750D01*
X103948Y179270D02*X104716D01*
X105388Y179942D01*
Y180518D01*
X104716Y181190D01*
X103948D02*X104716D01*
X103468Y180710D02*X103948Y181190D01*
X103468Y179750D02*Y180710D01*
X106060Y179270D02*X105388Y179942D01*
X106060Y179270D02*X106828D01*
X107308Y179750D01*
Y180710D01*
X106828Y181190D01*
X106060D02*X106828D01*
X105388Y180518D02*X106060Y181190D01*
X107308Y182342D02*Y184262D01*
X105388Y182342D02*X107308D01*
X105388D02*X105868Y182822D01*
Y183782D01*
X105388Y184262D01*
X103948D02*X105388D01*
X103468Y183782D02*X103948Y184262D01*
X103468Y182822D02*Y183782D01*
X103948Y182342D02*X103468Y182822D01*
X104908Y185414D02*X107308Y187334D01*
X104908Y185414D02*Y187814D01*
X103468Y187334D02*X107308D01*
X103468Y189446D02*X106828D01*
X107308Y189926D01*
Y190406D01*
X105388Y188966D02*Y189926D01*
X103468Y191366D02*X107308D01*
X103948D02*X103468Y191846D01*
Y192806D01*
X103948Y193286D01*
X104908D01*
X105388Y192806D02*X104908Y193286D01*
X105388Y191846D02*Y192806D01*
X104908Y191366D02*X105388Y191846D01*
X103468Y194918D02*X107308Y196838D01*
Y194438D02*Y196838D01*
X103468Y198470D02*X105388Y199910D01*
X106828D01*
X107308Y199430D02*X106828Y199910D01*
X107308Y198470D02*Y199430D01*
X106828Y197990D02*X107308Y198470D01*
X105868Y197990D02*X106828D01*
X105868D02*X105388Y198470D01*
Y199910D01*
Y202502D02*X104908Y202982D01*
X105388Y201542D02*Y202502D01*
X104908Y201062D02*X105388Y201542D01*
X103948Y201062D02*X104908D01*
X103948D02*X103468Y201542D01*
X103948Y202982D02*X105388D01*
X103948D02*X103468Y203462D01*
Y201542D02*Y202502D01*
X103948Y202982D01*
X106828Y204614D02*X107308Y205094D01*
Y206054D01*
X106828Y206534D01*
X103468Y206054D02*X103948Y206534D01*
X103468Y205094D02*Y206054D01*
X103948Y204614D02*X103468Y205094D01*
X105580D02*Y206054D01*
X106060Y206534D02*X106828D01*
X103948D02*X105100D01*
X105580Y206054D01*
X106060Y206534D02*X105580Y206054D01*
G54D89*X149488Y257598D02*Y254213D01*
X157598Y257598D02*Y254213D01*
X169409Y257598D02*Y254213D01*
X161299Y257598D02*Y254213D01*
X224291Y257598D02*Y254213D01*
X232402Y257598D02*Y254213D01*
X244213Y257598D02*Y254213D01*
X236102Y257598D02*Y254213D01*
X210512Y231496D02*Y229134D01*
X218622Y231496D02*Y229134D01*
X222402Y233661D02*Y228346D01*
X242165D02*Y212598D01*
X222402Y228346D02*Y212598D01*
G54D90*X224764Y235630D03*
G54D89*X236339Y196575D02*Y193189D01*
X228228Y196575D02*Y193189D01*
X212717Y196575D02*Y193189D01*
X204606Y196575D02*Y193189D01*
X158937Y213504D02*X165866D01*
X158937Y203819D02*X165866D01*
X246260Y166929D02*Y148031D01*
X230118Y166929D02*Y148031D01*
X199528Y198425D02*Y191339D01*
X194173Y198425D02*Y191339D01*
Y201260D02*Y198425D01*
X199528Y201260D02*Y198425D01*
G54D90*X196850Y203268D03*
G54D89*X210512Y215256D02*Y212894D01*
X218622Y215256D02*Y212894D01*
X224528Y196063D02*Y193701D01*
X216417Y196063D02*Y193701D01*
X186890Y232008D02*Y228622D01*
X195000Y232008D02*Y228622D01*
X206811Y232008D02*Y228622D01*
X198701Y232008D02*Y228622D01*
X183976Y216161D02*Y209232D01*
X174291Y216161D02*Y209232D01*
X175079Y231496D02*Y229134D01*
X183189Y231496D02*Y229134D01*
X154528Y216339D02*X157953D01*
Y228543D02*X164882D01*
X157953Y216339D02*X164882D01*
G54D90*X152559Y218701D03*
G54D89*X141614Y224134D02*Y220748D01*
X149724Y224134D02*Y220748D01*
G54D87*X251937Y169276D02*X253937D01*
X251937D02*X251437Y168776D01*
Y167776D02*Y168776D01*
X251937Y167276D02*X251437Y167776D01*
X251937Y167276D02*X253437D01*
Y165276D02*Y169276D01*
X252637Y167276D02*X251437Y165276D01*
X250237Y168476D02*X249437Y169276D01*
Y165276D02*Y169276D01*
X248737Y165276D02*X250237D01*
X229299Y248016D02*X231299D01*
X229299D02*X228799Y247516D01*
Y246516D02*Y247516D01*
X229299Y246016D02*X228799Y246516D01*
X229299Y246016D02*X230799D01*
Y244016D02*Y248016D01*
X229999Y246016D02*X228799Y244016D01*
X226099Y248016D02*X225599Y247516D01*
X226099Y248016D02*X227099D01*
X227599Y247516D02*X227099Y248016D01*
X227599Y244516D02*Y247516D01*
Y244516D02*X227099Y244016D01*
X226099Y246216D02*X225599Y245716D01*
X226099Y246216D02*X227599D01*
X226099Y244016D02*X227099D01*
X226099D02*X225599Y244516D01*
Y245716D01*
X241110Y248016D02*X243110D01*
X241110D02*X240610Y247516D01*
Y246516D02*Y247516D01*
X241110Y246016D02*X240610Y246516D01*
X241110Y246016D02*X242610D01*
Y244016D02*Y248016D01*
X241810Y246016D02*X240610Y244016D01*
X239410Y244516D02*X238910Y244016D01*
X239410Y244516D02*Y245316D01*
X238710Y246016D01*
X238110D02*X238710D01*
X238110D02*X237410Y245316D01*
Y244516D02*Y245316D01*
X237910Y244016D02*X237410Y244516D01*
X237910Y244016D02*X238910D01*
X239410Y246716D02*X238710Y246016D01*
X239410Y246716D02*Y247516D01*
X238910Y248016D01*
X237910D02*X238910D01*
X237910D02*X237410Y247516D01*
Y246716D02*Y247516D01*
X238110Y246016D02*X237410Y246716D01*
X235205Y186992D02*X237205D01*
X235205D02*X234705Y186492D01*
Y185492D02*Y186492D01*
X235205Y184992D02*X234705Y185492D01*
X235205Y184992D02*X236705D01*
Y182992D02*Y186992D01*
X235905Y184992D02*X234705Y182992D01*
X233505Y186192D02*X232705Y186992D01*
Y182992D02*Y186992D01*
X232005Y182992D02*X233505D01*
X230805Y186492D02*X230305Y186992D01*
X228805D02*X230305D01*
X228805D02*X228305Y186492D01*
Y185492D02*Y186492D01*
X230805Y182992D02*X228305Y185492D01*
Y182992D02*X230805D01*
X249016Y229752D02*Y233252D01*
Y229752D02*X248516Y229252D01*
X247516D02*X248516D01*
X247516D02*X247016Y229752D01*
Y233252D01*
X245816Y232452D02*X245016Y233252D01*
Y229252D02*Y233252D01*
X244316Y229252D02*X245816D01*
X154496Y248016D02*X156496D01*
X154496D02*X153996Y247516D01*
Y246516D02*Y247516D01*
X154496Y246016D02*X153996Y246516D01*
X154496Y246016D02*X155996D01*
Y244016D02*Y248016D01*
X155196Y246016D02*X153996Y244016D01*
X152796Y247516D02*X152296Y248016D01*
X151296D02*X152296D01*
X151296D02*X150796Y247516D01*
X151296Y244016D02*X150796Y244516D01*
X151296Y244016D02*X152296D01*
X152796Y244516D02*X152296Y244016D01*
X151296Y246216D02*X152296D01*
X150796Y246716D02*Y247516D01*
Y244516D02*Y245716D01*
X151296Y246216D01*
X150796Y246716D02*X151296Y246216D01*
X166307Y248016D02*X168307D01*
X166307D02*X165807Y247516D01*
Y246516D02*Y247516D01*
X166307Y246016D02*X165807Y246516D01*
X166307Y246016D02*X167807D01*
Y244016D02*Y248016D01*
X167007Y246016D02*X165807Y244016D01*
X162607Y248016D02*X164607D01*
Y246016D02*Y248016D01*
Y246016D02*X164107Y246516D01*
X163107D02*X164107D01*
X163107D02*X162607Y246016D01*
Y244516D02*Y246016D01*
X163107Y244016D02*X162607Y244516D01*
X163107Y244016D02*X164107D01*
X164607Y244516D02*X164107Y244016D01*
X161417Y231720D02*Y235220D01*
Y231720D02*X160917Y231220D01*
X159917D02*X160917D01*
X159917D02*X159417Y231720D01*
Y235220D01*
X158217Y234720D02*X157717Y235220D01*
X156217D02*X157717D01*
X156217D02*X155717Y234720D01*
Y233720D02*Y234720D01*
X158217Y231220D02*X155717Y233720D01*
Y231220D02*X158217D01*
X149575Y206614D02*X150875D01*
X151575Y207314D02*X150875Y206614D01*
X151575Y207314D02*Y209914D01*
X150875Y210614D01*
X149575D02*X150875D01*
X148375Y209814D02*X147575Y210614D01*
Y206614D02*Y210614D01*
X146875Y206614D02*X148375D01*
X179102Y238110D02*X180402D01*
X181102Y238810D02*X180402Y238110D01*
X181102Y238810D02*Y241410D01*
X180402Y242110D01*
X179102D02*X180402D01*
X177902Y241610D02*X177402Y242110D01*
X175902D02*X177402D01*
X175902D02*X175402Y241610D01*
Y240610D02*Y241610D01*
X177902Y238110D02*X175402Y240610D01*
Y238110D02*X177902D01*
X147606Y235220D02*X149606D01*
X147606D02*X147106Y234720D01*
Y233720D02*Y234720D01*
X147606Y233220D02*X147106Y233720D01*
X147606Y233220D02*X149106D01*
Y231220D02*Y235220D01*
X148306Y233220D02*X147106Y231220D01*
X145906Y234720D02*X145406Y235220D01*
X143906D02*X145406D01*
X143906D02*X143406Y234720D01*
Y233720D02*Y234720D01*
X145906Y231220D02*X143406Y233720D01*
Y231220D02*X145906D01*
X192882Y242110D02*X194882D01*
X192882D02*X192382Y241610D01*
Y240610D02*Y241610D01*
X192882Y240110D02*X192382Y240610D01*
X192882Y240110D02*X194382D01*
Y238110D02*Y242110D01*
X193582Y240110D02*X192382Y238110D01*
X191182Y241310D02*X190382Y242110D01*
Y238110D02*Y242110D01*
X189682Y238110D02*X191182D01*
X188482Y238610D02*X187982Y238110D01*
X188482Y238610D02*Y241610D01*
X187982Y242110D01*
X186982D02*X187982D01*
X186982D02*X186482Y241610D01*
Y238610D02*Y241610D01*
X186982Y238110D02*X186482Y238610D01*
X186982Y238110D02*X187982D01*
X188482Y239110D02*X186482Y241110D01*
X203709Y242110D02*X205709D01*
X203709D02*X203209Y241610D01*
Y240610D02*Y241610D01*
X203709Y240110D02*X203209Y240610D01*
X203709Y240110D02*X205209D01*
Y238110D02*Y242110D01*
X204409Y240110D02*X203209Y238110D01*
X201509D02*X200009Y240110D01*
Y241610D01*
X200509Y242110D02*X200009Y241610D01*
X200509Y242110D02*X201509D01*
X202009Y241610D02*X201509Y242110D01*
X202009Y240610D02*Y241610D01*
Y240610D02*X201509Y240110D01*
X200009D02*X201509D01*
X215520Y238110D02*X216820D01*
X217520Y238810D02*X216820Y238110D01*
X217520Y238810D02*Y241410D01*
X216820Y242110D01*
X215520D02*X216820D01*
X212320D02*X214320D01*
Y240110D02*Y242110D01*
Y240110D02*X213820Y240610D01*
X212820D02*X213820D01*
X212820D02*X212320Y240110D01*
Y238610D02*Y240110D01*
X212820Y238110D02*X212320Y238610D01*
X212820Y238110D02*X213820D01*
X214320Y238610D02*X213820Y238110D01*
X221425Y182992D02*X222725D01*
X223425Y183692D02*X222725Y182992D01*
X223425Y183692D02*Y186292D01*
X222725Y186992D01*
X221425D02*X222725D01*
X218725D02*X218225Y186492D01*
X218725Y186992D02*X219725D01*
X220225Y186492D02*X219725Y186992D01*
X220225Y183492D02*Y186492D01*
Y183492D02*X219725Y182992D01*
X218725Y185192D02*X218225Y184692D01*
X218725Y185192D02*X220225D01*
X218725Y182992D02*X219725D01*
X218725D02*X218225Y183492D01*
Y184692D01*
X199303Y182992D02*Y186992D01*
X198003D02*X197303Y186292D01*
Y183692D02*Y186292D01*
X198003Y182992D02*X197303Y183692D01*
X198003Y182992D02*X199803D01*
X198003Y186992D02*X199803D01*
X196103Y186192D02*X195303Y186992D01*
Y182992D02*Y186992D01*
X194603Y182992D02*X196103D01*
X189929Y210551D02*X191229D01*
X191929Y211251D02*X191229Y210551D01*
X191929Y211251D02*Y213851D01*
X191229Y214551D01*
X189929D02*X191229D01*
X188729Y214051D02*X188229Y214551D01*
X187229D02*X188229D01*
X187229D02*X186729Y214051D01*
X187229Y210551D02*X186729Y211051D01*
X187229Y210551D02*X188229D01*
X188729Y211051D02*X188229Y210551D01*
X187229Y212751D02*X188229D01*
X186729Y213251D02*Y214051D01*
Y211051D02*Y212251D01*
X187229Y212751D01*
X186729Y213251D02*X187229Y212751D01*
X215520Y202677D02*X216820D01*
X217520Y203377D02*X216820Y202677D01*
X217520Y203377D02*Y205977D01*
X216820Y206677D01*
X215520D02*X216820D01*
X214320Y204177D02*X212320Y206677D01*
X211820Y204177D02*X214320D01*
X212320Y202677D02*Y206677D01*
X210598Y186992D02*X212598D01*
X210598D02*X210098Y186492D01*
Y185492D02*Y186492D01*
X210598Y184992D02*X210098Y185492D01*
X210598Y184992D02*X212098D01*
Y182992D02*Y186992D01*
X211298Y184992D02*X210098Y182992D01*
X208898Y186192D02*X208098Y186992D01*
Y182992D02*Y186992D01*
X207398Y182992D02*X208898D01*
X206198Y186192D02*X205398Y186992D01*
Y182992D02*Y186992D01*
X204698Y182992D02*X206198D01*
M02*
