G04 start of page 9 for group -4079 idx -4079 *
G04 Title: Current - Sink or Swim, topsilk *
G04 Creator: pcb 1.99z *
G04 CreationDate: Tue 14 Apr 2015 12:04:08 AM GMT UTC *
G04 For: eelco *
G04 Format: Gerber/RS-274X *
G04 PCB-Dimensions (mil): 3937.01 3937.01 *
G04 PCB-Coordinate-Origin: lower left *
%MOIN*%
%FSLAX25Y25*%
%LNTOPSILK*%
%ADD86C,0.0150*%
%ADD85C,0.0200*%
%ADD84C,0.0100*%
%ADD83C,0.0079*%
%ADD82C,0.0098*%
G54D82*X186024Y276575D02*X189961D01*
X187992D02*Y271654D01*
X186024Y283465D02*X189961D01*
X186024Y263780D02*X189961D01*
X187992Y265748D02*Y261811D01*
X188189Y230315D02*X190157D01*
X188189Y242126D02*X190157D01*
X188189Y236220D02*X196063D01*
X203346Y242126D02*X205315D01*
X203346Y230315D02*X205315D01*
X197441Y236220D02*X205315D01*
X169685Y222835D02*Y218898D01*
X174409D02*Y222835D01*
X167323Y225984D02*X165748D01*
Y216535D02*X167323D01*
X175197Y203937D02*Y207087D01*
X176772Y216535D02*Y222835D01*
X179134D01*
X176772Y219685D02*X179134D01*
X178346D02*X180709Y216535D01*
X183071D02*Y222835D01*
X185433D01*
X183071Y219685D02*X185433D01*
X190945Y222835D02*X191732D01*
Y219685D02*X189370D01*
X190945Y216535D02*X191732D01*
X189370Y218110D02*Y221260D01*
X184646Y219685D02*X187008Y216535D01*
X195669D02*Y222835D01*
X199606Y216535D01*
Y222835D01*
X203543D02*Y216535D01*
X201969Y222835D02*X205118D01*
X214567Y225984D02*X212992D01*
Y221260D02*X214567D01*
Y216535D02*X212992D01*
X219291Y222835D02*Y216535D01*
X221654D02*Y222835D01*
X225591Y216535D01*
Y222835D01*
X227953D02*Y216535D01*
Y220472D02*X231102Y216535D01*
Y222835D02*X227953Y219685D01*
X181496Y203937D02*Y207087D01*
X183858Y200787D02*Y207087D01*
X186220D01*
X183858Y203937D02*X186220D01*
X185433D02*X187795Y200787D01*
X201969Y207087D02*Y202362D01*
X209055Y207087D02*Y200787D01*
X206693Y202362D02*Y207087D01*
X204331Y201575D02*Y203937D01*
X197244Y210236D02*X195669D01*
Y205512D02*X197244D01*
Y200787D02*X195669D01*
X211417D02*Y207087D01*
X213780Y204724D01*
X216142Y207087D01*
Y200787D01*
X203740Y131890D02*X205709D01*
Y114173D01*
X203740D01*
X189961Y104331D02*X187992D01*
Y122047D01*
X189961D01*
X236220Y125000D02*X240157D01*
X167323D02*X171260D01*
X153543D02*X157480D01*
X155512Y126969D02*Y123031D01*
X222441Y125000D02*X226378D01*
X224409Y126969D02*Y123031D01*
X196063Y236220D02*G75*G03X190157Y242126I-5906J0D01*G01*
Y230315D02*G75*G03X196063Y236220I0J5906D01*G01*
X203346Y230315D02*G75*G02X197441Y236220I0J5906D01*G01*
G75*G02X203346Y242126I5906J0D01*G01*
X185433Y222835D02*G75*G02X187008Y221260I0J-1575D01*G01*
X189370D02*G75*G02X190945Y222835I1575J0D01*G01*
X191732D02*G75*G02X193307Y221260I0J-1575D01*G01*
G75*G02X191732Y219685I-1575J0D01*G01*
X189370Y218110D02*G75*G03X190945Y216535I1575J0D01*G01*
X191732D02*G75*G03X193307Y218110I0J1575D01*G01*
X187008Y221260D02*G75*G02X185433Y219685I-1575J0D01*G01*
X216929Y223622D02*G75*G03X214567Y225984I-2362J0D01*G01*
X212992D02*G75*G03X210630Y223622I0J-2362D01*G01*
G75*G03X212992Y221260I2362J0D01*G01*
X214567D02*G75*G02X216929Y218898I0J-2362D01*G01*
G75*G02X214567Y216535I-2362J0D01*G01*
X212992D02*G75*G02X210630Y218898I0J2362D01*G01*
X169685D02*G75*G03X172047Y216535I2362J0D01*G01*
G75*G03X174409Y218898I0J2362D01*G01*
X165748Y225984D02*G75*G03X161024Y221260I0J-4724D01*G01*
G75*G03X165748Y216535I4724J0D01*G01*
X179134Y222835D02*G75*G02X180709Y221260I0J-1575D01*G01*
G75*G02X179134Y219685I-1575J0D01*G01*
X175197Y207087D02*G75*G02X178346Y210236I3150J0D01*G01*
G75*G02X181496Y207087I0J-3150D01*G01*
X186220D02*G75*G02X187795Y205512I0J-1575D01*G01*
G75*G02X186220Y203937I-1575J0D01*G01*
X178346Y200787D02*G75*G02X175197Y203937I0J3150D01*G01*
X178346Y200787D02*G75*G03X181496Y203937I0J3150D01*G01*
X199606Y207874D02*G75*G03X197244Y210236I-2362J0D01*G01*
X195669D02*G75*G03X193307Y207874I0J-2362D01*G01*
G75*G03X195669Y205512I2362J0D01*G01*
X197244D02*G75*G02X199606Y203150I0J-2362D01*G01*
X201969Y202362D02*G75*G03X203543Y200787I1575J0D01*G01*
G75*G03X204331Y201575I0J787D01*G01*
G75*G03X205118Y200787I787J0D01*G01*
G75*G03X206693Y202362I0J1575D01*G01*
X199606Y203150D02*G75*G02X197244Y200787I-2362J0D01*G01*
X195669D02*G75*G02X193307Y203150I0J2362D01*G01*
G54D83*X151575Y135151D02*X153235Y128511D01*
X154895Y135151D01*
X156887Y133491D02*Y128511D01*
Y133491D02*X158049Y135151D01*
X159875D01*
X161037Y133491D01*
Y128511D01*
X156887Y131831D02*X161037D01*
X163029Y135151D02*Y129341D01*
X163859Y128511D01*
X165519D01*
X166349Y129341D01*
Y135151D02*Y129341D01*
X168341Y128511D02*X172491Y135151D01*
X168341D02*X172491Y128511D01*
X220472Y135151D02*X222132Y128511D01*
X223792Y135151D01*
X225784Y128511D02*X229104D01*
X229934Y129341D01*
Y131333D02*Y129341D01*
X229104Y132163D02*X229934Y131333D01*
X226614Y132163D02*X229104D01*
X226614Y135151D02*Y128511D01*
X225784Y135151D02*X229104D01*
X229934Y134321D01*
Y132993D01*
X229104Y132163D02*X229934Y132993D01*
X231926Y133491D02*Y128511D01*
Y133491D02*X233088Y135151D01*
X234914D01*
X236076Y133491D01*
Y128511D01*
X231926Y131831D02*X236076D01*
X238068Y135151D02*X241388D01*
X239728D02*Y128511D01*
X147638Y250309D02*X150958D01*
X149298D02*Y243669D01*
X152950Y247321D02*X155440D01*
X152950Y243669D02*X156270D01*
X152950Y250309D02*Y243669D01*
Y250309D02*X156270D01*
X158262D02*Y243669D01*
Y250309D02*X160752Y246989D01*
X163242Y250309D01*
Y243669D01*
X166064Y250309D02*Y243669D01*
X165234Y250309D02*X168554D01*
X169384Y249479D01*
Y247819D01*
X168554Y246989D02*X169384Y247819D01*
X166064Y246989D02*X168554D01*
X223425Y248649D02*Y243669D01*
Y248649D02*X224587Y250309D01*
X226413D01*
X227575Y248649D01*
Y243669D01*
X223425Y246989D02*X227575D01*
X229567Y250309D02*Y243669D01*
Y250309D02*X232057Y246989D01*
X234547Y250309D01*
Y243669D01*
X237369Y250309D02*Y243669D01*
X236539Y250309D02*X239859D01*
X240689Y249479D01*
Y247819D01*
X239859Y246989D02*X240689Y247819D01*
X237369Y246989D02*X239859D01*
X246001Y250309D02*X246831Y249479D01*
X243511Y250309D02*X246001D01*
X242681Y249479D02*X243511Y250309D01*
X242681Y249479D02*Y247819D01*
X243511Y246989D01*
X246001D01*
X246831Y246159D01*
Y244499D01*
X246001Y243669D02*X246831Y244499D01*
X243511Y243669D02*X246001D01*
X242681Y244499D02*X243511Y243669D01*
X181318Y105315D02*X186118Y106515D01*
X181318Y107715D01*
X182518Y109155D02*X186118D01*
X182518D02*X181318Y109995D01*
Y111315D02*Y109995D01*
Y111315D02*X182518Y112155D01*
X186118D01*
X183718D02*Y109155D01*
X181318Y113595D02*X185518D01*
X186118Y114195D01*
Y115395D02*Y114195D01*
Y115395D02*X185518Y115995D01*
X181318D02*X185518D01*
X186118Y117435D02*X181318Y120435D01*
Y117435D02*X186118Y120435D01*
X207893Y116142D02*X212693Y117342D01*
X207893Y118542D01*
X212693Y122382D02*Y119982D01*
Y122382D02*X212093Y122982D01*
X210653D02*X212093D01*
X210053Y122382D02*X210653Y122982D01*
X210053Y122382D02*Y120582D01*
X207893D02*X212693D01*
X207893Y122382D02*Y119982D01*
Y122382D02*X208493Y122982D01*
X209453D01*
X210053Y122382D02*X209453Y122982D01*
X209093Y124422D02*X212693D01*
X209093D02*X207893Y125262D01*
Y126582D02*Y125262D01*
Y126582D02*X209093Y127422D01*
X212693D01*
X210293D02*Y124422D01*
X207893Y131262D02*Y128862D01*
Y130062D02*X212693D01*
G54D84*X214961Y261024D02*X253543D01*
Y293307D02*Y279528D01*
X214961Y293307D02*Y279528D01*
X253543Y293307D02*X249606Y297244D01*
X214961Y293307D02*X218898Y297244D01*
X249606D01*
X246063Y316929D02*Y297244D01*
X222441Y316929D02*Y297244D01*
Y316929D02*X246063D01*
X243110Y364173D02*Y316929D01*
X227362Y364173D02*Y316929D01*
Y364173D02*X243110D01*
X140157Y261024D02*X178740D01*
Y293307D02*Y279528D01*
X140157Y293307D02*Y279528D01*
X178740Y293307D02*X174803Y297244D01*
X140157Y293307D02*X144094Y297244D01*
X174803D01*
X171260Y316929D02*Y297244D01*
X147638Y316929D02*Y297244D01*
Y316929D02*X171260D01*
X168307Y364173D02*Y316929D01*
X152559Y364173D02*Y316929D01*
Y364173D02*X168307D01*
X260433Y275591D02*G75*G03X260433Y275591I15157J0D01*G01*
X191850Y258622D02*X201850D01*
X191850Y268622D02*X201850D01*
Y288622D02*Y258622D01*
X191850Y288622D02*Y258622D01*
Y288622D02*X201850D01*
X102953Y275591D02*G75*G03X102953Y275591I15157J0D01*G01*
Y118110D02*G75*G03X102953Y118110I15157J0D01*G01*
X148622Y121063D02*X176181D01*
X148622Y103150D02*X176181D01*
X148622Y85236D02*X176181D01*
X148622D02*X176181D01*
X148622Y121063D02*Y85236D01*
X162402Y121063D02*Y103150D01*
X176181Y121063D02*Y85236D01*
X152264Y116240D02*X158760D01*
X152264Y107972D02*X158760D01*
X152264Y116240D02*Y107972D01*
X158760Y116240D02*Y107972D01*
X166043Y116240D02*X172539D01*
X166043Y107972D02*X172539D01*
X166043Y116240D02*Y107972D01*
X172539Y116240D02*Y107972D01*
X217520Y121063D02*X245079D01*
X217520Y103150D02*X245079D01*
X217520Y85236D02*X245079D01*
X217520D02*X245079D01*
X217520Y121063D02*Y85236D01*
X231299Y121063D02*Y103150D01*
X245079Y121063D02*Y85236D01*
X221161Y116240D02*X227657D01*
X221161Y107972D02*X227657D01*
X221161Y116240D02*Y107972D01*
X227657Y116240D02*Y107972D01*
X234941Y116240D02*X241437D01*
X234941Y107972D02*X241437D01*
X234941Y116240D02*Y107972D01*
X241437Y116240D02*Y107972D01*
X260433Y118110D02*G75*G03X260433Y118110I15157J0D01*G01*
X191850Y103110D02*X201850D01*
X191850Y113110D02*X201850D01*
Y133110D02*Y103110D01*
X191850Y133110D02*Y103110D01*
Y133110D02*X201850D01*
G54D85*X114173Y236220D02*X122047D01*
X129921D02*X137795D01*
X145669D02*Y228346D01*
Y220472D02*Y212598D01*
Y204724D02*Y196850D01*
X161417Y190945D02*X169291D01*
X177165D02*X185039D01*
X192913D02*X200787D01*
X208661D02*X216535D01*
X224409D02*X232283D01*
X248031Y204724D02*Y196850D01*
Y220472D02*Y212598D01*
Y236220D02*Y228346D01*
X255906Y236220D02*X263780D01*
X271654D02*X279528D01*
X114173Y137795D02*X122047D01*
X129921D02*X137795D01*
X145669D02*X153543D01*
X161417D02*X169291D01*
X173228D02*Y145669D01*
Y153543D02*Y161417D01*
Y169291D02*Y177165D01*
X177165Y183071D02*X185039D01*
X192913D02*X200787D01*
X208661D02*X216535D01*
X220472Y169291D02*Y177165D01*
Y153543D02*Y161417D01*
Y137795D02*Y145669D01*
X224409Y137795D02*X232283D01*
X240157D02*X248031D01*
X255906D02*X263780D01*
X271654D02*X279528D01*
X114173Y230315D02*Y222441D01*
Y214567D02*Y206693D01*
Y198819D02*Y190945D01*
Y183071D02*Y175197D01*
Y167323D02*Y159449D01*
Y151575D02*Y143701D01*
X279528Y230315D02*Y222441D01*
Y214567D02*Y206693D01*
Y198819D02*Y190945D01*
Y183071D02*Y175197D01*
Y167323D02*Y159449D01*
Y151575D02*Y143701D01*
G54D86*X176850Y181791D02*X216850D01*
X176850Y176791D02*X216850D01*
X176850Y181791D02*Y161791D01*
X216850Y181791D02*Y161791D01*
X176850D02*X216850D01*
G54D83*X253937Y257858D02*X255937D01*
X256437Y257358D01*
Y256358D01*
X255937Y255858D02*X256437Y256358D01*
X254437Y255858D02*X255937D01*
X254437Y257858D02*Y253858D01*
X255237Y255858D02*X256437Y253858D01*
X258137D02*X260137Y257858D01*
X257637D02*X260137D01*
X248731Y119079D02*X249531D01*
Y115579D01*
X249031Y115079D02*X249531Y115579D01*
X248531Y115079D02*X249031D01*
X248031Y115579D02*X248531Y115079D01*
X248031Y116079D02*Y115579D01*
X250732Y118279D02*X251532Y119079D01*
Y115079D01*
X250732D02*X252232D01*
X134843Y257858D02*X136843D01*
X137343Y257358D01*
Y256358D01*
X136843Y255858D02*X137343Y256358D01*
X135343Y255858D02*X136843D01*
X135343Y257858D02*Y253858D01*
X136143Y255858D02*X137343Y253858D01*
X138543Y255358D02*X140543Y257858D01*
X138543Y255358D02*X141043D01*
X140543Y257858D02*Y253858D01*
X194598Y139748D02*X195398D01*
Y136248D01*
X194898Y135748D02*X195398Y136248D01*
X194398Y135748D02*X194898D01*
X193898Y136248D02*X194398Y135748D01*
X193898Y136748D02*Y136248D01*
X196598Y139248D02*X197098Y139748D01*
X198098D01*
X198598Y139248D01*
X198098Y135748D02*X198598Y136248D01*
X197098Y135748D02*X198098D01*
X196598Y136248D02*X197098Y135748D01*
Y137948D02*X198098D01*
X198598Y139248D02*Y138448D01*
Y137448D02*Y136248D01*
Y137448D02*X198098Y137948D01*
X198598Y138448D02*X198098Y137948D01*
X140464Y119079D02*X141264D01*
Y115579D01*
X140764Y115079D02*X141264Y115579D01*
X140264Y115079D02*X140764D01*
X139764Y115579D02*X140264Y115079D01*
X139764Y116079D02*Y115579D01*
X142464Y118579D02*X142964Y119079D01*
X144464D01*
X144964Y118579D01*
Y117579D01*
X142464Y115079D02*X144964Y117579D01*
X142464Y115079D02*X144964D01*
X177850Y157791D02*Y154791D01*
Y157791D02*X178350Y158291D01*
X179350D01*
X179850Y157791D01*
Y155291D01*
X178850Y154291D02*X179850Y155291D01*
X178350Y154291D02*X178850D01*
X177850Y154791D02*X178350Y154291D01*
X178850Y155791D02*X179850Y154291D01*
X181050Y157491D02*X181850Y158291D01*
Y154291D01*
X181050D02*X182550D01*
X194598Y255890D02*X195398D01*
Y252390D01*
X194898Y251890D02*X195398Y252390D01*
X194398Y251890D02*X194898D01*
X193898Y252390D02*X194398Y251890D01*
X193898Y252890D02*Y252390D01*
X196598Y253390D02*X198598Y255890D01*
X196598Y253390D02*X199098D01*
X198598Y255890D02*Y251890D01*
M02*
