M48
INCH
T58C0.020
T57C0.016
T56C0.106
T55C0.043
T54C0.047
T53C0.039
T52C0.100
%
T57
X017323Y025217
X018504Y025000
X018504Y024213
X019094Y025394
X019094Y024213
X020276Y021457
X020276Y020669
X023478Y023963
X024213Y021850
X024606Y023963
X024803Y025197
X025000Y021850
X027953Y021850
X027953Y019882
T58
X016732Y023228
X016831Y020079
X017913Y020079
X023228Y022047
T53
X019685Y028362
X019685Y027362
X019685Y026362
X019685Y012811
X019685Y011811
X019685Y010811
X028750Y024370
X028750Y023370
X028750Y022370
X028750Y021370
X028750Y020370
X028750Y019370
X028750Y018370
T55
X015551Y011811
X016929Y011811
X022441Y011811
X023819Y011811
T54
X014961Y028346
X015945Y028346
X016929Y028346
X018685Y016929
X019685Y016929
X020685Y016929
X022441Y028346
X023425Y028346
X024409Y028346
T52
X014685Y018701
X024685Y018701
T56
X014213Y027047
X017677Y027047
X021693Y027047
X025157Y027047
M30
