G04 start of page 3 for group 3 idx 2 *
G04 Title: Das Blinkinput, bottom-power *
G04 Creator: pcb 1.99z *
G04 CreationDate: Thu 04 Jun 2015 03:29:16 PM GMT UTC *
G04 For: eelco *
G04 Format: Gerber/RS-274X *
G04 PCB-Dimensions (mil): 3937.01 3937.01 *
G04 PCB-Coordinate-Origin: lower left *
%MOIN*%
%FSLAX25Y25*%
%LNBOTTOM*%
%ADD31C,0.0197*%
%ADD30C,0.0315*%
%ADD29C,0.0394*%
%ADD28R,0.0354X0.0354*%
%ADD27C,0.0669*%
%ADD26C,0.0157*%
%ADD25C,0.0098*%
%ADD24C,0.0001*%
G54D24*G36*
X293307Y215551D02*X287394D01*
Y215769D01*
X287402Y215769D01*
X288162Y215828D01*
X288904Y216006D01*
X289609Y216298D01*
X290259Y216697D01*
X290839Y217192D01*
X291335Y217772D01*
X291733Y218423D01*
X292025Y219128D01*
X292203Y219869D01*
X292248Y220630D01*
X292203Y221390D01*
X292025Y222132D01*
X291733Y222837D01*
X291335Y223487D01*
X290839Y224067D01*
X290259Y224563D01*
X289609Y224961D01*
X288904Y225253D01*
X288162Y225431D01*
X287402Y225491D01*
X287394Y225491D01*
Y225769D01*
X287402Y225769D01*
X288162Y225828D01*
X288904Y226006D01*
X289609Y226298D01*
X290259Y226697D01*
X290839Y227192D01*
X291335Y227772D01*
X291733Y228423D01*
X292025Y229128D01*
X292203Y229869D01*
X292248Y230630D01*
X292203Y231390D01*
X292025Y232132D01*
X291733Y232837D01*
X291335Y233487D01*
X290839Y234067D01*
X290259Y234563D01*
X289609Y234961D01*
X288904Y235253D01*
X288162Y235431D01*
X287402Y235491D01*
X287394Y235491D01*
Y235769D01*
X287402Y235769D01*
X288162Y235828D01*
X288904Y236006D01*
X289609Y236298D01*
X290259Y236697D01*
X290839Y237192D01*
X290850Y237205D01*
X293307D01*
Y215551D01*
G37*
G36*
X287394D02*X281496D01*
Y237205D01*
X283954D01*
X283964Y237192D01*
X284544Y236697D01*
X285195Y236298D01*
X285899Y236006D01*
X286641Y235828D01*
X287394Y235769D01*
Y235491D01*
X286641Y235431D01*
X285899Y235253D01*
X285195Y234961D01*
X284544Y234563D01*
X283964Y234067D01*
X283469Y233487D01*
X283070Y232837D01*
X282778Y232132D01*
X282600Y231390D01*
X282540Y230630D01*
X282600Y229869D01*
X282778Y229128D01*
X283070Y228423D01*
X283469Y227772D01*
X283964Y227192D01*
X284544Y226697D01*
X285195Y226298D01*
X285899Y226006D01*
X286641Y225828D01*
X287394Y225769D01*
Y225491D01*
X286641Y225431D01*
X285899Y225253D01*
X285195Y224961D01*
X284544Y224563D01*
X283964Y224067D01*
X283469Y223487D01*
X283070Y222837D01*
X282778Y222132D01*
X282600Y221390D01*
X282540Y220630D01*
X282600Y219869D01*
X282778Y219128D01*
X283070Y218423D01*
X283469Y217772D01*
X283964Y217192D01*
X284544Y216697D01*
X285195Y216298D01*
X285899Y216006D01*
X286641Y215828D01*
X287394Y215769D01*
Y215551D01*
G37*
G36*
X282598Y239890D02*X282600Y239869D01*
X282778Y239128D01*
X283070Y238423D01*
X283469Y237772D01*
X283964Y237192D01*
X284544Y236697D01*
X285195Y236298D01*
X285383Y236220D01*
X282598D01*
Y239890D01*
G37*
G36*
Y293307D02*X293307D01*
Y236220D01*
X289421D01*
X289609Y236298D01*
X290259Y236697D01*
X290839Y237192D01*
X291335Y237772D01*
X291733Y238423D01*
X292025Y239128D01*
X292203Y239869D01*
X292248Y240630D01*
X292203Y241390D01*
X292025Y242132D01*
X291733Y242837D01*
X291335Y243487D01*
X290839Y244067D01*
X290259Y244563D01*
X289609Y244961D01*
X288904Y245253D01*
X288162Y245431D01*
X287402Y245491D01*
X286641Y245431D01*
X285899Y245253D01*
X285195Y244961D01*
X284544Y244563D01*
X283964Y244067D01*
X283469Y243487D01*
X283070Y242837D01*
X282778Y242132D01*
X282600Y241390D01*
X282598Y241370D01*
Y246926D01*
X282624Y246819D01*
X282714Y246600D01*
X282838Y246399D01*
X282991Y246220D01*
X283171Y246066D01*
X283372Y245943D01*
X283590Y245852D01*
X283820Y245797D01*
X284055Y245783D01*
X290983Y245797D01*
X291213Y245852D01*
X291431Y245943D01*
X291632Y246066D01*
X291812Y246220D01*
X291965Y246399D01*
X292089Y246600D01*
X292179Y246819D01*
X292234Y247048D01*
X292248Y247283D01*
X292234Y254212D01*
X292179Y254441D01*
X292089Y254659D01*
X291965Y254861D01*
X291812Y255040D01*
X291632Y255194D01*
X291431Y255317D01*
X291213Y255407D01*
X290983Y255462D01*
X290748Y255476D01*
X283820Y255462D01*
X283590Y255407D01*
X283372Y255317D01*
X283171Y255194D01*
X282991Y255040D01*
X282838Y254861D01*
X282714Y254659D01*
X282624Y254441D01*
X282598Y254334D01*
Y273232D01*
X286265Y273236D01*
X286386Y273265D01*
X286500Y273312D01*
X286606Y273377D01*
X286700Y273457D01*
X286781Y273551D01*
X286845Y273657D01*
X286893Y273772D01*
X286922Y273892D01*
X286929Y274016D01*
X286922Y281226D01*
X286893Y281346D01*
X286845Y281461D01*
X286781Y281567D01*
X286700Y281661D01*
X286606Y281741D01*
X286500Y281806D01*
X286386Y281854D01*
X286265Y281882D01*
X286142Y281890D01*
X282598Y281886D01*
Y293307D01*
G37*
G36*
X271457D02*X282598D01*
Y281886D01*
X278932Y281882D01*
X278811Y281854D01*
X278697Y281806D01*
X278591Y281741D01*
X278497Y281661D01*
X278416Y281567D01*
X278351Y281461D01*
X278304Y281346D01*
X278275Y281226D01*
X278268Y281102D01*
X278275Y273892D01*
X278304Y273772D01*
X278351Y273657D01*
X278416Y273551D01*
X278497Y273457D01*
X278591Y273377D01*
X278697Y273312D01*
X278811Y273265D01*
X278932Y273236D01*
X279055Y273228D01*
X282598Y273232D01*
Y254334D01*
X282569Y254212D01*
X282555Y253976D01*
X282569Y247048D01*
X282598Y246926D01*
Y241370D01*
X282540Y240630D01*
X282598Y239890D01*
Y236220D01*
X277378D01*
Y242235D01*
X277417Y242268D01*
X277680Y242576D01*
X277892Y242922D01*
X278047Y243296D01*
X278141Y243690D01*
X278165Y244094D01*
X278141Y244499D01*
X278047Y244893D01*
X277892Y245267D01*
X277680Y245613D01*
X277417Y245921D01*
X277109Y246184D01*
X276763Y246396D01*
X276389Y246551D01*
X275995Y246645D01*
X275591Y246677D01*
X275187Y246645D01*
X274792Y246551D01*
X274418Y246396D01*
X274072Y246184D01*
X273764Y245921D01*
X273501Y245613D01*
X273289Y245267D01*
X273134Y244893D01*
X273040Y244499D01*
X273008Y244094D01*
X273040Y243690D01*
X273134Y243296D01*
X273289Y242922D01*
X273501Y242576D01*
X273764Y242268D01*
X273803Y242235D01*
Y236220D01*
X271457D01*
Y270669D01*
X274606D01*
Y284449D01*
X271457D01*
Y285830D01*
X273352Y285834D01*
X273472Y285863D01*
X273587Y285910D01*
X273693Y285975D01*
X273787Y286056D01*
X273867Y286150D01*
X273932Y286256D01*
X273980Y286370D01*
X274008Y286491D01*
X274016Y286614D01*
X274008Y292250D01*
X273980Y292370D01*
X273932Y292485D01*
X273867Y292590D01*
X273787Y292684D01*
X273693Y292765D01*
X273587Y292830D01*
X273472Y292877D01*
X273352Y292906D01*
X273228Y292913D01*
X271457Y292910D01*
Y293307D01*
G37*
G36*
X263972Y270669D02*X271457D01*
Y236220D01*
X263972D01*
Y270669D01*
G37*
G36*
Y293307D02*X271457D01*
Y292910D01*
X269561Y292906D01*
X269441Y292877D01*
X269326Y292830D01*
X269221Y292765D01*
X269127Y292684D01*
X269046Y292590D01*
X268981Y292485D01*
X268934Y292370D01*
X268905Y292250D01*
X268898Y292126D01*
X268905Y286491D01*
X268934Y286370D01*
X268981Y286256D01*
X269046Y286150D01*
X269127Y286056D01*
X269221Y285975D01*
X269326Y285910D01*
X269441Y285863D01*
X269561Y285834D01*
X269685Y285827D01*
X271457Y285830D01*
Y284449D01*
X263972D01*
Y285830D01*
X265872Y285834D01*
X265992Y285863D01*
X266107Y285910D01*
X266212Y285975D01*
X266307Y286056D01*
X266387Y286150D01*
X266452Y286256D01*
X266499Y286370D01*
X266528Y286491D01*
X266535Y286614D01*
X266532Y289050D01*
X266551Y289370D01*
X266531Y289705D01*
X266528Y292250D01*
X266499Y292370D01*
X266452Y292485D01*
X266387Y292590D01*
X266307Y292684D01*
X266212Y292765D01*
X266107Y292830D01*
X265992Y292877D01*
X265872Y292906D01*
X265748Y292913D01*
X263972Y292910D01*
Y293307D01*
G37*
G36*
X254252D02*X263972D01*
Y292910D01*
X262081Y292906D01*
X261961Y292877D01*
X261846Y292830D01*
X261740Y292765D01*
X261646Y292684D01*
X261566Y292590D01*
X261501Y292485D01*
X261454Y292370D01*
X261425Y292250D01*
X261417Y292126D01*
X261420Y289711D01*
X261394Y289370D01*
X261421Y289018D01*
X261425Y286491D01*
X261454Y286370D01*
X261501Y286256D01*
X261566Y286150D01*
X261646Y286056D01*
X261740Y285975D01*
X261846Y285910D01*
X261961Y285863D01*
X262081Y285834D01*
X262205Y285827D01*
X263972Y285830D01*
Y284449D01*
X260827D01*
Y270669D01*
X263972D01*
Y236220D01*
X254252D01*
Y241226D01*
X254698Y241261D01*
X255439Y241440D01*
X256144Y241731D01*
X256794Y242130D01*
X257375Y242625D01*
X257870Y243206D01*
X258269Y243856D01*
X258560Y244561D01*
X258739Y245302D01*
X258783Y246063D01*
X258739Y246823D01*
X258560Y247565D01*
X258269Y248270D01*
X257870Y248920D01*
X257375Y249501D01*
X256794Y249996D01*
X256144Y250395D01*
X255439Y250686D01*
X254698Y250865D01*
X254252Y250900D01*
Y273232D01*
X257919Y273236D01*
X258039Y273265D01*
X258154Y273312D01*
X258260Y273377D01*
X258354Y273457D01*
X258434Y273551D01*
X258499Y273657D01*
X258546Y273772D01*
X258575Y273892D01*
X258583Y274016D01*
X258575Y281226D01*
X258546Y281346D01*
X258499Y281461D01*
X258434Y281567D01*
X258354Y281661D01*
X258260Y281741D01*
X258154Y281806D01*
X258039Y281854D01*
X257919Y281882D01*
X257795Y281890D01*
X254252Y281886D01*
Y293307D01*
G37*
G36*
X235354D02*X254252D01*
Y281886D01*
X250585Y281882D01*
X250465Y281854D01*
X250350Y281806D01*
X250244Y281741D01*
X250150Y281661D01*
X250070Y281567D01*
X250005Y281461D01*
X249957Y281346D01*
X249929Y281226D01*
X249921Y281102D01*
X249929Y273892D01*
X249957Y273772D01*
X250005Y273657D01*
X250070Y273551D01*
X250150Y273457D01*
X250244Y273377D01*
X250350Y273312D01*
X250465Y273265D01*
X250585Y273236D01*
X250709Y273228D01*
X254252Y273232D01*
Y250900D01*
X253937Y250924D01*
X253177Y250865D01*
X252435Y250686D01*
X251730Y250395D01*
X251080Y249996D01*
X250499Y249501D01*
X250004Y248920D01*
X249605Y248270D01*
X249314Y247565D01*
X249135Y246823D01*
X249076Y246063D01*
X249135Y245302D01*
X249314Y244561D01*
X249605Y243856D01*
X250004Y243206D01*
X250499Y242625D01*
X251080Y242130D01*
X251730Y241731D01*
X252435Y241440D01*
X253177Y241261D01*
X253937Y241202D01*
X254252Y241226D01*
Y236220D01*
X241945D01*
Y241717D01*
X242263Y241989D01*
X242566Y242344D01*
X242811Y242743D01*
X242989Y243174D01*
X243098Y243629D01*
X243126Y244094D01*
X243098Y244560D01*
X242989Y245015D01*
X242811Y245446D01*
X242566Y245845D01*
X242263Y246200D01*
X241908Y246503D01*
X241509Y246748D01*
X241078Y246926D01*
X240623Y247035D01*
X240157Y247072D01*
X239692Y247035D01*
X239237Y246926D01*
X238806Y246748D01*
X238407Y246503D01*
X238052Y246200D01*
X237749Y245845D01*
X237504Y245446D01*
X237326Y245015D01*
X237216Y244560D01*
X237180Y244094D01*
X237216Y243629D01*
X237326Y243174D01*
X237504Y242743D01*
X237749Y242344D01*
X238052Y241989D01*
X238370Y241717D01*
Y236220D01*
X235354D01*
Y273232D01*
X239021Y273236D01*
X239142Y273265D01*
X239256Y273312D01*
X239362Y273377D01*
X239456Y273457D01*
X239537Y273551D01*
X239601Y273657D01*
X239649Y273772D01*
X239678Y273892D01*
X239685Y274016D01*
X239678Y281226D01*
X239649Y281346D01*
X239601Y281461D01*
X239537Y281567D01*
X239456Y281661D01*
X239362Y281741D01*
X239256Y281806D01*
X239142Y281854D01*
X239021Y281882D01*
X238898Y281890D01*
X235354Y281886D01*
Y293307D01*
G37*
G36*
X224213D02*X235354D01*
Y281886D01*
X231687Y281882D01*
X231567Y281854D01*
X231452Y281806D01*
X231347Y281741D01*
X231253Y281661D01*
X231172Y281567D01*
X231107Y281461D01*
X231060Y281346D01*
X231031Y281226D01*
X231024Y281102D01*
X231031Y273892D01*
X231060Y273772D01*
X231107Y273657D01*
X231172Y273551D01*
X231253Y273457D01*
X231347Y273377D01*
X231452Y273312D01*
X231567Y273265D01*
X231687Y273236D01*
X231811Y273228D01*
X235354Y273232D01*
Y236220D01*
X232102D01*
Y242235D01*
X232141Y242268D01*
X232404Y242576D01*
X232616Y242922D01*
X232771Y243296D01*
X232866Y243690D01*
X232890Y244094D01*
X232866Y244499D01*
X232771Y244893D01*
X232616Y245267D01*
X232404Y245613D01*
X232141Y245921D01*
X231833Y246184D01*
X231488Y246396D01*
X231113Y246551D01*
X230719Y246645D01*
X230315Y246677D01*
X229911Y246645D01*
X229517Y246551D01*
X229142Y246396D01*
X228797Y246184D01*
X228489Y245921D01*
X228225Y245613D01*
X228014Y245267D01*
X227859Y244893D01*
X227764Y244499D01*
X227732Y244094D01*
X227764Y243690D01*
X227859Y243296D01*
X228014Y242922D01*
X228225Y242576D01*
X228489Y242268D01*
X228528Y242235D01*
Y236220D01*
X224213D01*
Y270669D01*
X227362D01*
Y284449D01*
X224213D01*
Y285830D01*
X226108Y285834D01*
X226228Y285863D01*
X226343Y285910D01*
X226449Y285975D01*
X226543Y286056D01*
X226623Y286150D01*
X226688Y286256D01*
X226735Y286370D01*
X226764Y286491D01*
X226772Y286614D01*
X226764Y292250D01*
X226735Y292370D01*
X226688Y292485D01*
X226623Y292590D01*
X226543Y292684D01*
X226449Y292765D01*
X226343Y292830D01*
X226228Y292877D01*
X226108Y292906D01*
X225984Y292913D01*
X224213Y292910D01*
Y293307D01*
G37*
G36*
X216728Y270669D02*X224213D01*
Y236220D01*
X222260D01*
Y242235D01*
X222299Y242268D01*
X222562Y242576D01*
X222774Y242922D01*
X222929Y243296D01*
X223023Y243690D01*
X223047Y244094D01*
X223023Y244499D01*
X222929Y244893D01*
X222774Y245267D01*
X222562Y245613D01*
X222299Y245921D01*
X221991Y246184D01*
X221645Y246396D01*
X221271Y246551D01*
X220876Y246645D01*
X220472Y246677D01*
X220068Y246645D01*
X219674Y246551D01*
X219300Y246396D01*
X218954Y246184D01*
X218646Y245921D01*
X218383Y245613D01*
X218171Y245267D01*
X218016Y244893D01*
X217921Y244499D01*
X217890Y244094D01*
X217921Y243690D01*
X218016Y243296D01*
X218171Y242922D01*
X218383Y242576D01*
X218646Y242268D01*
X218685Y242235D01*
Y236220D01*
X216728D01*
Y270669D01*
G37*
G36*
Y293307D02*X224213D01*
Y292910D01*
X222317Y292906D01*
X222197Y292877D01*
X222082Y292830D01*
X221977Y292765D01*
X221882Y292684D01*
X221802Y292590D01*
X221737Y292485D01*
X221690Y292370D01*
X221661Y292250D01*
X221654Y292126D01*
X221661Y286491D01*
X221690Y286370D01*
X221737Y286256D01*
X221802Y286150D01*
X221882Y286056D01*
X221977Y285975D01*
X222082Y285910D01*
X222197Y285863D01*
X222317Y285834D01*
X222441Y285827D01*
X224213Y285830D01*
Y284449D01*
X216728D01*
Y285830D01*
X218627Y285834D01*
X218748Y285863D01*
X218863Y285910D01*
X218968Y285975D01*
X219062Y286056D01*
X219143Y286150D01*
X219208Y286256D01*
X219255Y286370D01*
X219284Y286491D01*
X219291Y286614D01*
X219288Y289050D01*
X219307Y289370D01*
X219287Y289705D01*
X219284Y292250D01*
X219255Y292370D01*
X219208Y292485D01*
X219143Y292590D01*
X219062Y292684D01*
X218968Y292765D01*
X218863Y292830D01*
X218748Y292877D01*
X218627Y292906D01*
X218504Y292913D01*
X216728Y292910D01*
Y293307D01*
G37*
G36*
X207008D02*X216728D01*
Y292910D01*
X214837Y292906D01*
X214717Y292877D01*
X214602Y292830D01*
X214496Y292765D01*
X214402Y292684D01*
X214322Y292590D01*
X214257Y292485D01*
X214209Y292370D01*
X214181Y292250D01*
X214173Y292126D01*
X214176Y289711D01*
X214150Y289370D01*
X214177Y289018D01*
X214181Y286491D01*
X214209Y286370D01*
X214257Y286256D01*
X214322Y286150D01*
X214402Y286056D01*
X214496Y285975D01*
X214602Y285910D01*
X214717Y285863D01*
X214837Y285834D01*
X214961Y285827D01*
X216728Y285830D01*
Y284449D01*
X213583D01*
Y270669D01*
X216728D01*
Y236220D01*
X207008D01*
Y241226D01*
X207453Y241261D01*
X208195Y241440D01*
X208900Y241731D01*
X209550Y242130D01*
X210130Y242625D01*
X210626Y243206D01*
X211024Y243856D01*
X211316Y244561D01*
X211494Y245302D01*
X211539Y246063D01*
X211494Y246823D01*
X211316Y247565D01*
X211024Y248270D01*
X210626Y248920D01*
X210130Y249501D01*
X209550Y249996D01*
X208900Y250395D01*
X208195Y250686D01*
X207453Y250865D01*
X207008Y250900D01*
Y273232D01*
X210675Y273236D01*
X210795Y273265D01*
X210910Y273312D01*
X211015Y273377D01*
X211110Y273457D01*
X211190Y273551D01*
X211255Y273657D01*
X211302Y273772D01*
X211331Y273892D01*
X211339Y274016D01*
X211331Y281226D01*
X211302Y281346D01*
X211255Y281461D01*
X211190Y281567D01*
X211110Y281661D01*
X211015Y281741D01*
X210910Y281806D01*
X210795Y281854D01*
X210675Y281882D01*
X210551Y281890D01*
X207008Y281886D01*
Y293307D01*
G37*
G36*
X188110D02*X207008D01*
Y281886D01*
X203341Y281882D01*
X203220Y281854D01*
X203106Y281806D01*
X203000Y281741D01*
X202906Y281661D01*
X202826Y281567D01*
X202761Y281461D01*
X202713Y281346D01*
X202684Y281226D01*
X202677Y281102D01*
X202684Y273892D01*
X202713Y273772D01*
X202761Y273657D01*
X202826Y273551D01*
X202906Y273457D01*
X203000Y273377D01*
X203106Y273312D01*
X203220Y273265D01*
X203341Y273236D01*
X203465Y273228D01*
X207008Y273232D01*
Y250900D01*
X206693Y250924D01*
X205932Y250865D01*
X205191Y250686D01*
X204486Y250395D01*
X203835Y249996D01*
X203255Y249501D01*
X202760Y248920D01*
X202361Y248270D01*
X202069Y247565D01*
X201891Y246823D01*
X201832Y246063D01*
X201891Y245302D01*
X202069Y244561D01*
X202361Y243856D01*
X202760Y243206D01*
X203255Y242625D01*
X203835Y242130D01*
X204486Y241731D01*
X205191Y241440D01*
X205932Y241261D01*
X206693Y241202D01*
X207008Y241226D01*
Y236220D01*
X188110D01*
Y273232D01*
X191777Y273236D01*
X191898Y273265D01*
X192012Y273312D01*
X192118Y273377D01*
X192212Y273457D01*
X192293Y273551D01*
X192357Y273657D01*
X192405Y273772D01*
X192434Y273892D01*
X192441Y274016D01*
X192434Y281226D01*
X192405Y281346D01*
X192357Y281461D01*
X192293Y281567D01*
X192212Y281661D01*
X192118Y281741D01*
X192012Y281806D01*
X191898Y281854D01*
X191777Y281882D01*
X191654Y281890D01*
X188110Y281886D01*
Y293307D01*
G37*
G36*
X176969D02*X188110D01*
Y281886D01*
X184443Y281882D01*
X184323Y281854D01*
X184208Y281806D01*
X184103Y281741D01*
X184008Y281661D01*
X183928Y281567D01*
X183863Y281461D01*
X183816Y281346D01*
X183787Y281226D01*
X183780Y281102D01*
X183787Y273892D01*
X183816Y273772D01*
X183863Y273657D01*
X183928Y273551D01*
X184008Y273457D01*
X184103Y273377D01*
X184208Y273312D01*
X184323Y273265D01*
X184443Y273236D01*
X184567Y273228D01*
X188110Y273232D01*
Y236220D01*
X184858D01*
Y242235D01*
X184897Y242268D01*
X185160Y242576D01*
X185372Y242922D01*
X185527Y243296D01*
X185622Y243690D01*
X185646Y244094D01*
X185622Y244499D01*
X185527Y244893D01*
X185372Y245267D01*
X185160Y245613D01*
X184897Y245921D01*
X184589Y246184D01*
X184243Y246396D01*
X183869Y246551D01*
X183475Y246645D01*
X183071Y246677D01*
X182667Y246645D01*
X182273Y246551D01*
X181898Y246396D01*
X181553Y246184D01*
X181245Y245921D01*
X180981Y245613D01*
X180770Y245267D01*
X180615Y244893D01*
X180520Y244499D01*
X180488Y244094D01*
X180520Y243690D01*
X180615Y243296D01*
X180770Y242922D01*
X180981Y242576D01*
X181245Y242268D01*
X181283Y242235D01*
Y236220D01*
X176969D01*
Y270669D01*
X180118D01*
Y284449D01*
X176969D01*
Y285830D01*
X178864Y285834D01*
X178984Y285863D01*
X179099Y285910D01*
X179204Y285975D01*
X179299Y286056D01*
X179379Y286150D01*
X179444Y286256D01*
X179491Y286370D01*
X179520Y286491D01*
X179528Y286614D01*
X179520Y292250D01*
X179491Y292370D01*
X179444Y292485D01*
X179379Y292590D01*
X179299Y292684D01*
X179204Y292765D01*
X179099Y292830D01*
X178984Y292877D01*
X178864Y292906D01*
X178740Y292913D01*
X176969Y292910D01*
Y293307D01*
G37*
G36*
X169594Y270669D02*X176969D01*
Y236220D01*
X175016D01*
Y242235D01*
X175055Y242268D01*
X175318Y242576D01*
X175530Y242922D01*
X175685Y243296D01*
X175779Y243690D01*
X175803Y244094D01*
X175779Y244499D01*
X175685Y244893D01*
X175530Y245267D01*
X175318Y245613D01*
X175055Y245921D01*
X174746Y246184D01*
X174401Y246396D01*
X174026Y246551D01*
X173632Y246645D01*
X173228Y246677D01*
X172824Y246645D01*
X172430Y246551D01*
X172056Y246396D01*
X171710Y246184D01*
X171402Y245921D01*
X171139Y245613D01*
X170927Y245267D01*
X170772Y244893D01*
X170677Y244499D01*
X170646Y244094D01*
X170677Y243690D01*
X170772Y243296D01*
X170927Y242922D01*
X171139Y242576D01*
X171402Y242268D01*
X171441Y242235D01*
Y236220D01*
X169594D01*
Y270669D01*
G37*
G36*
Y293307D02*X176969D01*
Y292910D01*
X175073Y292906D01*
X174953Y292877D01*
X174838Y292830D01*
X174733Y292765D01*
X174638Y292684D01*
X174558Y292590D01*
X174493Y292485D01*
X174446Y292370D01*
X174417Y292250D01*
X174409Y292126D01*
X174417Y286491D01*
X174446Y286370D01*
X174493Y286256D01*
X174558Y286150D01*
X174638Y286056D01*
X174733Y285975D01*
X174838Y285910D01*
X174953Y285863D01*
X175073Y285834D01*
X175197Y285827D01*
X176969Y285830D01*
Y284449D01*
X169594D01*
Y285831D01*
X171383Y285834D01*
X171504Y285863D01*
X171618Y285910D01*
X171724Y285975D01*
X171818Y286056D01*
X171899Y286150D01*
X171964Y286256D01*
X172011Y286370D01*
X172040Y286491D01*
X172047Y286614D01*
X172045Y288339D01*
X172141Y288572D01*
X172236Y288966D01*
X172260Y289370D01*
X172236Y289774D01*
X172141Y290168D01*
X172042Y290407D01*
X172040Y292250D01*
X172011Y292370D01*
X171964Y292485D01*
X171899Y292590D01*
X171818Y292684D01*
X171724Y292765D01*
X171618Y292830D01*
X171504Y292877D01*
X171383Y292906D01*
X171260Y292913D01*
X169594Y292910D01*
Y293307D01*
G37*
G36*
X159764D02*X169594D01*
Y292910D01*
X167593Y292906D01*
X167472Y292877D01*
X167358Y292830D01*
X167252Y292765D01*
X167158Y292684D01*
X167078Y292590D01*
X167013Y292485D01*
X166965Y292370D01*
X166936Y292250D01*
X166929Y292126D01*
X166936Y286491D01*
X166965Y286370D01*
X167013Y286256D01*
X167078Y286150D01*
X167158Y286056D01*
X167252Y285975D01*
X167358Y285910D01*
X167472Y285863D01*
X167593Y285834D01*
X167717Y285827D01*
X169594Y285831D01*
Y284449D01*
X166339D01*
Y270669D01*
X169594D01*
Y236220D01*
X159764D01*
Y239258D01*
X160209Y239293D01*
X160951Y239471D01*
X161656Y239763D01*
X162306Y240162D01*
X162886Y240657D01*
X163382Y241237D01*
X163780Y241887D01*
X164072Y242592D01*
X164250Y243334D01*
X164295Y244094D01*
X164250Y244855D01*
X164072Y245597D01*
X163780Y246302D01*
X163382Y246952D01*
X162886Y247532D01*
X162306Y248027D01*
X161656Y248426D01*
X160951Y248718D01*
X160209Y248896D01*
X159764Y248931D01*
Y273232D01*
X163431Y273236D01*
X163551Y273265D01*
X163666Y273312D01*
X163771Y273377D01*
X163866Y273457D01*
X163946Y273551D01*
X164011Y273657D01*
X164058Y273772D01*
X164087Y273892D01*
X164094Y274016D01*
X164087Y281226D01*
X164058Y281346D01*
X164011Y281461D01*
X163946Y281567D01*
X163866Y281661D01*
X163771Y281741D01*
X163666Y281806D01*
X163551Y281854D01*
X163431Y281882D01*
X163307Y281890D01*
X159764Y281886D01*
Y293307D01*
G37*
G36*
X140866D02*X159764D01*
Y281886D01*
X156097Y281882D01*
X155976Y281854D01*
X155862Y281806D01*
X155756Y281741D01*
X155662Y281661D01*
X155581Y281567D01*
X155517Y281461D01*
X155469Y281346D01*
X155440Y281226D01*
X155433Y281102D01*
X155440Y273892D01*
X155469Y273772D01*
X155517Y273657D01*
X155581Y273551D01*
X155662Y273457D01*
X155756Y273377D01*
X155862Y273312D01*
X155976Y273265D01*
X156097Y273236D01*
X156220Y273228D01*
X159764Y273232D01*
Y248931D01*
X159449Y248956D01*
X158688Y248896D01*
X157947Y248718D01*
X157242Y248426D01*
X156591Y248027D01*
X156011Y247532D01*
X155516Y246952D01*
X155117Y246302D01*
X154825Y245597D01*
X154647Y244855D01*
X154587Y244094D01*
X154647Y243334D01*
X154825Y242592D01*
X155117Y241887D01*
X155516Y241237D01*
X156011Y240657D01*
X156591Y240162D01*
X157242Y239763D01*
X157947Y239471D01*
X158688Y239293D01*
X159449Y239233D01*
X159764Y239258D01*
Y236220D01*
X145488D01*
Y242235D01*
X145527Y242268D01*
X145790Y242576D01*
X146002Y242922D01*
X146157Y243296D01*
X146252Y243690D01*
X146276Y244094D01*
X146252Y244499D01*
X146157Y244893D01*
X146002Y245267D01*
X145790Y245613D01*
X145527Y245921D01*
X145219Y246184D01*
X144873Y246396D01*
X144499Y246551D01*
X144105Y246645D01*
X143701Y246677D01*
X143297Y246645D01*
X142903Y246551D01*
X142528Y246396D01*
X142183Y246184D01*
X141875Y245921D01*
X141611Y245613D01*
X141400Y245267D01*
X141244Y244893D01*
X141150Y244499D01*
X141118Y244094D01*
X141150Y243690D01*
X141244Y243296D01*
X141400Y242922D01*
X141611Y242576D01*
X141875Y242268D01*
X141913Y242235D01*
Y236220D01*
X140866D01*
Y273232D01*
X144533Y273236D01*
X144654Y273265D01*
X144768Y273312D01*
X144874Y273377D01*
X144968Y273457D01*
X145048Y273551D01*
X145113Y273657D01*
X145161Y273772D01*
X145190Y273892D01*
X145197Y274016D01*
X145190Y281226D01*
X145161Y281346D01*
X145113Y281461D01*
X145048Y281567D01*
X144968Y281661D01*
X144874Y281741D01*
X144768Y281806D01*
X144654Y281854D01*
X144533Y281882D01*
X144409Y281890D01*
X140866Y281886D01*
Y293307D01*
G37*
G36*
X129724D02*X140866D01*
Y281886D01*
X137199Y281882D01*
X137079Y281854D01*
X136964Y281806D01*
X136859Y281741D01*
X136764Y281661D01*
X136684Y281567D01*
X136619Y281461D01*
X136572Y281346D01*
X136543Y281226D01*
X136535Y281102D01*
X136543Y273892D01*
X136572Y273772D01*
X136619Y273657D01*
X136684Y273551D01*
X136764Y273457D01*
X136859Y273377D01*
X136964Y273312D01*
X137079Y273265D01*
X137199Y273236D01*
X137323Y273228D01*
X140866Y273232D01*
Y236220D01*
X129724D01*
Y270669D01*
X132874D01*
Y284449D01*
X129724D01*
Y285830D01*
X131620Y285834D01*
X131740Y285863D01*
X131855Y285910D01*
X131960Y285975D01*
X132055Y286056D01*
X132135Y286150D01*
X132200Y286256D01*
X132247Y286370D01*
X132276Y286491D01*
X132283Y286614D01*
X132276Y292250D01*
X132247Y292370D01*
X132200Y292485D01*
X132135Y292590D01*
X132055Y292684D01*
X131960Y292765D01*
X131855Y292830D01*
X131740Y292877D01*
X131620Y292906D01*
X131496Y292913D01*
X129724Y292910D01*
Y293307D01*
G37*
G36*
X122240Y270669D02*X129724D01*
Y236220D01*
X122240D01*
Y270669D01*
G37*
G36*
Y293307D02*X129724D01*
Y292910D01*
X127829Y292906D01*
X127709Y292877D01*
X127594Y292830D01*
X127488Y292765D01*
X127394Y292684D01*
X127314Y292590D01*
X127249Y292485D01*
X127202Y292370D01*
X127173Y292250D01*
X127165Y292126D01*
X127173Y286491D01*
X127202Y286370D01*
X127249Y286256D01*
X127314Y286150D01*
X127394Y286056D01*
X127488Y285975D01*
X127594Y285910D01*
X127709Y285863D01*
X127829Y285834D01*
X127953Y285827D01*
X129724Y285830D01*
Y284449D01*
X122240D01*
Y285830D01*
X124139Y285834D01*
X124260Y285863D01*
X124374Y285910D01*
X124480Y285975D01*
X124574Y286056D01*
X124655Y286150D01*
X124719Y286256D01*
X124767Y286370D01*
X124796Y286491D01*
X124803Y286614D01*
X124800Y289050D01*
X124819Y289370D01*
X124799Y289705D01*
X124796Y292250D01*
X124767Y292370D01*
X124719Y292485D01*
X124655Y292590D01*
X124574Y292684D01*
X124480Y292765D01*
X124374Y292830D01*
X124260Y292877D01*
X124139Y292906D01*
X124016Y292913D01*
X122240Y292910D01*
Y293307D01*
G37*
G36*
X112520D02*X122240D01*
Y292910D01*
X120349Y292906D01*
X120228Y292877D01*
X120114Y292830D01*
X120008Y292765D01*
X119914Y292684D01*
X119833Y292590D01*
X119769Y292485D01*
X119721Y292370D01*
X119692Y292250D01*
X119685Y292126D01*
X119688Y289711D01*
X119661Y289370D01*
X119689Y289018D01*
X119692Y286491D01*
X119721Y286370D01*
X119769Y286256D01*
X119833Y286150D01*
X119914Y286056D01*
X120008Y285975D01*
X120114Y285910D01*
X120228Y285863D01*
X120349Y285834D01*
X120472Y285827D01*
X122240Y285830D01*
Y284449D01*
X119094D01*
Y270669D01*
X122240D01*
Y236220D01*
X112520D01*
Y242842D01*
X112704Y242625D01*
X113284Y242130D01*
X113935Y241731D01*
X114639Y241440D01*
X115381Y241261D01*
X116142Y241202D01*
X116902Y241261D01*
X117644Y241440D01*
X118349Y241731D01*
X118999Y242130D01*
X119579Y242625D01*
X120075Y243206D01*
X120473Y243856D01*
X120765Y244561D01*
X120943Y245302D01*
X120988Y246063D01*
X120943Y246823D01*
X120765Y247565D01*
X120473Y248270D01*
X120075Y248920D01*
X119579Y249501D01*
X118999Y249996D01*
X118349Y250395D01*
X117644Y250686D01*
X116902Y250865D01*
X116142Y250924D01*
X115381Y250865D01*
X114639Y250686D01*
X113935Y250395D01*
X113284Y249996D01*
X112704Y249501D01*
X112520Y249284D01*
Y273232D01*
X116187Y273236D01*
X116307Y273265D01*
X116422Y273312D01*
X116527Y273377D01*
X116621Y273457D01*
X116702Y273551D01*
X116767Y273657D01*
X116814Y273772D01*
X116843Y273892D01*
X116850Y274016D01*
X116843Y281226D01*
X116814Y281346D01*
X116767Y281461D01*
X116702Y281567D01*
X116621Y281661D01*
X116527Y281741D01*
X116422Y281806D01*
X116307Y281854D01*
X116187Y281882D01*
X116063Y281890D01*
X112520Y281886D01*
Y293307D01*
G37*
G36*
X100394Y236220D02*Y293307D01*
X112520D01*
Y281886D01*
X108853Y281882D01*
X108732Y281854D01*
X108618Y281806D01*
X108512Y281741D01*
X108418Y281661D01*
X108337Y281567D01*
X108273Y281461D01*
X108225Y281346D01*
X108196Y281226D01*
X108189Y281102D01*
X108196Y273892D01*
X108225Y273772D01*
X108273Y273657D01*
X108337Y273551D01*
X108418Y273457D01*
X108512Y273377D01*
X108618Y273312D01*
X108732Y273265D01*
X108853Y273236D01*
X108976Y273228D01*
X112520Y273232D01*
Y249284D01*
X112209Y248920D01*
X111810Y248270D01*
X111518Y247565D01*
X111340Y246823D01*
X111280Y246063D01*
X111340Y245302D01*
X111518Y244561D01*
X111810Y243856D01*
X112209Y243206D01*
X112520Y242842D01*
Y236220D01*
X100394D01*
G37*
G54D25*X224213Y285433D02*Y289370D01*
X220472D02*X228346D01*
X271457Y285433D02*Y289370D01*
X129724Y285433D02*Y289370D01*
X125984D02*X133858D01*
X177165Y285433D02*Y289370D01*
X173425D02*X181299D01*
X267717D02*X275591D01*
X282598Y271654D02*Y283465D01*
X275591Y277559D02*X289370D01*
X140866Y271654D02*Y283465D01*
X157480Y226378D02*X165354D01*
X133858Y277559D02*X147638D01*
X181102D02*X194882D01*
X188110Y271654D02*Y283465D01*
X235354Y271654D02*Y283465D01*
X228346Y277559D02*X242126D01*
G54D24*G36*
X291243Y214567D02*X293307D01*
Y198819D01*
X291243D01*
Y207849D01*
X291328Y207764D01*
X291335Y207772D01*
X291733Y208423D01*
X292025Y209128D01*
X292203Y209869D01*
X292248Y210630D01*
X292203Y211390D01*
X292025Y212132D01*
X291733Y212837D01*
X291335Y213487D01*
X291328Y213495D01*
X291243Y213411D01*
Y214567D01*
G37*
G36*
X287402Y213987D02*X287927Y213945D01*
X288439Y213822D01*
X288926Y213621D01*
X289177Y213466D01*
X290267Y214556D01*
X290259Y214563D01*
X290252Y214567D01*
X291243D01*
Y213411D01*
X290238Y212406D01*
X290392Y212154D01*
X290594Y211667D01*
X290717Y211155D01*
X290748Y210630D01*
X290717Y210105D01*
X290594Y209593D01*
X290392Y209106D01*
X290238Y208854D01*
X291243Y207849D01*
Y198819D01*
X287402D01*
Y205769D01*
X288162Y205828D01*
X288904Y206006D01*
X289609Y206298D01*
X290259Y206697D01*
X290267Y206704D01*
X289177Y207793D01*
X288926Y207639D01*
X288439Y207437D01*
X287927Y207314D01*
X287402Y207273D01*
Y213987D01*
G37*
G36*
X283553Y214567D02*X284551D01*
X284544Y214563D01*
X284536Y214556D01*
X285626Y213466D01*
X285878Y213621D01*
X286364Y213822D01*
X286876Y213945D01*
X287402Y213987D01*
Y207273D01*
X286876Y207314D01*
X286364Y207437D01*
X285878Y207639D01*
X285626Y207793D01*
X284536Y206704D01*
X284544Y206697D01*
X285195Y206298D01*
X285899Y206006D01*
X286641Y205828D01*
X287402Y205769D01*
Y198819D01*
X283553D01*
Y207842D01*
X284565Y208854D01*
X284411Y209106D01*
X284209Y209593D01*
X284086Y210105D01*
X284045Y210630D01*
X284086Y211155D01*
X284209Y211667D01*
X284411Y212154D01*
X284565Y212406D01*
X283553Y213418D01*
Y214567D01*
G37*
G36*
X277559Y198819D02*Y214567D01*
X283553D01*
Y213418D01*
X283475Y213495D01*
X283469Y213487D01*
X283070Y212837D01*
X282778Y212132D01*
X282600Y211390D01*
X282540Y210630D01*
X282600Y209869D01*
X282778Y209128D01*
X283070Y208423D01*
X283469Y207772D01*
X283475Y207764D01*
X283553Y207842D01*
Y198819D01*
X277559D01*
G37*
G36*
X253932Y234252D02*X279528D01*
Y198819D01*
X253932D01*
Y212780D01*
X259772D01*
X259843Y212774D01*
X260123Y212796D01*
X260123Y212796D01*
X260397Y212862D01*
X260656Y212969D01*
X260896Y213116D01*
X261110Y213299D01*
X261156Y213353D01*
X263362Y215559D01*
X263780Y215526D01*
X264245Y215563D01*
X264700Y215672D01*
X265131Y215851D01*
X265530Y216095D01*
X265885Y216398D01*
X266189Y216754D01*
X266433Y217152D01*
X266611Y217584D01*
X266721Y218038D01*
X266748Y218504D01*
X266721Y218970D01*
X266611Y219424D01*
X266433Y219856D01*
X266189Y220254D01*
X265885Y220609D01*
X265530Y220913D01*
X265131Y221157D01*
X264700Y221336D01*
X264245Y221445D01*
X263780Y221482D01*
X263314Y221445D01*
X262859Y221336D01*
X262428Y221157D01*
X262029Y220913D01*
X261674Y220609D01*
X261371Y220254D01*
X261126Y219856D01*
X260948Y219424D01*
X260839Y218970D01*
X260802Y218504D01*
X260835Y218087D01*
X259102Y216354D01*
X253932D01*
Y234252D01*
G37*
G36*
X192906D02*X218685D01*
Y232174D01*
X218646Y232141D01*
X218383Y231833D01*
X218171Y231488D01*
X218016Y231113D01*
X217921Y230719D01*
X217890Y230315D01*
X217921Y229911D01*
X218016Y229517D01*
X218171Y229142D01*
X218383Y228797D01*
X218646Y228489D01*
X218954Y228225D01*
X219300Y228014D01*
X219674Y227859D01*
X220068Y227764D01*
X220472Y227732D01*
X220876Y227764D01*
X221271Y227859D01*
X221645Y228014D01*
X221991Y228225D01*
X222299Y228489D01*
X222562Y228797D01*
X222774Y229142D01*
X222929Y229517D01*
X223023Y229911D01*
X223047Y230315D01*
X223023Y230719D01*
X222929Y231113D01*
X222774Y231488D01*
X222562Y231833D01*
X222299Y232141D01*
X222260Y232174D01*
Y234252D01*
X237630D01*
X236638Y233260D01*
X236220Y233293D01*
X235755Y233256D01*
X235300Y233147D01*
X234869Y232968D01*
X234470Y232724D01*
X234115Y232420D01*
X233811Y232065D01*
X233567Y231667D01*
X233389Y231235D01*
X233279Y230781D01*
X233243Y230315D01*
X233279Y229849D01*
X233389Y229395D01*
X233567Y228963D01*
X233811Y228565D01*
X234115Y228209D01*
X234470Y227906D01*
X234869Y227662D01*
X235300Y227483D01*
X235755Y227374D01*
X236220Y227337D01*
X236686Y227374D01*
X237141Y227483D01*
X237572Y227662D01*
X237971Y227906D01*
X238326Y228209D01*
X238629Y228565D01*
X238874Y228963D01*
X239052Y229395D01*
X239161Y229849D01*
X239189Y230315D01*
X239164Y230731D01*
X241372Y232939D01*
X241425Y232984D01*
X241608Y233198D01*
X241608Y233198D01*
X241755Y233438D01*
X241863Y233698D01*
X241928Y233971D01*
X241950Y234252D01*
X253932D01*
Y216354D01*
X246472D01*
X246200Y216672D01*
X245845Y216976D01*
X245446Y217220D01*
X245015Y217399D01*
X244560Y217508D01*
X244094Y217545D01*
X243629Y217508D01*
X243174Y217399D01*
X242743Y217220D01*
X242344Y216976D01*
X241989Y216672D01*
X241686Y216317D01*
X241441Y215919D01*
X241263Y215487D01*
X241153Y215033D01*
X241117Y214567D01*
X241153Y214101D01*
X241263Y213647D01*
X241441Y213215D01*
X241686Y212817D01*
X241989Y212461D01*
X242344Y212158D01*
X242743Y211914D01*
X243174Y211735D01*
X243629Y211626D01*
X244094Y211589D01*
X244560Y211626D01*
X245015Y211735D01*
X245446Y211914D01*
X245845Y212158D01*
X246200Y212461D01*
X246472Y212780D01*
X253932D01*
Y198819D01*
X192906D01*
Y199864D01*
X192913Y199863D01*
X193674Y199923D01*
X194416Y200101D01*
X195120Y200393D01*
X195771Y200791D01*
X196351Y201287D01*
X196846Y201867D01*
X197245Y202517D01*
X197537Y203222D01*
X197715Y203964D01*
X197760Y204724D01*
X197715Y205485D01*
X197537Y206227D01*
X197245Y206931D01*
X196846Y207582D01*
X196351Y208162D01*
X195771Y208657D01*
X195120Y209056D01*
X194416Y209348D01*
X193674Y209526D01*
X192913Y209586D01*
X192906Y209585D01*
Y219549D01*
X192913Y219548D01*
X193674Y219608D01*
X194416Y219786D01*
X195120Y220078D01*
X195771Y220476D01*
X196351Y220972D01*
X196846Y221552D01*
X197245Y222202D01*
X197537Y222907D01*
X197715Y223649D01*
X197760Y224409D01*
X197715Y225170D01*
X197537Y225912D01*
X197245Y226616D01*
X196846Y227267D01*
X196351Y227847D01*
X195771Y228342D01*
X195120Y228741D01*
X194416Y229033D01*
X193674Y229211D01*
X192913Y229271D01*
X192906Y229270D01*
Y234252D01*
G37*
G36*
X161413D02*X171441D01*
Y232174D01*
X171402Y232141D01*
X171139Y231833D01*
X170927Y231488D01*
X170772Y231113D01*
X170677Y230719D01*
X170646Y230315D01*
X170677Y229911D01*
X170772Y229517D01*
X170927Y229142D01*
X171139Y228797D01*
X171402Y228489D01*
X171710Y228225D01*
X172056Y228014D01*
X172430Y227859D01*
X172824Y227764D01*
X173228Y227732D01*
X173632Y227764D01*
X174026Y227859D01*
X174401Y228014D01*
X174746Y228225D01*
X175055Y228489D01*
X175318Y228797D01*
X175530Y229142D01*
X175685Y229517D01*
X175779Y229911D01*
X175803Y230315D01*
X175779Y230719D01*
X175685Y231113D01*
X175530Y231488D01*
X175318Y231833D01*
X175055Y232141D01*
X175016Y232174D01*
Y234252D01*
X192906D01*
Y229270D01*
X192153Y229211D01*
X191411Y229033D01*
X190706Y228741D01*
X190056Y228342D01*
X189476Y227847D01*
X188980Y227267D01*
X188582Y226616D01*
X188290Y225912D01*
X188112Y225170D01*
X188052Y224409D01*
X188112Y223649D01*
X188290Y222907D01*
X188582Y222202D01*
X188980Y221552D01*
X189476Y220972D01*
X190056Y220476D01*
X190706Y220078D01*
X191411Y219786D01*
X192153Y219608D01*
X192906Y219549D01*
Y209585D01*
X192153Y209526D01*
X191411Y209348D01*
X190706Y209056D01*
X190056Y208657D01*
X189476Y208162D01*
X188980Y207582D01*
X188582Y206931D01*
X188290Y206227D01*
X188112Y205485D01*
X188052Y204724D01*
X188112Y203964D01*
X188290Y203222D01*
X188582Y202517D01*
X188980Y201867D01*
X189476Y201287D01*
X190056Y200791D01*
X190706Y200393D01*
X191411Y200101D01*
X192153Y199923D01*
X192906Y199864D01*
Y198819D01*
X161413D01*
Y224886D01*
X163249D01*
X163265Y224860D01*
X163528Y224552D01*
X163836Y224288D01*
X164182Y224077D01*
X164556Y223922D01*
X164950Y223827D01*
X165354Y223795D01*
X165758Y223827D01*
X166152Y223922D01*
X166527Y224077D01*
X166872Y224288D01*
X167181Y224552D01*
X167444Y224860D01*
X167656Y225205D01*
X167811Y225580D01*
X167905Y225974D01*
X167929Y226378D01*
X167905Y226782D01*
X167811Y227176D01*
X167656Y227550D01*
X167444Y227896D01*
X167181Y228204D01*
X166872Y228467D01*
X166527Y228679D01*
X166152Y228834D01*
X165758Y228929D01*
X165354Y228961D01*
X164950Y228929D01*
X164556Y228834D01*
X164182Y228679D01*
X163836Y228467D01*
X163528Y228204D01*
X163265Y227896D01*
X163249Y227870D01*
X161413D01*
Y234252D01*
G37*
G36*
X110216D02*X161413D01*
Y227870D01*
X159586D01*
X159570Y227896D01*
X159307Y228204D01*
X158998Y228467D01*
X158653Y228679D01*
X158278Y228834D01*
X157884Y228929D01*
X157480Y228961D01*
X157076Y228929D01*
X156682Y228834D01*
X156308Y228679D01*
X155962Y228467D01*
X155654Y228204D01*
X155391Y227896D01*
X155179Y227550D01*
X155024Y227176D01*
X154929Y226782D01*
X154898Y226378D01*
X154929Y225974D01*
X155024Y225580D01*
X155179Y225205D01*
X155391Y224860D01*
X155654Y224552D01*
X155962Y224288D01*
X156308Y224077D01*
X156682Y223922D01*
X157076Y223827D01*
X157480Y223795D01*
X157884Y223827D01*
X158278Y223922D01*
X158653Y224077D01*
X158998Y224288D01*
X159307Y224552D01*
X159570Y224860D01*
X159586Y224886D01*
X161413D01*
Y198819D01*
X110216D01*
Y208232D01*
X110310Y208260D01*
X110417Y208311D01*
X110514Y208378D01*
X110600Y208459D01*
X110672Y208552D01*
X110726Y208657D01*
X110895Y209076D01*
X111020Y209510D01*
X111104Y209954D01*
X111146Y210404D01*
Y210856D01*
X111104Y211306D01*
X111020Y211750D01*
X110895Y212184D01*
X110731Y212605D01*
X110675Y212709D01*
X110603Y212803D01*
X110516Y212885D01*
X110419Y212952D01*
X110312Y213003D01*
X110216Y213032D01*
Y215896D01*
X110329Y215943D01*
X110530Y216066D01*
X110710Y216220D01*
X110863Y216399D01*
X110986Y216600D01*
X111077Y216819D01*
X111132Y217048D01*
X111146Y217283D01*
X111132Y224212D01*
X111077Y224441D01*
X110986Y224659D01*
X110863Y224861D01*
X110710Y225040D01*
X110530Y225194D01*
X110329Y225317D01*
X110216Y225364D01*
Y234252D01*
G37*
G36*
Y198819D02*X106299D01*
Y205783D01*
X106525D01*
X106975Y205826D01*
X107419Y205909D01*
X107853Y206034D01*
X108274Y206198D01*
X108379Y206254D01*
X108473Y206327D01*
X108554Y206413D01*
X108622Y206510D01*
X108673Y206618D01*
X108706Y206731D01*
X108722Y206849D01*
X108718Y206967D01*
X108697Y207084D01*
X108657Y207196D01*
X108601Y207300D01*
X108528Y207394D01*
X108442Y207476D01*
X108344Y207543D01*
X108237Y207594D01*
X108124Y207628D01*
X108006Y207643D01*
X107887Y207640D01*
X107771Y207618D01*
X107660Y207577D01*
X107371Y207460D01*
X107072Y207374D01*
X106765Y207316D01*
X106455Y207287D01*
X106299D01*
Y213973D01*
X106455D01*
X106765Y213944D01*
X107072Y213886D01*
X107371Y213800D01*
X107661Y213687D01*
X107772Y213645D01*
X107888Y213623D01*
X108006Y213620D01*
X108123Y213636D01*
X108236Y213669D01*
X108343Y213720D01*
X108440Y213787D01*
X108526Y213868D01*
X108597Y213962D01*
X108654Y214065D01*
X108693Y214177D01*
X108715Y214293D01*
X108718Y214411D01*
X108703Y214528D01*
X108669Y214641D01*
X108618Y214748D01*
X108552Y214845D01*
X108470Y214931D01*
X108377Y215002D01*
X108272Y215057D01*
X107853Y215226D01*
X107419Y215351D01*
X106975Y215434D01*
X106525Y215476D01*
X106299D01*
Y215790D01*
X109881Y215797D01*
X110111Y215852D01*
X110216Y215896D01*
Y213032D01*
X110198Y213037D01*
X110080Y213052D01*
X109962Y213049D01*
X109845Y213028D01*
X109733Y212988D01*
X109629Y212931D01*
X109535Y212859D01*
X109453Y212773D01*
X109386Y212675D01*
X109335Y212568D01*
X109301Y212454D01*
X109286Y212337D01*
X109289Y212218D01*
X109311Y212101D01*
X109353Y211991D01*
X109469Y211702D01*
X109555Y211402D01*
X109613Y211096D01*
X109642Y210786D01*
Y210474D01*
X109613Y210164D01*
X109555Y209858D01*
X109469Y209558D01*
X109356Y209268D01*
X109314Y209157D01*
X109293Y209041D01*
X109290Y208923D01*
X109305Y208806D01*
X109338Y208693D01*
X109389Y208587D01*
X109456Y208489D01*
X109537Y208404D01*
X109631Y208332D01*
X109735Y208275D01*
X109846Y208236D01*
X109962Y208214D01*
X110080Y208211D01*
X110197Y208227D01*
X110216Y208232D01*
Y198819D01*
G37*
G36*
X106299Y234252D02*X110216D01*
Y225364D01*
X110111Y225407D01*
X109881Y225462D01*
X109646Y225476D01*
X106299Y225470D01*
Y234252D01*
G37*
G36*
X102383Y215896D02*X102488Y215852D01*
X102717Y215797D01*
X102953Y215783D01*
X106299Y215790D01*
Y215476D01*
X106073D01*
X105623Y215434D01*
X105179Y215351D01*
X104745Y215226D01*
X104324Y215061D01*
X104220Y215005D01*
X104126Y214933D01*
X104044Y214847D01*
X103977Y214749D01*
X103926Y214642D01*
X103892Y214529D01*
X103877Y214411D01*
X103880Y214292D01*
X103902Y214176D01*
X103941Y214064D01*
X103998Y213960D01*
X104070Y213866D01*
X104156Y213784D01*
X104254Y213717D01*
X104361Y213666D01*
X104475Y213632D01*
X104592Y213617D01*
X104711Y213620D01*
X104828Y213642D01*
X104938Y213683D01*
X105227Y213800D01*
X105527Y213886D01*
X105833Y213944D01*
X106143Y213973D01*
X106299D01*
Y207287D01*
X106143D01*
X105833Y207316D01*
X105527Y207374D01*
X105227Y207460D01*
X104937Y207573D01*
X104827Y207615D01*
X104711Y207636D01*
X104593Y207639D01*
X104476Y207624D01*
X104362Y207591D01*
X104256Y207540D01*
X104158Y207473D01*
X104073Y207392D01*
X104001Y207298D01*
X103945Y207194D01*
X103905Y207083D01*
X103884Y206967D01*
X103880Y206849D01*
X103896Y206732D01*
X103929Y206619D01*
X103980Y206512D01*
X104047Y206415D01*
X104128Y206329D01*
X104222Y206257D01*
X104326Y206203D01*
X104745Y206034D01*
X105179Y205909D01*
X105623Y205826D01*
X106073Y205783D01*
X106299D01*
Y198819D01*
X102383D01*
Y208228D01*
X102401Y208223D01*
X102518Y208208D01*
X102637Y208211D01*
X102753Y208232D01*
X102865Y208272D01*
X102969Y208329D01*
X103064Y208401D01*
X103145Y208487D01*
X103212Y208585D01*
X103263Y208692D01*
X103297Y208806D01*
X103312Y208923D01*
X103309Y209042D01*
X103288Y209158D01*
X103246Y209269D01*
X103129Y209558D01*
X103043Y209858D01*
X102985Y210164D01*
X102956Y210474D01*
Y210786D01*
X102985Y211096D01*
X103043Y211402D01*
X103129Y211702D01*
X103243Y211992D01*
X103284Y212102D01*
X103306Y212219D01*
X103309Y212337D01*
X103293Y212454D01*
X103260Y212567D01*
X103209Y212673D01*
X103142Y212771D01*
X103061Y212856D01*
X102967Y212928D01*
X102864Y212985D01*
X102752Y213024D01*
X102636Y213046D01*
X102518Y213049D01*
X102401Y213033D01*
X102383Y213028D01*
Y215896D01*
G37*
G36*
Y234252D02*X106299D01*
Y225470D01*
X102717Y225462D01*
X102488Y225407D01*
X102383Y225364D01*
Y234252D01*
G37*
G36*
X100394Y198819D02*Y234252D01*
X102383D01*
Y225364D01*
X102270Y225317D01*
X102068Y225194D01*
X101889Y225040D01*
X101735Y224861D01*
X101612Y224659D01*
X101522Y224441D01*
X101467Y224212D01*
X101453Y223976D01*
X101467Y217048D01*
X101522Y216819D01*
X101612Y216600D01*
X101735Y216399D01*
X101889Y216220D01*
X102068Y216066D01*
X102270Y215943D01*
X102383Y215896D01*
Y213028D01*
X102288Y213000D01*
X102182Y212949D01*
X102084Y212882D01*
X101999Y212801D01*
X101927Y212707D01*
X101872Y212603D01*
X101703Y212184D01*
X101578Y211750D01*
X101495Y211306D01*
X101453Y210856D01*
Y210404D01*
X101495Y209954D01*
X101578Y209510D01*
X101703Y209076D01*
X101868Y208655D01*
X101924Y208550D01*
X101996Y208456D01*
X102082Y208375D01*
X102180Y208308D01*
X102287Y208257D01*
X102383Y208228D01*
Y198819D01*
X100394D01*
G37*
G54D26*X143701Y244094D02*Y236220D01*
Y230315D02*Y236220D01*
X259843Y214567D02*X263780Y218504D01*
X244094Y214567D02*X259843D01*
X173228Y244094D02*Y230315D01*
X183071D02*Y236220D01*
Y244094D02*Y236220D01*
X275591Y230315D02*Y236220D01*
Y244094D02*Y236220D01*
X240157Y234252D02*Y244094D01*
X236220Y230315D02*X240157Y234252D01*
X220472Y230315D02*Y244094D01*
X230315Y230315D02*Y236220D01*
Y244094D02*Y236220D01*
G54D27*X253937Y246063D03*
X206693D03*
G54D24*G36*
X284055Y253976D02*Y247283D01*
X290748D01*
Y253976D01*
X284055D01*
G37*
G54D27*X116142Y246063D03*
G54D24*G36*
X102953Y223976D02*Y217283D01*
X109646D01*
Y223976D01*
X102953D01*
G37*
G54D27*X106299Y210630D03*
X159449Y244094D03*
X104331Y248031D03*
X287402Y240630D03*
Y230630D03*
Y220630D03*
Y210630D03*
X192913Y204724D03*
Y214567D03*
Y224409D03*
G54D24*G36*
X231811Y281102D02*Y274016D01*
X238898D01*
Y281102D01*
X231811D01*
G37*
G54D28*X263976Y290354D02*Y288386D01*
X271457Y290354D02*Y288386D01*
G54D24*G36*
X250709Y281102D02*Y274016D01*
X257795D01*
Y281102D01*
X250709D01*
G37*
G36*
X279055D02*Y274016D01*
X286142D01*
Y281102D01*
X279055D01*
G37*
G54D28*X216732Y290354D02*Y288386D01*
X224213Y290354D02*Y288386D01*
G54D24*G36*
X203465Y281102D02*Y274016D01*
X210551D01*
Y281102D01*
X203465D01*
G37*
G36*
X184567D02*Y274016D01*
X191654D01*
Y281102D01*
X184567D01*
G37*
G36*
X108976D02*Y274016D01*
X116063D01*
Y281102D01*
X108976D01*
G37*
G54D28*X122244Y290354D02*Y288386D01*
X129724Y290354D02*Y288386D01*
G54D24*G36*
X137323Y281102D02*Y274016D01*
X144409D01*
Y281102D01*
X137323D01*
G37*
G36*
X156220D02*Y274016D01*
X163307D01*
Y281102D01*
X156220D01*
G37*
G54D28*X169488Y290354D02*Y288386D01*
X176969Y290354D02*Y288386D01*
G54D29*X185039Y265748D03*
G54D30*X169685Y289370D03*
X122244D03*
G54D29*X139764Y265748D03*
G54D30*X140866Y277559D03*
X159764D03*
X157480Y226378D03*
X143701Y244094D03*
G54D29*X131890Y230315D03*
G54D30*X173228Y244094D03*
G54D29*X161417Y202756D03*
X120079D03*
X141732Y216535D03*
G54D30*X112520Y277559D03*
G54D29*X232283Y265748D03*
G54D30*X263976Y289370D03*
X254252Y277559D03*
X183071Y206693D03*
G54D29*X236220D03*
G54D30*X282598Y277559D03*
G54D29*X240157Y244094D03*
G54D30*X275591D03*
X220472D03*
X230315D03*
G54D29*X277559Y265748D03*
G54D30*X207008Y277559D03*
X188110D03*
G54D29*X263780Y218504D03*
X244094Y214567D03*
X265748Y213583D03*
G54D30*X165354Y226378D03*
G54D29*X236220Y230315D03*
G54D30*X220472D03*
X173228D03*
X183071Y244094D03*
X216732Y289370D03*
X235354Y277559D03*
G54D31*G54D26*G54D31*G54D26*G54D31*G54D26*G54D31*G54D26*G54D31*G54D26*G54D31*G54D26*G54D31*G54D26*G54D31*G54D26*G54D31*G54D26*G54D31*G54D26*G54D29*M02*
