M48
INCH
T37C0.016
T36C0.020
T35C0.039
%
T37
X011252Y027756
X012224Y028937
X014087Y027756
X014370Y024409
X015748Y022638
X015976Y027756
X016535Y022638
X016969Y028937
X017323Y024409
X017323Y023031
X018307Y024409
X018307Y020669
X018811Y027756
X020701Y027756
X021673Y028937
X022047Y024409
X022047Y023031
X023031Y024409
X023535Y027756
X025425Y027756
X026398Y028937
X027559Y024409
X028260Y027756
T36
X012008Y020276
X013189Y023031
X013976Y026575
X014173Y021654
X016142Y020276
X018504Y026575
X023228Y026575
X023622Y023031
X023622Y020669
X024016Y024409
X024409Y021457
X026378Y021850
X026575Y021358
X027756Y026575
T35
X010433Y024803
X010630Y022063
X010630Y021063
X011614Y024606
X015945Y024409
X019291Y022441
X019291Y021457
X019291Y020472
X020669Y024606
X025394Y024606
X028740Y025063
X028740Y024063
X028740Y023063
X028740Y022063
X028740Y021063
M30
