G04 start of page 7 for group -4062 idx -4062 *
G04 Title: Das Blinkinput, soldermask *
G04 Creator: pcb 1.99z *
G04 CreationDate: Thu 04 Jun 2015 03:29:16 PM GMT UTC *
G04 For: eelco *
G04 Format: Gerber/RS-274X *
G04 PCB-Dimensions (mil): 3937.01 3937.01 *
G04 PCB-Coordinate-Origin: lower left *
%MOIN*%
%FSLAX25Y25*%
%LNBOTTOMMASK*%
%ADD47R,0.0354X0.0354*%
%ADD46C,0.0001*%
%ADD45C,0.0728*%
G54D45*X253937Y246063D03*
X206693D03*
G54D46*G36*
X283760Y254272D02*Y246988D01*
X291043D01*
Y254272D01*
X283760D01*
G37*
G54D45*X116142Y246063D03*
G54D46*G36*
X102657Y224272D02*Y216988D01*
X109941D01*
Y224272D01*
X102657D01*
G37*
G54D45*X106299Y210630D03*
X159449Y244094D03*
X104331Y248031D03*
X287402Y240630D03*
Y230630D03*
Y220630D03*
Y210630D03*
X192913Y204724D03*
Y214567D03*
Y224409D03*
G54D46*G36*
X233386Y279528D02*Y275591D01*
X237323D01*
Y279528D01*
X233386D01*
G37*
G54D47*X263976Y290354D02*Y288386D01*
X271457Y290354D02*Y288386D01*
G54D46*G36*
X252283Y279528D02*Y275591D01*
X256220D01*
Y279528D01*
X252283D01*
G37*
G36*
X280630D02*Y275591D01*
X284567D01*
Y279528D01*
X280630D01*
G37*
G54D47*X216732Y290354D02*Y288386D01*
X224213Y290354D02*Y288386D01*
G54D46*G36*
X205039Y279528D02*Y275591D01*
X208976D01*
Y279528D01*
X205039D01*
G37*
G36*
X186142D02*Y275591D01*
X190079D01*
Y279528D01*
X186142D01*
G37*
G36*
X110551D02*Y275591D01*
X114488D01*
Y279528D01*
X110551D01*
G37*
G54D47*X122244Y290354D02*Y288386D01*
X129724Y290354D02*Y288386D01*
G54D46*G36*
X138898Y279528D02*Y275591D01*
X142835D01*
Y279528D01*
X138898D01*
G37*
G36*
X157795D02*Y275591D01*
X161732D01*
Y279528D01*
X157795D01*
G37*
G54D47*X169488Y290354D02*Y288386D01*
X176969Y290354D02*Y288386D01*
M02*
