G04 start of page 6 for group -4063 idx -4063 *
G04 Title: Das Blinkinput, componentmask *
G04 Creator: pcb 1.99z *
G04 CreationDate: Thu 04 Jun 2015 03:29:16 PM GMT UTC *
G04 For: eelco *
G04 Format: Gerber/RS-274X *
G04 PCB-Dimensions (mil): 3937.01 3937.01 *
G04 PCB-Coordinate-Origin: lower left *
%MOIN*%
%FSLAX25Y25*%
%LNTOPMASK*%
%ADD44R,0.0472X0.0472*%
%ADD43R,0.0591X0.0591*%
%ADD42R,0.0413X0.0413*%
%ADD41R,0.0453X0.0453*%
%ADD40R,0.0236X0.0236*%
%ADD39C,0.0001*%
%ADD38C,0.0728*%
G54D38*X253937Y246063D03*
X206693D03*
G54D39*G36*
X283760Y254272D02*Y246988D01*
X291043D01*
Y254272D01*
X283760D01*
G37*
G54D38*X116142Y246063D03*
G54D39*G36*
X102657Y224272D02*Y216988D01*
X109941D01*
Y224272D01*
X102657D01*
G37*
G54D38*X106299Y210630D03*
X159449Y244094D03*
X104331Y248031D03*
X287402Y240630D03*
Y230630D03*
Y220630D03*
Y210630D03*
X192913Y204724D03*
Y214567D03*
Y224409D03*
G54D40*X259843Y229035D02*Y223720D01*
X254921Y229035D02*Y223720D01*
X249803Y229035D02*Y223720D01*
X244882Y229035D02*Y223720D01*
X274803Y229035D02*Y223720D01*
X269882Y229035D02*Y223720D01*
X264764Y229035D02*Y223720D01*
X269783Y265551D02*X271949D01*
X259547D02*X261713D01*
X259547Y258071D02*X261713D01*
X244882Y209350D02*Y204035D01*
X249803Y209350D02*Y204035D01*
G54D41*X250591Y265748D02*X253346D01*
X250591Y253937D02*X253346D01*
G54D40*X254921Y209350D02*Y204035D01*
X259843Y209350D02*Y204035D01*
X264764Y209350D02*Y204035D01*
X269882Y209350D02*Y204035D01*
X274803Y209350D02*Y204035D01*
G54D42*X201969Y214370D02*X203543D01*
X201969Y206890D02*X203543D01*
X225591D02*X227165D01*
X225591Y214370D02*X227165D01*
G54D39*G36*
X208268Y208661D02*Y203937D01*
X212992D01*
Y208661D01*
X208268D01*
G37*
G36*
X216142D02*Y203937D01*
X220866D01*
Y208661D01*
X216142D01*
G37*
G54D43*X214370Y219094D02*X214764D01*
G54D42*X182283Y220276D02*X183858D01*
X182283Y212795D02*X183858D01*
G54D41*X235630Y220079D02*X236811D01*
X235630Y212992D02*X236811D01*
X267323Y250591D02*Y249409D01*
X274409Y250591D02*Y249409D01*
G54D40*X269783Y258071D02*X271949D01*
X269783Y261811D02*X271949D01*
G54D39*G36*
X233386Y279528D02*Y275591D01*
X237323D01*
Y279528D01*
X233386D01*
G37*
G54D41*X241535Y265551D02*X242717D01*
X241535Y258465D02*X242717D01*
G54D39*G36*
X252283Y279528D02*Y275591D01*
X256220D01*
Y279528D01*
X252283D01*
G37*
G36*
X280630D02*Y275591D01*
X284567D01*
Y279528D01*
X280630D01*
G37*
G54D41*X222047Y250591D02*Y249409D01*
X205315Y253937D02*X208071D01*
G54D40*X214272Y258071D02*X216437D01*
G54D41*X229134Y250591D02*Y249409D01*
G54D40*X224508Y258071D02*X226673D01*
X224508Y261811D02*X226673D01*
X224508Y265551D02*X226673D01*
G54D39*G36*
X205039Y279528D02*Y275591D01*
X208976D01*
Y279528D01*
X205039D01*
G37*
G54D41*X205315Y265748D02*X208071D01*
G54D40*X214272Y265551D02*X216437D01*
G54D39*G36*
X186142Y279528D02*Y275591D01*
X190079D01*
Y279528D01*
X186142D01*
G37*
G54D40*X104035Y239961D02*X106201D01*
X104035Y236220D02*X106201D01*
X104035Y232480D02*X106201D01*
G54D41*X103740Y265551D02*X104921D01*
X103740Y258465D02*X104921D01*
G54D40*X114272Y232480D02*X116437D01*
X114272Y239961D02*X116437D01*
G54D41*X112795Y265748D02*X115551D01*
X112795Y253937D02*X115551D01*
G54D39*G36*
X110551Y279528D02*Y275591D01*
X114488D01*
Y279528D01*
X110551D01*
G37*
G54D41*X123425Y239764D02*X124606D01*
X123425Y232677D02*X124606D01*
X129528Y250591D02*Y249409D01*
X136614Y250591D02*Y249409D01*
G54D40*X131988Y258071D02*X134154D01*
X131988Y261811D02*X134154D01*
X131988Y265551D02*X134154D01*
X121752D02*X123917D01*
X121752Y258071D02*X123917D01*
G54D42*X172441Y212795D02*X174016D01*
G54D44*X160138Y208661D02*X162697D01*
G54D42*X172441Y220276D02*X174016D01*
G54D44*X160138Y220472D02*X162697D01*
G54D40*X134744D02*X136909D01*
X134744Y216732D02*X136909D01*
X144980Y220472D02*X147146D01*
G54D41*X146063Y207283D02*Y206102D01*
X153150Y207283D02*Y206102D01*
G54D42*X128150Y207480D02*Y205906D01*
X135630Y207480D02*Y205906D01*
G54D40*X134744Y212992D02*X136909D01*
X144980D02*X147146D01*
G54D44*X118799Y220472D02*X121358D01*
X118799Y208661D02*X121358D01*
G54D41*X174803Y250591D02*Y249409D01*
X181890Y250591D02*Y249409D01*
X196260Y265551D02*X197441D01*
X196260Y258465D02*X197441D01*
G54D40*X177264Y258071D02*X179429D01*
X177264Y261811D02*X179429D01*
X177264Y265551D02*X179429D01*
G54D39*G36*
X138898Y279528D02*Y275591D01*
X142835D01*
Y279528D01*
X138898D01*
G37*
G36*
X157795D02*Y275591D01*
X161732D01*
Y279528D01*
X157795D01*
G37*
G54D41*X158071Y265748D02*X160827D01*
G54D40*X167028Y265551D02*X169193D01*
G54D41*X158071Y253937D02*X160827D01*
G54D40*X167028Y258071D02*X169193D01*
G54D41*X149016Y265551D02*X150197D01*
X149016Y258465D02*X150197D01*
M02*
