G04 start of page 3 for group 3 idx 2 *
G04 Title: Current - Sink or Swim, bottom-power *
G04 Creator: pcb 1.99z *
G04 CreationDate: Tue 14 Apr 2015 12:04:08 AM GMT UTC *
G04 For: eelco *
G04 Format: Gerber/RS-274X *
G04 PCB-Dimensions (mil): 3937.01 3937.01 *
G04 PCB-Coordinate-Origin: lower left *
%MOIN*%
%FSLAX25Y25*%
%LNBOTTOM*%
%ADD50C,0.1063*%
%ADD49C,0.0433*%
%ADD48C,0.0472*%
%ADD47C,0.1000*%
%ADD46C,0.1339*%
%ADD45C,0.0157*%
%ADD44C,0.0315*%
%ADD43R,0.0472X0.0472*%
%ADD42R,0.0236X0.0236*%
%ADD41R,0.0413X0.0413*%
%ADD40R,0.0453X0.0453*%
%ADD39R,0.0197X0.0197*%
%ADD38R,0.0512X0.0512*%
%ADD37C,0.1575*%
%ADD36C,0.0709*%
%ADD35C,0.0827*%
%ADD34C,0.0001*%
%ADD33C,0.0669*%
%ADD32C,0.1600*%
%ADD31C,0.0787*%
%ADD30C,0.0394*%
%ADD29C,0.0197*%
%ADD28C,0.0098*%
G54D28*X234252Y246063D02*Y283465D01*
X229783Y234783D02*X226378Y238189D01*
X234783Y239626D02*X228346Y246063D01*
Y259646D02*Y275591D01*
X220472Y228346D02*X218996Y226870D01*
X212106D01*
X253937Y224409D02*X246063D01*
X234252Y246063D02*X246063Y234252D01*
Y239626D02*X251988Y233701D01*
X287500D01*
X240157Y259646D02*Y275591D01*
X156398Y226181D02*X145669D01*
X178445D02*X166437D01*
X179134Y226870D02*X178445Y226181D01*
X159449Y250000D02*X163386Y246063D01*
X212106Y226870D02*X204921Y234055D01*
X163386Y246063D02*X228346D01*
X214567Y233760D02*Y238189D01*
X204921Y234055D02*X202756D01*
X226378Y238189D02*X198819D01*
X190945Y234055D02*Y242126D01*
X159449Y283465D02*Y250000D01*
X153543Y259646D02*Y275591D01*
X165354Y259646D02*Y275591D01*
X188976Y267717D02*X194882Y273622D01*
X196850D02*X214567Y291339D01*
X188976Y267717D02*Y255906D01*
X190945Y253937D01*
X153543Y275591D02*X149606Y279528D01*
Y283465D01*
X165354Y275591D02*X169291Y279528D01*
Y283465D01*
X214567Y291339D02*X285433D01*
X291339Y285433D01*
Y247539D01*
X287500Y243701D01*
X228346Y275591D02*X224409Y279528D01*
Y283465D01*
X240157Y275591D02*X244094Y279528D01*
Y283465D01*
Y173228D02*Y169291D01*
Y173228D02*X232283Y185039D01*
X244094Y169291D02*X250000D01*
X220472Y191437D02*X222933D01*
X232283Y185039D02*Y191142D01*
X187008Y185039D02*Y169291D01*
X196850Y161417D02*X255217D01*
X287500Y193701D01*
X250000Y169291D02*X279528Y198819D01*
X234783Y230217D02*Y239626D01*
X229783Y230217D02*Y234783D01*
X224783Y230217D02*X222913Y228346D01*
X220472D01*
X246063Y214567D02*Y234252D01*
X224783Y214941D02*X226378Y216535D01*
X240157D01*
X242126Y218504D01*
X253937Y224409D02*X264646Y213701D01*
X287500D01*
X279528Y218504D02*X284724Y223701D01*
X287500D01*
X226378Y202756D02*X210630D01*
X208661Y200787D01*
Y198622D01*
X220472Y198327D02*Y202756D01*
X222933Y191437D02*X230118Y198622D01*
X208661Y191142D02*X202953D01*
X201969Y190157D01*
X192126D01*
X187008Y185039D01*
X198819Y238189D02*X196850Y236220D01*
Y228346D01*
X195079Y226575D01*
X190945D01*
X202756Y214567D02*Y226575D01*
X196850Y199606D02*Y204724D01*
X198819Y206693D01*
X202756D01*
X239882Y210630D02*X242126D01*
X239783Y210728D02*X239882Y210630D01*
X229783Y210728D02*Y206161D01*
X226378Y202756D01*
X230118Y198622D02*X232283D01*
X234783Y210728D02*Y205256D01*
X232087Y202559D01*
Y198622D01*
X242126Y210630D02*X246063Y214567D01*
X224783Y210728D02*Y214941D01*
X250000Y218504D02*X264803Y203701D01*
X287500D01*
X156398Y218701D02*X145669D01*
G54D29*X179134Y200787D02*Y206890D01*
X168209Y200886D02*Y208661D01*
X168307Y200787D02*X168209Y200886D01*
X194882Y210728D02*X186909Y218701D01*
X166437D01*
X156398D02*Y208661D01*
G54D30*X165354Y188976D02*X156594Y197736D01*
Y208661D01*
X196850Y108110D02*X159606D01*
X165354Y139764D02*Y188976D01*
X187008Y118110D02*X165354Y139764D01*
X196850Y118110D02*X187008D01*
X155512Y112205D02*Y118110D01*
X159606Y108110D02*X155512Y112205D01*
G54D31*X240157Y169291D02*X206850D01*
X196850Y157480D02*Y169291D01*
X224409Y129921D02*X196850Y157480D01*
X224409Y118110D02*Y129921D01*
G54D30*X202598Y128110D02*X196850D01*
X212598Y118110D02*X202598Y128110D01*
X224409Y118110D02*X212598D01*
G54D31*X238189Y143701D02*Y118110D01*
G54D29*X223425Y217520D02*X214567D01*
X226378Y220472D02*X223425Y217520D01*
X238189Y220472D02*X226378D01*
X239783Y222067D02*X238189Y220472D01*
X239783Y230217D02*Y222067D01*
G54D28*X240354Y251969D02*X240157Y252165D01*
X248031Y251969D02*X240354D01*
X228346Y252165D02*X228150Y251969D01*
X196850D01*
G54D29*X224783Y210728D02*X194882D01*
X168799Y233760D02*X167323Y232283D01*
G54D28*X153543Y248031D02*X159449Y242126D01*
X153543Y248031D02*Y252165D01*
X165354D02*X173228D01*
X185039Y242126D02*X159449D01*
G54D29*X163386Y232283D02*X167323D01*
G54D28*X196850Y263780D02*Y251969D01*
X194882Y250000D01*
X185039D01*
G54D29*X179134Y233760D02*X168799D01*
G54D28*X185039Y242126D02*Y218701D01*
G54D29*X161417Y222441D02*X156398D01*
X161417D02*Y230315D01*
X163386Y232283D01*
G54D32*X146850Y187008D03*
X246850D03*
G54D33*X287500Y193701D03*
Y183701D03*
G54D34*G36*
X193504Y111457D02*Y104764D01*
X200197D01*
Y111457D01*
X193504D01*
G37*
G36*
X182717Y173425D02*Y165157D01*
X190984D01*
Y173425D01*
X182717D01*
G37*
G54D35*X196850Y169291D03*
X206850D03*
G54D33*X196850Y118110D03*
Y128110D03*
G54D34*G36*
X151969Y121654D02*Y114567D01*
X159055D01*
Y121654D01*
X151969D01*
G37*
G54D36*X169291Y118110D03*
G54D34*G36*
X220866Y121654D02*Y114567D01*
X227953D01*
Y121654D01*
X220866D01*
G37*
G54D36*X238189Y118110D03*
G54D34*G36*
X165354Y287402D02*Y279528D01*
X173228D01*
Y287402D01*
X165354D01*
G37*
G54D31*X159449Y283465D03*
G54D33*X196850Y283622D03*
G54D31*X149606Y283465D03*
G54D37*X176772Y270472D03*
G54D34*G36*
X193504Y266969D02*Y260276D01*
X200197D01*
Y266969D01*
X193504D01*
G37*
G54D33*X196850Y273622D03*
G54D37*X142126Y270472D03*
G54D34*G36*
X240157Y287402D02*Y279528D01*
X248031D01*
Y287402D01*
X240157D01*
G37*
G54D31*X234252Y283465D03*
X224409D03*
G54D37*X216929Y270472D03*
X251575D03*
G54D33*X287500Y233701D03*
Y243701D03*
Y213701D03*
Y223701D03*
Y203701D03*
G54D38*X233858Y169488D02*X242520D01*
X233858Y145472D02*X242520D01*
G54D39*X196850Y191240D02*Y189075D01*
G54D40*X219882Y191437D02*X221063D01*
G54D41*X231496Y191142D02*X233071D01*
X207874D02*X209449D01*
X152756Y252165D02*X154331D01*
X152756Y259646D02*X154331D01*
X164567D02*X166142D01*
X164567Y252165D02*X166142D01*
G54D42*X155315Y218701D02*X157480D01*
X155315Y222441D02*X157480D01*
X155315Y226181D02*X157480D01*
G54D41*X144882Y218701D02*X146457D01*
X144882Y226181D02*X146457D01*
G54D42*X165354D02*X167520D01*
X165354Y218701D02*X167520D01*
G54D43*X156594Y209941D02*Y207382D01*
X168209Y209941D02*Y207382D01*
G54D39*X196850Y200689D02*Y198524D01*
G54D43*X177854Y206890D02*X180413D01*
G54D40*X213976Y210630D02*X215157D01*
G54D41*X207874Y198622D02*X209449D01*
X190157Y226575D02*X191732D01*
X201969D02*X203543D01*
G54D43*X177854Y218504D02*X180413D01*
G54D40*X178543Y226870D02*X179724D01*
X213976Y217520D02*X215157D01*
X213976Y226870D02*X215157D01*
G54D41*X190157Y234055D02*X191732D01*
X201969D02*X203543D01*
G54D40*X178543Y233760D02*X179724D01*
G54D41*X227559Y252165D02*X229134D01*
X227559Y259646D02*X229134D01*
X239370D02*X240945D01*
X239370Y252165D02*X240945D01*
G54D40*X219882Y198327D02*X221063D01*
G54D41*X231496Y198622D02*X233071D01*
G54D42*X239783Y213386D02*Y208071D01*
X234783Y213386D02*Y208071D01*
X229783Y213386D02*Y208071D01*
X224783Y213386D02*Y208071D01*
G54D40*X213976Y233760D02*X215157D01*
G54D42*X224783Y232874D02*Y227559D01*
X229783Y232874D02*Y227559D01*
X234783Y232874D02*Y227559D01*
X239783Y232874D02*Y227559D01*
G54D44*X190945Y253937D03*
X185039Y250000D03*
X190945Y242126D03*
X185039D03*
X173228Y252165D03*
G54D30*X167323Y232283D03*
G54D44*X248031Y251969D03*
X234783Y239626D03*
X246063D03*
X202756Y214567D03*
Y206693D03*
G54D30*X179134Y200787D03*
X168307D03*
G54D44*X250000Y218504D03*
X279528D03*
Y198819D03*
X242126Y218504D03*
G54D30*X232283Y220472D03*
G54D45*G54D29*G54D45*G54D29*G54D45*G54D29*G54D46*G54D47*G54D30*G54D48*G54D30*G54D49*G54D48*G54D30*G54D48*G54D50*G54D30*G54D50*G54D46*G54D48*G54D50*G54D46*G54D30*M02*
