G04 start of page 8 for group -4062 idx -4062 *
G04 Title: Current - Sink or Swim, soldermask *
G04 Creator: pcb 1.99z *
G04 CreationDate: Tue 14 Apr 2015 12:04:08 AM GMT UTC *
G04 For: eelco *
G04 Format: Gerber/RS-274X *
G04 PCB-Dimensions (mil): 3937.01 3937.01 *
G04 PCB-Coordinate-Origin: lower left *
%MOIN*%
%FSLAX25Y25*%
%LNBOTTOMMASK*%
%ADD81R,0.0472X0.0472*%
%ADD80R,0.0236X0.0236*%
%ADD79R,0.0413X0.0413*%
%ADD78R,0.0453X0.0453*%
%ADD77R,0.0197X0.0197*%
%ADD76R,0.0512X0.0512*%
%ADD75C,0.1634*%
%ADD74C,0.0846*%
%ADD73C,0.0768*%
%ADD72C,0.0886*%
%ADD71C,0.0001*%
%ADD70C,0.0728*%
%ADD69C,0.1800*%
%ADD68C,0.1398*%
G54D68*X275591Y118110D03*
X118110D03*
G54D69*X146850Y187008D03*
X246850D03*
G54D70*X287500Y193701D03*
Y183701D03*
G54D71*G36*
X193209Y111752D02*Y104469D01*
X200492D01*
Y111752D01*
X193209D01*
G37*
G36*
X182421Y173720D02*Y164862D01*
X191280D01*
Y173720D01*
X182421D01*
G37*
G54D72*X196850Y169291D03*
X206850D03*
G54D70*X196850Y118110D03*
Y128110D03*
G54D71*G36*
X151673Y121949D02*Y114272D01*
X159350D01*
Y121949D01*
X151673D01*
G37*
G54D73*X169291Y118110D03*
G54D71*G36*
X220571Y121949D02*Y114272D01*
X228248D01*
Y121949D01*
X220571D01*
G37*
G54D73*X238189Y118110D03*
G54D71*G36*
X165059Y287697D02*Y279232D01*
X173524D01*
Y287697D01*
X165059D01*
G37*
G54D74*X159449Y283465D03*
G54D70*X196850Y283622D03*
G54D74*X149606Y283465D03*
G54D75*X176772Y270472D03*
G54D71*G36*
X193209Y267264D02*Y259980D01*
X200492D01*
Y267264D01*
X193209D01*
G37*
G54D70*X196850Y273622D03*
G54D75*X142126Y270472D03*
G54D68*X118110Y275591D03*
G54D71*G36*
X239862Y287697D02*Y279232D01*
X248327D01*
Y287697D01*
X239862D01*
G37*
G54D74*X234252Y283465D03*
X224409D03*
G54D75*X216929Y270472D03*
X251575D03*
G54D68*X275591Y275591D03*
G54D70*X287500Y233701D03*
Y243701D03*
Y213701D03*
Y223701D03*
Y203701D03*
G54D76*X233858Y169488D02*X242520D01*
X233858Y145472D02*X242520D01*
G54D77*X196850Y191240D02*Y189075D01*
G54D78*X219882Y191437D02*X221063D01*
G54D79*X231496Y191142D02*X233071D01*
X207874D02*X209449D01*
X152756Y252165D02*X154331D01*
X152756Y259646D02*X154331D01*
X164567D02*X166142D01*
X164567Y252165D02*X166142D01*
G54D80*X155315Y218701D02*X157480D01*
X155315Y222441D02*X157480D01*
X155315Y226181D02*X157480D01*
G54D79*X144882Y218701D02*X146457D01*
X144882Y226181D02*X146457D01*
G54D80*X165354D02*X167520D01*
X165354Y218701D02*X167520D01*
G54D81*X156594Y209941D02*Y207382D01*
X168209Y209941D02*Y207382D01*
G54D77*X196850Y200689D02*Y198524D01*
G54D81*X177854Y206890D02*X180413D01*
G54D78*X213976Y210630D02*X215157D01*
G54D79*X207874Y198622D02*X209449D01*
X190157Y226575D02*X191732D01*
X201969D02*X203543D01*
G54D81*X177854Y218504D02*X180413D01*
G54D78*X178543Y226870D02*X179724D01*
X213976Y217520D02*X215157D01*
X213976Y226870D02*X215157D01*
G54D79*X190157Y234055D02*X191732D01*
X201969D02*X203543D01*
G54D78*X178543Y233760D02*X179724D01*
G54D79*X227559Y252165D02*X229134D01*
X227559Y259646D02*X229134D01*
X239370D02*X240945D01*
X239370Y252165D02*X240945D01*
G54D78*X219882Y198327D02*X221063D01*
G54D79*X231496Y198622D02*X233071D01*
G54D80*X239783Y213386D02*Y208071D01*
X234783Y213386D02*Y208071D01*
X229783Y213386D02*Y208071D01*
X224783Y213386D02*Y208071D01*
G54D78*X213976Y233760D02*X215157D01*
G54D80*X224783Y232874D02*Y227559D01*
X229783Y232874D02*Y227559D01*
X234783Y232874D02*Y227559D01*
X239783Y232874D02*Y227559D01*
M02*
