M48
INCH,TZ
T10C0.100
T11C0.039
T12C0.047
T13C0.043
T14C0.106
T15C0.016
T16C0.020
T17C0.134
%
T10
X014685Y018701
X024685Y018701
T11
X019685Y028362
X019685Y027362
X019685Y026362
X019685Y012811
X019685Y011811
X019685Y010811
X028750Y024370
X028750Y023370
X028750Y022370
X028750Y021370
X028750Y020370
X028750Y019370
X028750Y018370
T12
X014961Y028346
X015945Y028346
X016929Y028346
X018685Y016929
X019685Y016929
X020685Y016929
X022441Y028346
X023425Y028346
X024409Y028346
T13
X015551Y011811
X016929Y011811
X022441Y011811
X023819Y011811
T14
X014213Y027047
X017677Y027047
X021693Y027047
X025157Y027047
T15
X017323Y025217
X018504Y025000
X018504Y024213
X019094Y025394
X019094Y024213
X020276Y021457
X020276Y020669
X023478Y023963
X024213Y021850
X024606Y023963
X024803Y025197
X025000Y021850
X027953Y021850
X027953Y019882
T16
X016732Y023228
X016831Y020079
X017913Y020079
X023228Y022047
T17
X011811Y027559
X011811Y011811
X027559Y027559
X027559Y011811
M30

