G04 start of page 4 for group 4 idx 6 *
G04 Title: Das Blinkinput, outline *
G04 Creator: pcb 1.99z *
G04 CreationDate: Thu 04 Jun 2015 03:29:16 PM GMT UTC *
G04 For: eelco *
G04 Format: Gerber/RS-274X *
G04 PCB-Dimensions (mil): 3937.01 3937.01 *
G04 PCB-Coordinate-Origin: lower left *
%MOIN*%
%FSLAX25Y25*%
%LNOUTLINE*%
%ADD34C,0.0079*%
%ADD33C,0.0098*%
%ADD32C,0.0197*%
G54D32*X295276Y196850D02*X98425D01*
Y295276D02*X295276D01*
G54D33*X179134Y281496D02*Y273622D01*
X169291Y271654D02*X177165D01*
X216535D02*X224409D01*
X122047Y283465D02*X129921D01*
X120079Y281496D02*Y273622D01*
X122047Y271654D02*X129921D01*
X169291Y283465D02*X177165D01*
X131890Y281496D02*Y273622D01*
X167323Y281496D02*Y273622D01*
G54D32*X98425Y196850D02*Y295276D01*
G54D33*X263780Y271654D02*X271654D01*
X214567Y281496D02*Y273622D01*
X216535Y283465D02*X224409D01*
X226378Y281496D02*Y273622D01*
X261811Y281496D02*Y273622D01*
X263780Y283465D02*X271654D01*
X273622Y281496D02*Y273622D01*
G54D32*X295276Y295276D02*Y196850D01*
G54D33*X271654Y271654D02*G75*G03X273622Y273622I0J1969D01*G01*
Y281496D02*G75*G03X271654Y283465I-1969J0D01*G01*
X263780D02*G75*G03X261811Y281496I0J-1969D01*G01*
Y273622D02*G75*G03X263780Y271654I1969J0D01*G01*
X179134Y281496D02*G75*G03X177165Y283465I-1969J0D01*G01*
X224409Y271654D02*G75*G03X226378Y273622I0J1969D01*G01*
Y281496D02*G75*G03X224409Y283465I-1969J0D01*G01*
X216535D02*G75*G03X214567Y281496I0J-1969D01*G01*
Y273622D02*G75*G03X216535Y271654I1969J0D01*G01*
X177165D02*G75*G03X179134Y273622I0J1969D01*G01*
X169291Y283465D02*G75*G03X167323Y281496I0J-1969D01*G01*
Y273622D02*G75*G03X169291Y271654I1969J0D01*G01*
X129921D02*G75*G03X131890Y273622I0J1969D01*G01*
X120079D02*G75*G03X122047Y271654I1969J0D01*G01*
X131890Y281496D02*G75*G03X129921Y283465I-1969J0D01*G01*
X122047D02*G75*G03X120079Y281496I0J-1969D01*G01*
G54D34*X216842Y278268D02*X218142D01*
X216142Y278968D02*X216842Y278268D01*
X216142Y281568D02*Y278968D01*
Y281568D02*X216842Y282268D01*
X218142D01*
X219342D02*Y278768D01*
X219842Y278268D01*
X220842D01*
X221342Y278768D01*
Y282268D02*Y278768D01*
X222542Y282268D02*X224542D01*
X223542D02*Y278268D01*
X216142Y276453D02*Y273453D01*
Y276453D02*X216642Y276953D01*
X217642D01*
X218142Y276453D01*
Y273453D01*
X217642Y272953D02*X218142Y273453D01*
X216642Y272953D02*X217642D01*
X216142Y273453D02*X216642Y272953D01*
X219342Y276953D02*Y273453D01*
X219842Y272953D01*
X220842D01*
X221342Y273453D01*
Y276953D02*Y273453D01*
X222542Y276953D02*X224542D01*
X223542D02*Y272953D01*
X264086Y278268D02*X265386D01*
X263386Y278968D02*X264086Y278268D01*
X263386Y281568D02*Y278968D01*
Y281568D02*X264086Y282268D01*
X265386D01*
X266586D02*Y278768D01*
X267086Y278268D01*
X268086D01*
X268586Y278768D01*
Y282268D02*Y278768D01*
X269786Y282268D02*X271786D01*
X270786D02*Y278268D01*
X263386Y276453D02*Y273453D01*
Y276453D02*X263886Y276953D01*
X264886D01*
X265386Y276453D01*
Y273453D01*
X264886Y272953D02*X265386Y273453D01*
X263886Y272953D02*X264886D01*
X263386Y273453D02*X263886Y272953D01*
X266586Y276953D02*Y273453D01*
X267086Y272953D01*
X268086D01*
X268586Y273453D01*
Y276953D02*Y273453D01*
X269786Y276953D02*X271786D01*
X270786D02*Y272953D01*
X122354Y278268D02*X123654D01*
X121654Y278968D02*X122354Y278268D01*
X121654Y281568D02*Y278968D01*
Y281568D02*X122354Y282268D01*
X123654D01*
X124854D02*Y278768D01*
X125354Y278268D01*
X126354D01*
X126854Y278768D01*
Y282268D02*Y278768D01*
X128054Y282268D02*X130054D01*
X129054D02*Y278268D01*
X121654Y276453D02*Y273453D01*
Y276453D02*X122154Y276953D01*
X123154D01*
X123654Y276453D01*
Y273453D01*
X123154Y272953D02*X123654Y273453D01*
X122154Y272953D02*X123154D01*
X121654Y273453D02*X122154Y272953D01*
X124854Y276953D02*Y273453D01*
X125354Y272953D01*
X126354D01*
X126854Y273453D01*
Y276953D02*Y273453D01*
X128054Y276953D02*X130054D01*
X129054D02*Y272953D01*
X169598Y278268D02*X170898D01*
X168898Y278968D02*X169598Y278268D01*
X168898Y281568D02*Y278968D01*
Y281568D02*X169598Y282268D01*
X170898D01*
X172098D02*Y278768D01*
X172598Y278268D01*
X173598D01*
X174098Y278768D01*
Y282268D02*Y278768D01*
X175298Y282268D02*X177298D01*
X176298D02*Y278268D01*
X168898Y276453D02*Y273453D01*
Y276453D02*X169398Y276953D01*
X170398D01*
X170898Y276453D01*
Y273453D01*
X170398Y272953D02*X170898Y273453D01*
X169398Y272953D02*X170398D01*
X168898Y273453D02*X169398Y272953D01*
X172098Y276953D02*Y273453D01*
X172598Y272953D01*
X173598D01*
X174098Y273453D01*
Y276953D02*Y273453D01*
X175298Y276953D02*X177298D01*
X176298D02*Y272953D01*
M02*
