G04 start of page 9 for group -4078 idx -4078 *
G04 Title: Das Blinkinput, bottomsilk *
G04 Creator: pcb 1.99z *
G04 CreationDate: Thu 04 Jun 2015 03:29:16 PM GMT UTC *
G04 For: eelco *
G04 Format: Gerber/RS-274X *
G04 PCB-Dimensions (mil): 3937.01 3937.01 *
G04 PCB-Coordinate-Origin: lower left *
%MOIN*%
%FSLAX25Y25*%
%LNBOTTOMSILK*%
%ADD56C,0.0157*%
%ADD55C,0.0081*%
%ADD54C,0.0079*%
%ADD53C,0.0090*%
%ADD52C,0.0098*%
G54D52*X153543Y224409D02*X149606D01*
X153543Y212598D02*X137795D01*
X153543Y200787D02*X149606D01*
X118110Y224409D02*X122047D01*
X118110Y212598D02*X133858D01*
X118110Y200787D02*X122047D01*
X218110Y259843D02*X216535Y251969D01*
X218110Y259843D02*X218898D01*
X214567Y251969D02*X212598D01*
Y259843D02*X210630D01*
X202756Y251969D02*Y263780D01*
X199213D01*
Y259055D02*X202756D01*
X200000Y251969D02*X202756D01*
X218898Y259843D02*X220472Y251969D01*
X219488Y255906D02*X217520D01*
X230315Y263780D02*Y251969D01*
Y263780D02*X228346D01*
Y251969D02*X230315D01*
X192913Y259843D02*Y251969D01*
X187008Y259843D02*Y251969D01*
X192913D02*X188976D01*
X185039D02*Y259843D01*
X181102Y251969D01*
Y259843D01*
X179134D02*Y251969D01*
Y255906D02*X175197Y259843D01*
X179134Y255906D02*X175197Y251969D01*
X173228Y259843D02*Y251969D01*
X171260D02*Y259843D01*
X167323Y251969D01*
Y259843D01*
X165354Y251969D02*Y259843D01*
X163386D01*
Y255906D02*X165354D01*
X159449Y259843D02*Y253937D01*
X155512D02*Y259843D01*
X153543D02*X149606D01*
X151575D02*Y251969D01*
X149606Y224409D02*G75*G03X137795Y212598I0J-11811D01*G01*
G75*G03X149606Y200787I11811J0D01*G01*
X122047Y224409D02*G75*G02X133858Y212598I0J-11811D01*G01*
G75*G02X122047Y200787I-11811J0D01*G01*
X163386Y259843D02*G75*G03X161417Y257874I0J-1969D01*G01*
G75*G03X163386Y255906I1969J0D01*G01*
X157480Y251969D02*G75*G03X159449Y253937I0J1969D01*G01*
X157480Y251969D02*G75*G02X155512Y253937I0J1969D01*G01*
X212598Y251969D02*G75*G02X210630Y253937I0J1969D01*G01*
G75*G02X212598Y255906I1969J0D01*G01*
G75*G03X214567Y257874I0J1969D01*G01*
X212598Y259843D02*G75*G02X214567Y257874I0J-1969D01*G01*
X228346Y263780D02*G75*G03X222441Y257874I0J-5906D01*G01*
G75*G03X228346Y251969I5906J0D01*G01*
X199213Y263780D02*G75*G03X196850Y261417I0J-2362D01*G01*
G75*G03X199213Y259055I2362J0D01*G01*
G75*G03X196063Y255906I0J-3150D01*G01*
G75*G03X200000Y251969I3937J0D01*G01*
G54D53*X278543Y238346D02*Y238526D01*
G54D54*Y233126D02*Y235826D01*
X273143Y233126D02*X275843D01*
X273143D02*X272243Y234026D01*
X273143Y234926D02*X272243Y234026D01*
X273143Y234926D02*X275843D01*
X276743Y235826D02*X275843Y234926D01*
X276743Y235826D02*X275843Y236726D01*
X273143D02*X275843D01*
X273143D02*X272243Y235826D01*
X276743Y234026D02*X275843Y233126D01*
X269183Y234026D02*Y240326D01*
Y234026D02*X268283Y233126D01*
Y237626D02*X270083D01*
X259643Y233126D02*Y240326D01*
X260543Y233126D02*X259643Y234026D01*
X260543Y233126D02*X262343D01*
X263243Y234026D02*X262343Y233126D01*
X263243Y234026D02*Y235826D01*
X262343Y236726D01*
X260543D02*X262343D01*
X260543D02*X259643Y235826D01*
X253883Y233126D02*X256583D01*
X257483Y234026D02*X256583Y233126D01*
X257483Y234026D02*Y235826D01*
X256583Y236726D01*
X254783D02*X256583D01*
X254783D02*X253883Y235826D01*
Y234926D02*X257483D01*
X253883D02*Y235826D01*
X250823Y233126D02*Y235826D01*
X249923Y236726D01*
X249023D02*X249923D01*
X249023D02*X248123Y235826D01*
Y233126D02*Y235826D01*
X247223Y236726D01*
X246323D02*X247223D01*
X246323D02*X245423Y235826D01*
Y233126D02*Y235826D01*
X251723Y236726D02*X250823Y235826D01*
X236423Y240326D02*X240023D01*
X236423D02*X235523Y239426D01*
Y237626D02*Y239426D01*
X236423Y236726D02*X235523Y237626D01*
X236423Y236726D02*X239123D01*
Y233126D02*Y240326D01*
X237683Y236726D02*X235523Y233126D01*
X229763D02*X232463D01*
X233363Y234026D02*X232463Y233126D01*
X233363Y234026D02*Y235826D01*
X232463Y236726D01*
X230663D02*X232463D01*
X230663D02*X229763Y235826D01*
Y234926D02*X233363D01*
X229763D02*Y235826D01*
X224003Y236726D02*X226703D01*
X227603Y235826D02*X226703Y236726D01*
X227603Y234026D02*Y235826D01*
Y234026D02*X226703Y233126D01*
X224003D02*X226703D01*
X221843D02*Y240326D01*
Y235826D02*X220943Y236726D01*
X219143D02*X220943D01*
X219143D02*X218243Y235826D01*
Y233126D02*Y235826D01*
X215183Y234026D02*Y240326D01*
Y234026D02*X214283Y233126D01*
Y237626D02*X216083D01*
X208883Y233126D02*X211583D01*
X208883D02*X207983Y234026D01*
X208883Y234926D02*X207983Y234026D01*
X208883Y234926D02*X211583D01*
X212483Y235826D02*X211583Y234926D01*
X212483Y235826D02*X211583Y236726D01*
X208883D02*X211583D01*
X208883D02*X207983Y235826D01*
X212483Y234026D02*X211583Y233126D01*
X202223Y236726D02*X204923D01*
X205823Y235826D02*X204923Y236726D01*
X205823Y234026D02*Y235826D01*
Y234026D02*X204923Y233126D01*
X202223D02*X204923D01*
X200063D02*Y240326D01*
Y235826D02*X199163Y236726D01*
X197363D02*X199163D01*
X197363D02*X196463Y235826D01*
Y233126D02*Y235826D01*
X193403Y233126D02*Y235826D01*
X192503Y236726D01*
X190703D02*X192503D01*
X194303D02*X193403Y235826D01*
X184943Y233126D02*X187643D01*
X188543Y234026D02*X187643Y233126D01*
X188543Y234026D02*Y235826D01*
X187643Y236726D01*
X185843D02*X187643D01*
X185843D02*X184943Y235826D01*
Y234926D02*X188543D01*
X184943D02*Y235826D01*
G54D53*X182783Y238346D02*Y238526D01*
G54D54*Y233126D02*Y235826D01*
X180983Y233126D02*Y240326D01*
Y234026D02*X180083Y233126D01*
X178283D02*X180083D01*
X178283D02*X177383Y234026D01*
Y235826D01*
X178283Y236726D02*X177383Y235826D01*
X178283Y236726D02*X180083D01*
X180983Y235826D02*X180083Y236726D01*
X175223Y234026D02*Y236726D01*
Y234026D02*X174323Y233126D01*
X172523D02*X174323D01*
X172523D02*X171623Y234026D01*
Y236726D01*
X168563Y233126D02*Y235826D01*
X167663Y236726D01*
X166763D02*X167663D01*
X166763D02*X165863Y235826D01*
Y233126D02*Y235826D01*
X169463Y236726D02*X168563Y235826D01*
X161003Y236726D02*X160103Y235826D01*
X161003Y236726D02*X162803D01*
X163703Y235826D02*X162803Y236726D01*
X163703Y234026D02*Y235826D01*
Y234026D02*X162803Y233126D01*
X161003D02*X162803D01*
X161003D02*X160103Y234026D01*
X163703Y231326D02*X162803Y230426D01*
X161003D02*X162803D01*
X161003D02*X160103Y231326D01*
Y236726D01*
X151103Y233126D02*X153803D01*
X151103D02*X150203Y234026D01*
X151103Y234926D02*X150203Y234026D01*
X151103Y234926D02*X153803D01*
X154703Y235826D02*X153803Y234926D01*
X154703Y235826D02*X153803Y236726D01*
X151103D02*X153803D01*
X151103D02*X150203Y235826D01*
X154703Y234026D02*X153803Y233126D01*
X144443D02*X147143D01*
X148043Y234026D02*X147143Y233126D01*
X148043Y234026D02*Y235826D01*
X147143Y236726D01*
X145343D02*X147143D01*
X145343D02*X144443Y235826D01*
Y234926D02*X148043D01*
X144443D02*Y235826D01*
G54D53*X142283Y238346D02*Y238526D01*
G54D54*Y233126D02*Y235826D01*
X139583Y233126D02*Y235826D01*
X138683Y236726D01*
X137783D02*X138683D01*
X137783D02*X136883Y235826D01*
Y233126D02*Y235826D01*
X140483Y236726D02*X139583Y235826D01*
X131123Y233126D02*X133823D01*
X134723Y234026D02*X133823Y233126D01*
X134723Y234026D02*Y235826D01*
X133823Y236726D01*
X132023D02*X133823D01*
X132023D02*X131123Y235826D01*
Y234926D02*X134723D01*
X131123D02*Y235826D01*
X122123Y240326D02*X125723D01*
X123923Y233126D02*Y240326D01*
X119963Y234026D02*Y235826D01*
X119063Y236726D01*
X117263D02*X119063D01*
X117263D02*X116363Y235826D01*
Y234026D02*Y235826D01*
X117263Y233126D02*X116363Y234026D01*
X117263Y233126D02*X119063D01*
X119963Y234026D02*X119063Y233126D01*
X110603D02*Y240326D01*
X111503Y233126D02*X110603Y234026D01*
X111503Y233126D02*X113303D01*
X114203Y234026D02*X113303Y233126D01*
X114203Y234026D02*Y235826D01*
X113303Y236726D01*
X111503D02*X113303D01*
X111503D02*X110603Y235826D01*
X185008Y224362D02*X187008D01*
X186008Y223362D02*Y225362D01*
X183808Y225862D02*X183308Y226362D01*
X182308D02*X183308D01*
X182308D02*X181808Y225862D01*
X182308Y222362D02*X181808Y222862D01*
X182308Y222362D02*X183308D01*
X183808Y222862D02*X183308Y222362D01*
X182308Y224562D02*X183308D01*
X181808Y225062D02*Y225862D01*
Y222862D02*Y224062D01*
X182308Y224562D01*
X181808Y225062D02*X182308Y224562D01*
X180608Y226362D02*X179608Y222362D01*
X178608Y226362D01*
X185008Y216520D02*X184508Y216020D01*
X185008Y216520D02*X186508D01*
X187008Y216020D02*X186508Y216520D01*
X187008Y213020D02*Y216020D01*
Y213020D02*X186508Y212520D01*
X185008D02*X186508D01*
X185008D02*X184508Y213020D01*
Y214020D01*
X185008Y214520D02*X184508Y214020D01*
X185008Y214520D02*X186008D01*
X183308Y212520D02*Y216520D01*
X180808Y212520D01*
Y216520D01*
X179108Y212520D02*Y216520D01*
X177808D02*X177108Y215820D01*
Y213220D02*Y215820D01*
X177808Y212520D02*X177108Y213220D01*
X177808Y212520D02*X179608D01*
X177808Y216520D02*X179608D01*
X187008Y206677D02*X186008Y202677D01*
X185008Y206677D01*
X181808D02*X183808D01*
X181808D02*X181308Y206177D01*
Y205177D02*Y206177D01*
X181808Y204677D02*X181308Y205177D01*
X181808Y204677D02*X183308D01*
Y202677D02*Y206677D01*
X182508Y204677D02*X181308Y202677D01*
X178608Y204877D02*X180108D01*
X178108Y202677D02*X180108D01*
Y206677D01*
X178108D02*X180108D01*
X176908Y202677D02*Y206677D01*
X174908D02*X176908D01*
X175408Y204877D02*X176908D01*
X277708Y215922D02*X278891D01*
X279528Y216559D02*X278891Y215922D01*
X279528Y216559D02*Y218925D01*
X278891Y219562D01*
X277708D02*X278891D01*
X276616Y216377D02*Y217287D01*
X276161Y217742D01*
X275251D02*X276161D01*
X275251D02*X274796Y217287D01*
Y216377D02*Y217287D01*
X275251Y215922D02*X274796Y216377D01*
X275251Y215922D02*X276161D01*
X276616Y216377D02*X276161Y215922D01*
X273249D02*Y217287D01*
X272794Y217742D01*
X272339D02*X272794D01*
X272339D02*X271884Y217287D01*
Y215922D02*Y217287D01*
X273704Y217742D02*X273249Y217287D01*
X270337Y216377D02*Y219562D01*
Y216377D02*X269882Y215922D01*
Y218197D02*X270792D01*
X267152Y215922D02*X268517D01*
X268972Y216377D02*X268517Y215922D01*
X268972Y216377D02*Y217287D01*
X268517Y217742D01*
X267607D02*X268517D01*
X267607D02*X267152Y217287D01*
Y216832D02*X268972D01*
X267152D02*Y217287D01*
X266060Y217742D02*X264240Y215922D01*
X266060D02*X264240Y217742D01*
X262693Y216377D02*Y219562D01*
Y216377D02*X262238Y215922D01*
Y218197D02*X263148D01*
X261328Y216377D02*Y217742D01*
Y216377D02*X260873Y215922D01*
X259963D02*X260873D01*
X259963D02*X259508Y216377D01*
Y217742D01*
X257051D02*X256596Y217287D01*
X257051Y217742D02*X257961D01*
X258416Y217287D02*X257961Y217742D01*
X258416Y216377D02*Y217287D01*
Y216377D02*X257961Y215922D01*
X256596Y216377D02*Y217742D01*
Y216377D02*X256141Y215922D01*
X257051D02*X257961D01*
X257051D02*X256596Y216377D01*
X255049D02*Y219562D01*
Y216377D02*X254594Y215922D01*
X250681Y217924D02*X252046D01*
X250226Y215922D02*X252046D01*
Y219562D01*
X250226D02*X252046D01*
X249134Y216377D02*Y219562D01*
Y216377D02*X248679Y215922D01*
X245949D02*X247314D01*
X247769Y216377D02*X247314Y215922D01*
X247769Y216377D02*Y217287D01*
X247314Y217742D01*
X246404D02*X247314D01*
X246404D02*X245949Y217287D01*
Y216832D02*X247769D01*
X245949D02*Y217287D01*
X243037Y217742D02*X244402D01*
X244857Y217287D02*X244402Y217742D01*
X244857Y216377D02*Y217287D01*
Y216377D02*X244402Y215922D01*
X243037D02*X244402D01*
X241490Y216377D02*Y219562D01*
Y216377D02*X241035Y215922D01*
Y218197D02*X241945D01*
X239670Y215922D02*Y217287D01*
X239215Y217742D01*
X238305D02*X239215D01*
X240125D02*X239670Y217287D01*
X237213Y216377D02*Y217287D01*
X236758Y217742D01*
X235848D02*X236758D01*
X235848D02*X235393Y217287D01*
Y216377D02*Y217287D01*
X235848Y215922D02*X235393Y216377D01*
X235848Y215922D02*X236758D01*
X237213Y216377D02*X236758Y215922D01*
X233846D02*Y217287D01*
X233391Y217742D01*
X232936D02*X233391D01*
X232936D02*X232480Y217287D01*
Y215922D02*Y217287D01*
X234300Y217742D02*X233846Y217287D01*
X231388Y218561D02*Y218652D01*
Y215922D02*Y217287D01*
X228658Y217742D02*X230023D01*
X230478Y217287D02*X230023Y217742D01*
X230478Y216377D02*Y217287D01*
Y216377D02*X230023Y215922D01*
X228658D02*X230023D01*
X225746D02*X227111D01*
X225746D02*X225291Y216377D01*
X225746Y216832D02*X225291Y216377D01*
X225746Y216832D02*X227111D01*
X227566Y217287D02*X227111Y216832D01*
X227566Y217287D02*X227111Y217742D01*
X225746D02*X227111D01*
X225746D02*X225291Y217287D01*
X227566Y216377D02*X227111Y215922D01*
X222561Y219107D02*X222106Y219562D01*
X220741D02*X222106D01*
X220741D02*X220286Y219107D01*
Y218197D02*Y219107D01*
X222561Y215922D02*X220286Y218197D01*
Y215922D02*X222561D01*
X219194Y216377D02*X218739Y215922D01*
X219194Y216377D02*Y219107D01*
X218739Y219562D01*
X217829D02*X218739D01*
X217829D02*X217374Y219107D01*
Y216377D02*Y219107D01*
X217829Y215922D02*X217374Y216377D01*
X217829Y215922D02*X218739D01*
X219194Y216832D02*X217374Y218652D01*
X216282Y218834D02*X215554Y219562D01*
Y215922D02*Y219562D01*
X214917Y215922D02*X216282D01*
X212005Y219562D02*X213825D01*
Y217742D02*Y219562D01*
Y217742D02*X213370Y218197D01*
X212460D02*X213370D01*
X212460D02*X212005Y217742D01*
Y216377D02*Y217742D01*
X212460Y215922D02*X212005Y216377D01*
X212460Y215922D02*X213370D01*
X213825Y216377D02*X213370Y215922D01*
X279528Y208048D02*Y211688D01*
Y209413D02*X279073Y209868D01*
X278163D02*X279073D01*
X278163D02*X277708Y209413D01*
Y208048D02*Y209413D01*
X276161Y208503D02*Y211688D01*
Y208503D02*X275706Y208048D01*
Y210323D02*X276616D01*
X274341Y208503D02*Y211688D01*
Y208503D02*X273886Y208048D01*
Y210323D02*X274796D01*
X272521Y206683D02*Y209413D01*
X272976Y209868D02*X272521Y209413D01*
X272066Y209868D01*
X271156D02*X272066D01*
X271156D02*X270701Y209413D01*
Y208503D02*Y209413D01*
X271156Y208048D02*X270701Y208503D01*
X271156Y208048D02*X272066D01*
X272521Y208503D02*X272066Y208048D01*
X267789D02*X269154D01*
X267789D02*X267334Y208503D01*
X267789Y208958D02*X267334Y208503D01*
X267789Y208958D02*X269154D01*
X269609Y209413D02*X269154Y208958D01*
X269609Y209413D02*X269154Y209868D01*
X267789D02*X269154D01*
X267789D02*X267334Y209413D01*
X269609Y208503D02*X269154Y208048D01*
X265787Y210323D02*X266242D01*
X265787Y209413D02*X266242D01*
X264695Y208503D02*X261965Y211233D01*
X260873Y208503D02*X258143Y211233D01*
X255686Y209868D02*X255231Y209413D01*
X255686Y209868D02*X256596D01*
X257051Y209413D02*X256596Y209868D01*
X257051Y208503D02*Y209413D01*
Y208503D02*X256596Y208048D01*
X255686D02*X256596D01*
X255686D02*X255231Y208503D01*
X257051Y207138D02*X256596Y206683D01*
X255686D02*X256596D01*
X255686D02*X255231Y207138D01*
Y209868D01*
X254139Y210687D02*Y210778D01*
Y208048D02*Y209413D01*
X252774Y208503D02*Y211688D01*
Y208503D02*X252319Y208048D01*
Y210323D02*X253229D01*
X251409Y208048D02*Y211688D01*
Y209413D02*X250954Y209868D01*
X250044D02*X250954D01*
X250044D02*X249589Y209413D01*
Y208048D02*Y209413D01*
X248497Y208503D02*Y209868D01*
Y208503D02*X248042Y208048D01*
X247132D02*X248042D01*
X247132D02*X246677Y208503D01*
Y209868D01*
X245585Y208048D02*Y211688D01*
Y208503D02*X245130Y208048D01*
X244220D02*X245130D01*
X244220D02*X243765Y208503D01*
Y209413D01*
X244220Y209868D02*X243765Y209413D01*
X244220Y209868D02*X245130D01*
X245585Y209413D02*X245130Y209868D01*
X242218Y208048D02*X242673D01*
X239306Y209868D02*X240671D01*
X241126Y209413D02*X240671Y209868D01*
X241126Y208503D02*Y209413D01*
Y208503D02*X240671Y208048D01*
X239306D02*X240671D01*
X238214Y208503D02*Y209413D01*
X237759Y209868D01*
X236849D02*X237759D01*
X236849D02*X236394Y209413D01*
Y208503D02*Y209413D01*
X236849Y208048D02*X236394Y208503D01*
X236849Y208048D02*X237759D01*
X238214Y208503D02*X237759Y208048D01*
X234846D02*Y209413D01*
X234392Y209868D01*
X233936D02*X234392D01*
X233936D02*X233482Y209413D01*
Y208048D02*Y209413D01*
X233026Y209868D01*
X232572D02*X233026D01*
X232572D02*X232116Y209413D01*
Y208048D02*Y209413D01*
X235302Y209868D02*X234846Y209413D01*
X231024Y208503D02*X228294Y211233D01*
X225382Y208048D02*X226747D01*
X227202Y208503D02*X226747Y208048D01*
X227202Y208503D02*Y209413D01*
X226747Y209868D01*
X225837D02*X226747D01*
X225837D02*X225382Y209413D01*
Y208958D02*X227202D01*
X225382D02*Y209413D01*
X222470Y208048D02*X223835D01*
X224290Y208503D02*X223835Y208048D01*
X224290Y208503D02*Y209413D01*
X223835Y209868D01*
X222925D02*X223835D01*
X222925D02*X222470Y209413D01*
Y208958D02*X224290D01*
X222470D02*Y209413D01*
X219558Y209868D02*X221378D01*
X218466Y208503D02*Y211688D01*
Y208503D02*X218011Y208048D01*
X215281Y209868D02*X216646D01*
X217101Y209413D02*X216646Y209868D01*
X217101Y208503D02*Y209413D01*
Y208503D02*X216646Y208048D01*
X215281D02*X216646D01*
X214189Y208503D02*Y209413D01*
X213734Y209868D01*
X212824D02*X213734D01*
X212824D02*X212369Y209413D01*
Y208503D02*Y209413D01*
X212824Y208048D02*X212369Y208503D01*
X212824Y208048D02*X213734D01*
X214189Y208503D02*X213734Y208048D01*
X211277Y208503D02*X208547Y211233D01*
X205635Y209868D02*X207000D01*
X207455Y209413D02*X207000Y209868D01*
X207455Y208503D02*Y209413D01*
Y208503D02*X207000Y208048D01*
X205635D02*X207000D01*
X202723D02*X204088D01*
X204543Y208503D02*X204088Y208048D01*
X204543Y208503D02*Y209413D01*
X204088Y209868D01*
X203178D02*X204088D01*
X203178D02*X202723Y209413D01*
Y208958D02*X204543D01*
X202723D02*Y209413D01*
X201631Y208503D02*X198901Y211233D01*
X278163Y201994D02*X277708Y201539D01*
X278163Y201994D02*X279073D01*
X279528Y201539D02*X279073Y201994D01*
X279528Y200629D02*Y201539D01*
Y200629D02*X279073Y200174D01*
X278163D02*X279073D01*
X278163D02*X277708Y200629D01*
X279528Y199264D02*X279073Y198809D01*
X278163D02*X279073D01*
X278163D02*X277708Y199264D01*
Y201994D01*
X276616Y202813D02*Y202904D01*
Y200174D02*Y201539D01*
X275251Y200629D02*Y203814D01*
Y200629D02*X274796Y200174D01*
Y202449D02*X275706D01*
X273431D02*X273886D01*
X273431Y201539D02*X273886D01*
X270701D02*X268881Y203814D01*
X268426Y201539D02*X270701D01*
X268881Y200174D02*Y203814D01*
X265514Y200174D02*Y203814D01*
X265969Y200174D02*X265514Y200629D01*
X265969Y200174D02*X266879D01*
X267334Y200629D02*X266879Y200174D01*
X267334Y200629D02*Y201539D01*
X266879Y201994D01*
X265969D02*X266879D01*
X265969D02*X265514Y201539D01*
X263057Y203814D02*X262602Y203359D01*
X263057Y203814D02*X263967D01*
X264422Y203359D02*X263967Y203814D01*
X264422Y200629D02*Y203359D01*
Y200629D02*X263967Y200174D01*
X263057Y202176D02*X262602Y201721D01*
X263057Y202176D02*X264422D01*
X263057Y200174D02*X263967D01*
X263057D02*X262602Y200629D01*
Y201721D01*
X261510Y200629D02*X261055Y200174D01*
X261510Y200629D02*Y203359D01*
X261055Y203814D01*
X260145D02*X261055D01*
X260145D02*X259690Y203359D01*
Y200629D02*Y203359D01*
X260145Y200174D02*X259690Y200629D01*
X260145Y200174D02*X261055D01*
X261510Y201084D02*X259690Y202904D01*
X258598Y203359D02*X258143Y203814D01*
X256778D02*X258143D01*
X256778D02*X256323Y203359D01*
Y202449D02*Y203359D01*
X258598Y200174D02*X256323Y202449D01*
Y200174D02*X258598D01*
X253866Y201994D02*X253411Y201539D01*
X253866Y201994D02*X254776D01*
X255231Y201539D02*X254776Y201994D01*
X255231Y200629D02*Y201539D01*
Y200629D02*X254776Y200174D01*
X253411Y200629D02*Y201994D01*
Y200629D02*X252956Y200174D01*
X253866D02*X254776D01*
X253866D02*X253411Y200629D01*
X251409Y200174D02*Y203359D01*
X250954Y203814D01*
X250499D02*X250954D01*
Y201994D02*X251864D01*
X247769D02*X249134D01*
X249589Y201539D02*X249134Y201994D01*
X249589Y200629D02*Y201539D01*
Y200629D02*X249134Y200174D01*
X247769D02*X249134D01*
X244857D02*X246222D01*
X246677Y200629D02*X246222Y200174D01*
X246677Y200629D02*Y201539D01*
X246222Y201994D01*
X245312D02*X246222D01*
X245312D02*X244857Y201539D01*
Y201084D02*X246677D01*
X244857D02*Y201539D01*
X241945Y201994D02*X243310D01*
X243765Y201539D02*X243310Y201994D01*
X243765Y200629D02*Y201539D01*
Y200629D02*X243310Y200174D01*
X241945D02*X243310D01*
X239488Y201994D02*X239033Y201539D01*
X239488Y201994D02*X240398D01*
X240853Y201539D02*X240398Y201994D01*
X240853Y200629D02*Y201539D01*
Y200629D02*X240398Y200174D01*
X239033Y200629D02*Y201994D01*
Y200629D02*X238578Y200174D01*
X239488D02*X240398D01*
X239488D02*X239033Y200629D01*
X235666Y203814D02*X237486D01*
Y201994D02*Y203814D01*
Y201994D02*X237031Y202449D01*
X236121D02*X237031D01*
X236121D02*X235666Y201994D01*
Y200629D02*Y201994D01*
X236121Y200174D02*X235666Y200629D01*
X236121Y200174D02*X237031D01*
X237486Y200629D02*X237031Y200174D01*
X234574Y203359D02*X234119Y203814D01*
X232754D02*X234119D01*
X232754D02*X232299Y203359D01*
Y202449D02*Y203359D01*
X234574Y200174D02*X232299Y202449D01*
Y200174D02*X234574D01*
X231206Y200629D02*X230752Y200174D01*
X231206Y200629D02*Y201357D01*
X230570Y201994D01*
X230024D02*X230570D01*
X230024D02*X229386Y201357D01*
Y200629D02*Y201357D01*
X229842Y200174D02*X229386Y200629D01*
X229842Y200174D02*X230752D01*
X231206Y202631D02*X230570Y201994D01*
X231206Y202631D02*Y203359D01*
X230752Y203814D01*
X229842D02*X230752D01*
X229842D02*X229386Y203359D01*
Y202631D02*Y203359D01*
X230024Y201994D02*X229386Y202631D01*
X228294Y200174D02*Y203814D01*
Y200629D02*X227839Y200174D01*
X226929D02*X227839D01*
X226929D02*X226474Y200629D01*
Y201539D01*
X226929Y201994D02*X226474Y201539D01*
X226929Y201994D02*X227839D01*
X228294Y201539D02*X227839Y201994D01*
X224017Y203814D02*X223562Y203359D01*
X224017Y203814D02*X224927D01*
X225382Y203359D02*X224927Y203814D01*
X225382Y200629D02*Y203359D01*
Y200629D02*X224927Y200174D01*
X224017Y202176D02*X223562Y201721D01*
X224017Y202176D02*X225382D01*
X224017Y200174D02*X224927D01*
X224017D02*X223562Y200629D01*
Y201721D01*
X113189Y255890D02*X112189Y251890D01*
X111189Y255890D01*
X107989D02*X107489Y255390D01*
X107989Y255890D02*X109489D01*
X109989Y255390D02*X109489Y255890D01*
X109989Y252390D02*Y255390D01*
Y252390D02*X109489Y251890D01*
X107989D02*X109489D01*
X107989D02*X107489Y252390D01*
Y253390D01*
X107989Y253890D02*X107489Y253390D01*
X107989Y253890D02*X108989D01*
X106289Y251890D02*Y255890D01*
X103789Y251890D01*
Y255890D01*
X102089Y251890D02*Y255890D01*
X100789D02*X100089Y255190D01*
Y252590D02*Y255190D01*
X100789Y251890D02*X100089Y252590D01*
X100789Y251890D02*X102589D01*
X100789Y255890D02*X102589D01*
G54D55*X259567Y269685D02*X277283D01*
Y272835D02*Y269685D01*
X259567Y272835D02*Y269685D01*
X251102Y272835D02*X259567D01*
X277283D02*X278661D01*
X259567Y285433D02*X277283D01*
Y282283D01*
X259567Y285433D02*Y282283D01*
X251102D02*X259567D01*
X277283D02*X278661D01*
X261811Y271654D02*X273622D01*
X261811Y283465D02*Y271654D01*
X273622Y283465D02*Y271654D01*
X261811Y283465D02*X273622D01*
G54D56*X249134Y277559D03*
G54D55*X262598Y293307D02*X269685D01*
X262598Y285433D02*X269685D01*
G54D56*X260630Y289370D03*
G54D55*X117835Y269685D02*X135551D01*
Y272835D02*Y269685D01*
X117835Y272835D02*Y269685D01*
X109370Y272835D02*X117835D01*
X135551D02*X136929D01*
X117835Y285433D02*X135551D01*
Y282283D01*
X117835Y285433D02*Y282283D01*
X109370D02*X117835D01*
X135551D02*X136929D01*
X120079Y271654D02*X131890D01*
X120079Y283465D02*Y271654D01*
X131890Y283465D02*Y271654D01*
X120079Y283465D02*X131890D01*
G54D56*X107402Y277559D03*
G54D55*X120866Y293307D02*X127953D01*
X120866Y285433D02*X127953D01*
G54D56*X118898Y289370D03*
G54D55*X165079Y269685D02*X182795D01*
Y272835D02*Y269685D01*
X165079Y272835D02*Y269685D01*
X156614Y272835D02*X165079D01*
X182795D02*X184173D01*
X165079Y285433D02*X182795D01*
Y282283D01*
X165079Y285433D02*Y282283D01*
X156614D02*X165079D01*
X182795D02*X184173D01*
X167323Y271654D02*X179134D01*
X167323Y283465D02*Y271654D01*
X179134Y283465D02*Y271654D01*
X167323Y283465D02*X179134D01*
G54D56*X154646Y277559D03*
G54D55*X168110Y293307D02*X175197D01*
X168110Y285433D02*X175197D01*
G54D56*X166142Y289370D03*
G54D55*X212323Y269685D02*X230039D01*
Y272835D02*Y269685D01*
X212323Y272835D02*Y269685D01*
X203858Y272835D02*X212323D01*
X230039D02*X231417D01*
X212323Y285433D02*X230039D01*
Y282283D01*
X212323Y285433D02*Y282283D01*
X203858D02*X212323D01*
X230039D02*X231417D01*
X214567Y271654D02*X226378D01*
X214567Y283465D02*Y271654D01*
X226378Y283465D02*Y271654D01*
X214567Y283465D02*X226378D01*
G54D56*X201890Y277559D03*
G54D55*X215354Y293307D02*X222441D01*
X215354Y285433D02*X222441D01*
G54D56*X213386Y289370D03*
M02*
