G04 start of page 2 for group 0 idx 0 *
G04 Title: Das Blinkinput, top *
G04 Creator: pcb 1.99z *
G04 CreationDate: Thu 04 Jun 2015 03:29:16 PM GMT UTC *
G04 For: eelco *
G04 Format: Gerber/RS-274X *
G04 PCB-Dimensions (mil): 3937.01 3937.01 *
G04 PCB-Coordinate-Origin: lower left *
%MOIN*%
%FSLAX25Y25*%
%LNTOP*%
%ADD23C,0.0197*%
%ADD22C,0.0315*%
%ADD21C,0.0394*%
%ADD20R,0.0472X0.0472*%
%ADD19R,0.0591X0.0591*%
%ADD18R,0.0413X0.0413*%
%ADD17R,0.0453X0.0453*%
%ADD16R,0.0236X0.0236*%
%ADD15C,0.0001*%
%ADD14C,0.0669*%
%ADD13C,0.0079*%
%ADD12C,0.0098*%
%ADD11C,0.0157*%
G54D11*X146063Y206693D02*Y212992D01*
G54D12*X128150Y206693D02*Y220472D01*
G54D11*X120079Y208661D02*Y202756D01*
X141732Y216535D02*X141535Y216732D01*
X135827D01*
X106299Y220630D02*X106457Y220472D01*
X110236Y230315D02*X112205Y228346D01*
X122047D01*
X124409Y230709D01*
X106457Y220472D02*X135827D01*
X146063D02*X161417D01*
Y230315D01*
Y202756D02*Y208661D01*
Y202756D02*X153150D01*
Y206693D01*
X168110Y258071D02*Y253150D01*
X171260Y250000D01*
X178346Y261811D02*X181102D01*
X183071Y259843D01*
Y251181D01*
X181890Y250000D01*
X171260D02*X174803D01*
X173228Y244094D02*X174803Y245669D01*
Y250000D01*
X183071Y244094D02*X181890Y245276D01*
Y250000D01*
X215354Y258071D02*Y253150D01*
X225591Y261811D02*X228346D01*
X230315Y259843D01*
Y251181D01*
X229134Y250000D01*
X215354Y253150D02*X218504Y250000D01*
X222047D01*
X220472Y244094D02*X222047Y245669D01*
Y250000D01*
X230315Y244094D02*X229134Y245276D01*
Y250000D01*
X122835Y258071D02*Y253150D01*
X125984Y250000D01*
X129528D01*
X133071Y261811D02*X135827D01*
X137795Y259843D01*
Y251181D01*
X136614Y250000D01*
X124016Y232677D02*X129528D01*
X131890Y230315D01*
X115354Y239961D02*X130118D01*
X139764Y230315D01*
X124409Y230709D02*Y232677D01*
X129528Y250000D02*X130118Y249409D01*
X143701Y244094D02*Y248031D01*
X141732Y250000D01*
X136614D01*
X130118Y249409D02*Y239961D01*
X105118Y236220D02*X108268D01*
X110236Y234252D01*
Y230315D01*
X260630Y258071D02*Y253150D01*
X263780Y250000D01*
X267323D01*
X275591Y259843D02*X273622Y261811D01*
X270866D01*
X275591Y259843D02*Y251181D01*
X274409Y250000D01*
X275591Y244094D02*X274409Y245276D01*
Y250000D01*
X267323Y245669D02*Y250000D01*
X240157Y244094D02*X244094Y240157D01*
X261811D01*
X267323Y245669D02*X261811Y240157D01*
X139764Y230315D02*X236220D01*
Y212992D02*Y206693D01*
Y220079D02*Y230315D01*
X240551Y220079D02*X236220D01*
X263780Y218504D02*X264764Y219488D01*
Y226378D01*
X240551Y220079D02*X244094Y216535D01*
Y214567D01*
X264764Y206693D02*Y212598D01*
X265748Y213583D02*X264764Y212598D01*
G54D12*X198819Y253937D02*X206693D01*
Y257874D02*X210630Y261811D01*
X218504D01*
G54D11*X185039Y265748D02*X184843Y265551D01*
X178346D01*
G54D12*X218504Y261811D02*X222244Y258071D01*
X225591D01*
X196850Y255906D02*X198819Y253937D01*
X180315Y240157D02*X222441D01*
X224409Y238189D01*
X218504D02*X222441Y234252D01*
X206693Y257874D02*Y246063D01*
X159764Y283780D02*X165354Y289370D01*
X169291D01*
X159764Y265551D02*Y283780D01*
X135630Y206693D02*Y212992D01*
X210630Y206299D02*X202756D01*
Y214370D02*Y230315D01*
X161417Y220472D02*Y216535D01*
X163386Y214567D01*
X165354D01*
X167126Y212795D02*X165354Y214567D01*
X125984Y226378D02*X157480D01*
X165354D02*X175197D01*
X173228Y212795D02*X167126D01*
X183071Y206693D02*Y212795D01*
X173228Y220276D02*X183071D01*
X269882Y217795D02*Y206496D01*
X178150Y220276D02*Y223425D01*
X175197Y226378D01*
X192913Y224409D02*Y230315D01*
X168110Y265551D02*X149606D01*
Y258465D02*Y255906D01*
X151575Y253937D01*
X159449D01*
Y257874D02*X163386Y261811D01*
X215354Y265551D02*X196850D01*
X122835D02*X104331D01*
X260630D02*X242126D01*
G54D11*X139764Y265748D02*X139567Y265551D01*
X133071D01*
G54D12*X163386Y261811D02*X171260D01*
X175000Y258071D01*
X178346D01*
X129724D02*X133071D01*
X244094Y253937D02*X251969D01*
Y257874D02*X255906Y261811D01*
X251969Y257874D02*Y253937D01*
X255906Y261811D02*X263780D01*
X267520Y258071D01*
X270866D01*
X115354Y232480D02*Y235039D01*
X112205Y236220D02*X114173D01*
X115354Y235039D01*
X116142Y246063D02*X114173Y248031D01*
X105118Y232480D02*Y229528D01*
Y239961D02*X108465D01*
X112205Y236220D01*
X105118Y229528D02*X106299Y228346D01*
X108268D01*
X112205Y224409D01*
X124016D01*
X125984Y226378D01*
G54D11*X105118Y239961D02*Y247244D01*
X104331Y248031D01*
G54D12*X196850Y258465D02*Y255906D01*
X137008Y238189D02*X218504D01*
X137008D02*X133071Y242126D01*
Y258071D01*
X159449Y257874D02*Y244094D01*
X178346Y258071D02*Y242126D01*
X180315Y240157D01*
X267205Y232283D02*Y234252D01*
X104331Y258465D02*Y255906D01*
X106299Y253937D01*
X114173D01*
Y257874D02*X118110Y261811D01*
X125984D01*
X129724Y258071D01*
X112520Y283780D02*X118110Y289370D01*
X122047D01*
X112520Y265551D02*Y283780D01*
X114173Y257874D02*Y248031D01*
X244882Y206693D02*Y200787D01*
X218504Y206299D02*X226378D01*
X214567Y219094D02*Y200787D01*
X236220Y206693D02*X234252D01*
X254921Y213583D02*X249803Y218701D01*
X262283Y212126D02*X259843Y214567D01*
X257402Y213071D02*X259843Y210630D01*
Y206693D01*
X249803D02*Y214370D01*
X234252Y206693D02*X230315Y210630D01*
X228346D01*
X226378Y212598D01*
Y214370D01*
X254921Y200787D02*Y213583D01*
X261811Y200787D02*X262283Y201260D01*
G54D13*Y212126D01*
G54D12*X261811Y200787D02*X196850D01*
X192913Y204724D01*
X249803Y218701D02*Y226378D01*
G54D13*X257402Y232283D02*Y220472D01*
G54D12*X259843Y214567D02*Y226378D01*
X257402Y220472D02*Y213071D01*
X240157Y224016D02*X249803Y214370D01*
X244882Y231496D02*Y226378D01*
X225591Y258071D02*Y242126D01*
X227559Y240157D02*X225591Y242126D01*
X242126Y258465D02*X239567D01*
X227559Y240157D02*X240157D01*
X222441Y234252D02*X238189D01*
X240157Y232283D01*
Y224016D01*
Y240157D02*X244094Y236220D01*
X251969D01*
X224409Y238189D02*X238189D01*
X244882Y231496D01*
X242126Y258465D02*Y255906D01*
X244094Y253937D01*
X254252Y265551D02*Y283780D01*
X207008D02*X212598Y289370D01*
X207008Y265551D02*Y283780D01*
X212598Y289370D02*X216535D01*
X254252Y283780D02*X259843Y289370D01*
X263780D01*
G54D11*X277559Y265748D02*X277362Y265551D01*
X270866D01*
X232283Y265748D02*X232087Y265551D01*
X225591D01*
G54D12*X270866Y242126D02*X262992Y234252D01*
X270866Y258071D02*Y242126D01*
G54D11*X253937Y246063D02*X251969Y248031D01*
Y253937D01*
G54D12*X254921Y233268D02*Y226378D01*
X269882D02*Y232480D01*
X257402Y232283D02*X259370Y234252D01*
X262992D01*
X251969Y236220D02*X254921Y233268D01*
X267205Y234252D02*X273110Y240157D01*
X277559Y206693D02*X279528Y208661D01*
Y212756D01*
X287402Y220630D01*
X277559Y206693D02*X274803D01*
Y226378D02*X277559D01*
X281811Y230630D01*
X287402D01*
X267205Y220472D02*X269882Y217795D01*
G54D13*X267205Y220472D02*Y232283D01*
G54D12*X277559Y240157D02*X287402Y250000D01*
X273110Y240157D02*X277559D01*
X287402Y250000D02*Y250630D01*
X269882Y232480D02*X273622Y236220D01*
X282992D01*
X287402Y240630D01*
G54D14*X253937Y246063D03*
X206693D03*
G54D15*G36*
X284055Y253976D02*Y247283D01*
X290748D01*
Y253976D01*
X284055D01*
G37*
G54D14*X116142Y246063D03*
G54D15*G36*
X102953Y223976D02*Y217283D01*
X109646D01*
Y223976D01*
X102953D01*
G37*
G54D14*X106299Y210630D03*
X159449Y244094D03*
X104331Y248031D03*
X287402Y240630D03*
Y230630D03*
Y220630D03*
Y210630D03*
X192913Y204724D03*
Y214567D03*
Y224409D03*
G54D16*X259843Y229035D02*Y223720D01*
X254921Y229035D02*Y223720D01*
X249803Y229035D02*Y223720D01*
X244882Y229035D02*Y223720D01*
X274803Y229035D02*Y223720D01*
X269882Y229035D02*Y223720D01*
X264764Y229035D02*Y223720D01*
X269783Y265551D02*X271949D01*
X259547D02*X261713D01*
X259547Y258071D02*X261713D01*
X244882Y209350D02*Y204035D01*
X249803Y209350D02*Y204035D01*
G54D17*X250591Y265748D02*X253346D01*
X250591Y253937D02*X253346D01*
G54D16*X254921Y209350D02*Y204035D01*
X259843Y209350D02*Y204035D01*
X264764Y209350D02*Y204035D01*
X269882Y209350D02*Y204035D01*
X274803Y209350D02*Y204035D01*
G54D18*X201969Y214370D02*X203543D01*
X201969Y206890D02*X203543D01*
X225591D02*X227165D01*
X225591Y214370D02*X227165D01*
G54D15*G36*
X208268Y208661D02*Y203937D01*
X212992D01*
Y208661D01*
X208268D01*
G37*
G36*
X216142D02*Y203937D01*
X220866D01*
Y208661D01*
X216142D01*
G37*
G54D19*X214370Y219094D02*X214764D01*
G54D18*X182283Y220276D02*X183858D01*
X182283Y212795D02*X183858D01*
G54D17*X235630Y220079D02*X236811D01*
X235630Y212992D02*X236811D01*
X267323Y250591D02*Y249409D01*
X274409Y250591D02*Y249409D01*
G54D16*X269783Y258071D02*X271949D01*
X269783Y261811D02*X271949D01*
G54D15*G36*
X231811Y281102D02*Y274016D01*
X238898D01*
Y281102D01*
X231811D01*
G37*
G54D17*X241535Y265551D02*X242717D01*
X241535Y258465D02*X242717D01*
G54D15*G36*
X250709Y281102D02*Y274016D01*
X257795D01*
Y281102D01*
X250709D01*
G37*
G36*
X279055D02*Y274016D01*
X286142D01*
Y281102D01*
X279055D01*
G37*
G54D17*X222047Y250591D02*Y249409D01*
X205315Y253937D02*X208071D01*
G54D16*X214272Y258071D02*X216437D01*
G54D17*X229134Y250591D02*Y249409D01*
G54D16*X224508Y258071D02*X226673D01*
X224508Y261811D02*X226673D01*
X224508Y265551D02*X226673D01*
G54D15*G36*
X203465Y281102D02*Y274016D01*
X210551D01*
Y281102D01*
X203465D01*
G37*
G54D17*X205315Y265748D02*X208071D01*
G54D16*X214272Y265551D02*X216437D01*
G54D15*G36*
X184567Y281102D02*Y274016D01*
X191654D01*
Y281102D01*
X184567D01*
G37*
G54D16*X104035Y239961D02*X106201D01*
X104035Y236220D02*X106201D01*
X104035Y232480D02*X106201D01*
G54D17*X103740Y265551D02*X104921D01*
X103740Y258465D02*X104921D01*
G54D16*X114272Y232480D02*X116437D01*
X114272Y239961D02*X116437D01*
G54D17*X112795Y265748D02*X115551D01*
X112795Y253937D02*X115551D01*
G54D15*G36*
X108976Y281102D02*Y274016D01*
X116063D01*
Y281102D01*
X108976D01*
G37*
G54D17*X123425Y239764D02*X124606D01*
X123425Y232677D02*X124606D01*
X129528Y250591D02*Y249409D01*
X136614Y250591D02*Y249409D01*
G54D16*X131988Y258071D02*X134154D01*
X131988Y261811D02*X134154D01*
X131988Y265551D02*X134154D01*
X121752D02*X123917D01*
X121752Y258071D02*X123917D01*
G54D18*X172441Y212795D02*X174016D01*
G54D20*X160138Y208661D02*X162697D01*
G54D18*X172441Y220276D02*X174016D01*
G54D20*X160138Y220472D02*X162697D01*
G54D16*X134744D02*X136909D01*
X134744Y216732D02*X136909D01*
X144980Y220472D02*X147146D01*
G54D17*X146063Y207283D02*Y206102D01*
X153150Y207283D02*Y206102D01*
G54D18*X128150Y207480D02*Y205906D01*
X135630Y207480D02*Y205906D01*
G54D16*X134744Y212992D02*X136909D01*
X144980D02*X147146D01*
G54D20*X118799Y220472D02*X121358D01*
X118799Y208661D02*X121358D01*
G54D17*X174803Y250591D02*Y249409D01*
X181890Y250591D02*Y249409D01*
X196260Y265551D02*X197441D01*
X196260Y258465D02*X197441D01*
G54D16*X177264Y258071D02*X179429D01*
X177264Y261811D02*X179429D01*
X177264Y265551D02*X179429D01*
G54D15*G36*
X137323Y281102D02*Y274016D01*
X144409D01*
Y281102D01*
X137323D01*
G37*
G36*
X156220D02*Y274016D01*
X163307D01*
Y281102D01*
X156220D01*
G37*
G54D17*X158071Y265748D02*X160827D01*
G54D16*X167028Y265551D02*X169193D01*
G54D17*X158071Y253937D02*X160827D01*
G54D16*X167028Y258071D02*X169193D01*
G54D17*X149016Y265551D02*X150197D01*
X149016Y258465D02*X150197D01*
G54D21*X185039Y265748D03*
G54D22*X169685Y289370D03*
X122244D03*
G54D21*X139764Y265748D03*
G54D22*X140866Y277559D03*
X159764D03*
X157480Y226378D03*
X143701Y244094D03*
G54D21*X131890Y230315D03*
G54D22*X173228Y244094D03*
G54D21*X161417Y202756D03*
X120079D03*
X141732Y216535D03*
G54D22*X112520Y277559D03*
G54D21*X232283Y265748D03*
G54D22*X263976Y289370D03*
X254252Y277559D03*
X183071Y206693D03*
G54D21*X236220D03*
G54D22*X282598Y277559D03*
G54D21*X240157Y244094D03*
G54D22*X275591D03*
X220472D03*
X230315D03*
G54D21*X277559Y265748D03*
G54D22*X207008Y277559D03*
X188110D03*
G54D21*X263780Y218504D03*
X244094Y214567D03*
X265748Y213583D03*
G54D22*X165354Y226378D03*
G54D21*X236220Y230315D03*
G54D22*X220472D03*
X173228D03*
X183071Y244094D03*
X216732Y289370D03*
X235354Y277559D03*
G54D23*G54D11*G54D23*G54D11*G54D23*G54D11*G54D23*G54D11*G54D23*G54D11*G54D23*G54D11*G54D23*G54D11*G54D23*G54D11*G54D23*G54D11*G54D23*G54D11*G54D21*M02*
